<?xml version="1.0" encoding="utf-8" standalone="no"?>
<!DOCTYPE svg PUBLIC "-//W3C//DTD SVG 1.1//EN"
  "http://www.w3.org/Graphics/SVG/1.1/DTD/svg11.dtd">
<svg height="345.6pt" version="1.1" viewBox="0 0 460.8 345.6" width="460.8pt" xmlns="http://www.w3.org/2000/svg" xmlns:xlink="http://www.w3.org/1999/xlink">
 <metadata>
  <rdf:RDF xmlns:cc="http://creativecommons.org/ns#" xmlns:dc="http://purl.org/dc/elements/1.1/" xmlns:rdf="http://www.w3.org/1999/02/22-rdf-syntax-ns#">
   <cc:Work>
    <dc:type rdf:resource="http://purl.org/dc/dcmitype/StillImage"/>
    <dc:date>2022-05-22T09:52:19.417928</dc:date>
    <dc:format>image/svg+xml</dc:format>
    <dc:creator>
     <cc:Agent>
      <dc:title>Matplotlib v3.4.3, https://matplotlib.org/</dc:title>
     </cc:Agent>
    </dc:creator>
   </cc:Work>
  </rdf:RDF>
 </metadata>
 <defs>
  <style type="text/css">*{stroke-linecap:butt;stroke-linejoin:round;}</style>
 </defs>
 <g id="figure_1">
  <g id="patch_1">
   <path d="M 0 345.6 
L 460.8 345.6 
L 460.8 0 
L 0 0 
z
" style="fill:#ffffff;"/>
  </g>
  <g id="axes_1">
   <g id="patch_2">
    <path d="M 57.6 307.584 
L 414.72 307.584 
L 414.72 41.472 
L 57.6 41.472 
z
" style="fill:#ffffff;"/>
   </g>
   <g id="matplotlib.axis_1">
    <g id="xtick_1">
     <g id="line2d_1">
      <defs>
       <path d="M 0 0 
L 0 3.5 
" id="m74508db52a" style="stroke:#000000;stroke-width:0.8;"/>
      </defs>
      <g>
       <use style="stroke:#000000;stroke-width:0.8;" x="73.832727" xlink:href="#m74508db52a" y="307.584"/>
      </g>
     </g>
     <g id="text_1">
      <!-- 0 -->
      <g transform="translate(70.651477 322.182437)scale(0.1 -0.1)">
       <defs>
        <path d="M 2034 4250 
Q 1547 4250 1301 3770 
Q 1056 3291 1056 2328 
Q 1056 1369 1301 889 
Q 1547 409 2034 409 
Q 2525 409 2770 889 
Q 3016 1369 3016 2328 
Q 3016 3291 2770 3770 
Q 2525 4250 2034 4250 
z
M 2034 4750 
Q 2819 4750 3233 4129 
Q 3647 3509 3647 2328 
Q 3647 1150 3233 529 
Q 2819 -91 2034 -91 
Q 1250 -91 836 529 
Q 422 1150 422 2328 
Q 422 3509 836 4129 
Q 1250 4750 2034 4750 
z
" id="DejaVuSans-30" transform="scale(0.015625)"/>
       </defs>
       <use xlink:href="#DejaVuSans-30"/>
      </g>
     </g>
    </g>
    <g id="xtick_2">
     <g id="line2d_2">
      <g>
       <use style="stroke:#000000;stroke-width:0.8;" x="138.828632" xlink:href="#m74508db52a" y="307.584"/>
      </g>
     </g>
     <g id="text_2">
      <!-- 200 -->
      <g transform="translate(129.284882 322.182437)scale(0.1 -0.1)">
       <defs>
        <path d="M 1228 531 
L 3431 531 
L 3431 0 
L 469 0 
L 469 531 
Q 828 903 1448 1529 
Q 2069 2156 2228 2338 
Q 2531 2678 2651 2914 
Q 2772 3150 2772 3378 
Q 2772 3750 2511 3984 
Q 2250 4219 1831 4219 
Q 1534 4219 1204 4116 
Q 875 4013 500 3803 
L 500 4441 
Q 881 4594 1212 4672 
Q 1544 4750 1819 4750 
Q 2544 4750 2975 4387 
Q 3406 4025 3406 3419 
Q 3406 3131 3298 2873 
Q 3191 2616 2906 2266 
Q 2828 2175 2409 1742 
Q 1991 1309 1228 531 
z
" id="DejaVuSans-32" transform="scale(0.015625)"/>
       </defs>
       <use xlink:href="#DejaVuSans-32"/>
       <use x="63.623047" xlink:href="#DejaVuSans-30"/>
       <use x="127.246094" xlink:href="#DejaVuSans-30"/>
      </g>
     </g>
    </g>
    <g id="xtick_3">
     <g id="line2d_3">
      <g>
       <use style="stroke:#000000;stroke-width:0.8;" x="203.824537" xlink:href="#m74508db52a" y="307.584"/>
      </g>
     </g>
     <g id="text_3">
      <!-- 400 -->
      <g transform="translate(194.280787 322.182437)scale(0.1 -0.1)">
       <defs>
        <path d="M 2419 4116 
L 825 1625 
L 2419 1625 
L 2419 4116 
z
M 2253 4666 
L 3047 4666 
L 3047 1625 
L 3713 1625 
L 3713 1100 
L 3047 1100 
L 3047 0 
L 2419 0 
L 2419 1100 
L 313 1100 
L 313 1709 
L 2253 4666 
z
" id="DejaVuSans-34" transform="scale(0.015625)"/>
       </defs>
       <use xlink:href="#DejaVuSans-34"/>
       <use x="63.623047" xlink:href="#DejaVuSans-30"/>
       <use x="127.246094" xlink:href="#DejaVuSans-30"/>
      </g>
     </g>
    </g>
    <g id="xtick_4">
     <g id="line2d_4">
      <g>
       <use style="stroke:#000000;stroke-width:0.8;" x="268.820442" xlink:href="#m74508db52a" y="307.584"/>
      </g>
     </g>
     <g id="text_4">
      <!-- 600 -->
      <g transform="translate(259.276692 322.182437)scale(0.1 -0.1)">
       <defs>
        <path d="M 2113 2584 
Q 1688 2584 1439 2293 
Q 1191 2003 1191 1497 
Q 1191 994 1439 701 
Q 1688 409 2113 409 
Q 2538 409 2786 701 
Q 3034 994 3034 1497 
Q 3034 2003 2786 2293 
Q 2538 2584 2113 2584 
z
M 3366 4563 
L 3366 3988 
Q 3128 4100 2886 4159 
Q 2644 4219 2406 4219 
Q 1781 4219 1451 3797 
Q 1122 3375 1075 2522 
Q 1259 2794 1537 2939 
Q 1816 3084 2150 3084 
Q 2853 3084 3261 2657 
Q 3669 2231 3669 1497 
Q 3669 778 3244 343 
Q 2819 -91 2113 -91 
Q 1303 -91 875 529 
Q 447 1150 447 2328 
Q 447 3434 972 4092 
Q 1497 4750 2381 4750 
Q 2619 4750 2861 4703 
Q 3103 4656 3366 4563 
z
" id="DejaVuSans-36" transform="scale(0.015625)"/>
       </defs>
       <use xlink:href="#DejaVuSans-36"/>
       <use x="63.623047" xlink:href="#DejaVuSans-30"/>
       <use x="127.246094" xlink:href="#DejaVuSans-30"/>
      </g>
     </g>
    </g>
    <g id="xtick_5">
     <g id="line2d_5">
      <g>
       <use style="stroke:#000000;stroke-width:0.8;" x="333.816347" xlink:href="#m74508db52a" y="307.584"/>
      </g>
     </g>
     <g id="text_5">
      <!-- 800 -->
      <g transform="translate(324.272597 322.182437)scale(0.1 -0.1)">
       <defs>
        <path d="M 2034 2216 
Q 1584 2216 1326 1975 
Q 1069 1734 1069 1313 
Q 1069 891 1326 650 
Q 1584 409 2034 409 
Q 2484 409 2743 651 
Q 3003 894 3003 1313 
Q 3003 1734 2745 1975 
Q 2488 2216 2034 2216 
z
M 1403 2484 
Q 997 2584 770 2862 
Q 544 3141 544 3541 
Q 544 4100 942 4425 
Q 1341 4750 2034 4750 
Q 2731 4750 3128 4425 
Q 3525 4100 3525 3541 
Q 3525 3141 3298 2862 
Q 3072 2584 2669 2484 
Q 3125 2378 3379 2068 
Q 3634 1759 3634 1313 
Q 3634 634 3220 271 
Q 2806 -91 2034 -91 
Q 1263 -91 848 271 
Q 434 634 434 1313 
Q 434 1759 690 2068 
Q 947 2378 1403 2484 
z
M 1172 3481 
Q 1172 3119 1398 2916 
Q 1625 2713 2034 2713 
Q 2441 2713 2670 2916 
Q 2900 3119 2900 3481 
Q 2900 3844 2670 4047 
Q 2441 4250 2034 4250 
Q 1625 4250 1398 4047 
Q 1172 3844 1172 3481 
z
" id="DejaVuSans-38" transform="scale(0.015625)"/>
       </defs>
       <use xlink:href="#DejaVuSans-38"/>
       <use x="63.623047" xlink:href="#DejaVuSans-30"/>
       <use x="127.246094" xlink:href="#DejaVuSans-30"/>
      </g>
     </g>
    </g>
    <g id="xtick_6">
     <g id="line2d_6">
      <g>
       <use style="stroke:#000000;stroke-width:0.8;" x="398.812252" xlink:href="#m74508db52a" y="307.584"/>
      </g>
     </g>
     <g id="text_6">
      <!-- 1000 -->
      <g transform="translate(386.087252 322.182437)scale(0.1 -0.1)">
       <defs>
        <path d="M 794 531 
L 1825 531 
L 1825 4091 
L 703 3866 
L 703 4441 
L 1819 4666 
L 2450 4666 
L 2450 531 
L 3481 531 
L 3481 0 
L 794 0 
L 794 531 
z
" id="DejaVuSans-31" transform="scale(0.015625)"/>
       </defs>
       <use xlink:href="#DejaVuSans-31"/>
       <use x="63.623047" xlink:href="#DejaVuSans-30"/>
       <use x="127.246094" xlink:href="#DejaVuSans-30"/>
       <use x="190.869141" xlink:href="#DejaVuSans-30"/>
      </g>
     </g>
    </g>
    <g id="text_7">
     <!-- Episode -->
     <g transform="translate(216.5225 335.860562)scale(0.1 -0.1)">
      <defs>
       <path d="M 628 4666 
L 3578 4666 
L 3578 4134 
L 1259 4134 
L 1259 2753 
L 3481 2753 
L 3481 2222 
L 1259 2222 
L 1259 531 
L 3634 531 
L 3634 0 
L 628 0 
L 628 4666 
z
" id="DejaVuSans-45" transform="scale(0.015625)"/>
       <path d="M 1159 525 
L 1159 -1331 
L 581 -1331 
L 581 3500 
L 1159 3500 
L 1159 2969 
Q 1341 3281 1617 3432 
Q 1894 3584 2278 3584 
Q 2916 3584 3314 3078 
Q 3713 2572 3713 1747 
Q 3713 922 3314 415 
Q 2916 -91 2278 -91 
Q 1894 -91 1617 61 
Q 1341 213 1159 525 
z
M 3116 1747 
Q 3116 2381 2855 2742 
Q 2594 3103 2138 3103 
Q 1681 3103 1420 2742 
Q 1159 2381 1159 1747 
Q 1159 1113 1420 752 
Q 1681 391 2138 391 
Q 2594 391 2855 752 
Q 3116 1113 3116 1747 
z
" id="DejaVuSans-70" transform="scale(0.015625)"/>
       <path d="M 603 3500 
L 1178 3500 
L 1178 0 
L 603 0 
L 603 3500 
z
M 603 4863 
L 1178 4863 
L 1178 4134 
L 603 4134 
L 603 4863 
z
" id="DejaVuSans-69" transform="scale(0.015625)"/>
       <path d="M 2834 3397 
L 2834 2853 
Q 2591 2978 2328 3040 
Q 2066 3103 1784 3103 
Q 1356 3103 1142 2972 
Q 928 2841 928 2578 
Q 928 2378 1081 2264 
Q 1234 2150 1697 2047 
L 1894 2003 
Q 2506 1872 2764 1633 
Q 3022 1394 3022 966 
Q 3022 478 2636 193 
Q 2250 -91 1575 -91 
Q 1294 -91 989 -36 
Q 684 19 347 128 
L 347 722 
Q 666 556 975 473 
Q 1284 391 1588 391 
Q 1994 391 2212 530 
Q 2431 669 2431 922 
Q 2431 1156 2273 1281 
Q 2116 1406 1581 1522 
L 1381 1569 
Q 847 1681 609 1914 
Q 372 2147 372 2553 
Q 372 3047 722 3315 
Q 1072 3584 1716 3584 
Q 2034 3584 2315 3537 
Q 2597 3491 2834 3397 
z
" id="DejaVuSans-73" transform="scale(0.015625)"/>
       <path d="M 1959 3097 
Q 1497 3097 1228 2736 
Q 959 2375 959 1747 
Q 959 1119 1226 758 
Q 1494 397 1959 397 
Q 2419 397 2687 759 
Q 2956 1122 2956 1747 
Q 2956 2369 2687 2733 
Q 2419 3097 1959 3097 
z
M 1959 3584 
Q 2709 3584 3137 3096 
Q 3566 2609 3566 1747 
Q 3566 888 3137 398 
Q 2709 -91 1959 -91 
Q 1206 -91 779 398 
Q 353 888 353 1747 
Q 353 2609 779 3096 
Q 1206 3584 1959 3584 
z
" id="DejaVuSans-6f" transform="scale(0.015625)"/>
       <path d="M 2906 2969 
L 2906 4863 
L 3481 4863 
L 3481 0 
L 2906 0 
L 2906 525 
Q 2725 213 2448 61 
Q 2172 -91 1784 -91 
Q 1150 -91 751 415 
Q 353 922 353 1747 
Q 353 2572 751 3078 
Q 1150 3584 1784 3584 
Q 2172 3584 2448 3432 
Q 2725 3281 2906 2969 
z
M 947 1747 
Q 947 1113 1208 752 
Q 1469 391 1925 391 
Q 2381 391 2643 752 
Q 2906 1113 2906 1747 
Q 2906 2381 2643 2742 
Q 2381 3103 1925 3103 
Q 1469 3103 1208 2742 
Q 947 2381 947 1747 
z
" id="DejaVuSans-64" transform="scale(0.015625)"/>
       <path d="M 3597 1894 
L 3597 1613 
L 953 1613 
Q 991 1019 1311 708 
Q 1631 397 2203 397 
Q 2534 397 2845 478 
Q 3156 559 3463 722 
L 3463 178 
Q 3153 47 2828 -22 
Q 2503 -91 2169 -91 
Q 1331 -91 842 396 
Q 353 884 353 1716 
Q 353 2575 817 3079 
Q 1281 3584 2069 3584 
Q 2775 3584 3186 3129 
Q 3597 2675 3597 1894 
z
M 3022 2063 
Q 3016 2534 2758 2815 
Q 2500 3097 2075 3097 
Q 1594 3097 1305 2825 
Q 1016 2553 972 2059 
L 3022 2063 
z
" id="DejaVuSans-65" transform="scale(0.015625)"/>
      </defs>
      <use xlink:href="#DejaVuSans-45"/>
      <use x="63.183594" xlink:href="#DejaVuSans-70"/>
      <use x="126.660156" xlink:href="#DejaVuSans-69"/>
      <use x="154.443359" xlink:href="#DejaVuSans-73"/>
      <use x="206.542969" xlink:href="#DejaVuSans-6f"/>
      <use x="267.724609" xlink:href="#DejaVuSans-64"/>
      <use x="331.201172" xlink:href="#DejaVuSans-65"/>
     </g>
    </g>
   </g>
   <g id="matplotlib.axis_2">
    <g id="ytick_1">
     <g id="line2d_7">
      <defs>
       <path d="M 0 0 
L -3.5 0 
" id="m9bd9f82b5a" style="stroke:#000000;stroke-width:0.8;"/>
      </defs>
      <g>
       <use style="stroke:#000000;stroke-width:0.8;" x="57.6" xlink:href="#m9bd9f82b5a" y="295.488"/>
      </g>
     </g>
     <g id="text_8">
      <!-- 0 -->
      <g transform="translate(44.2375 299.287219)scale(0.1 -0.1)">
       <use xlink:href="#DejaVuSans-30"/>
      </g>
     </g>
    </g>
    <g id="ytick_2">
     <g id="line2d_8">
      <g>
       <use style="stroke:#000000;stroke-width:0.8;" x="57.6" xlink:href="#m9bd9f82b5a" y="262.707512"/>
      </g>
     </g>
     <g id="text_9">
      <!-- 50 -->
      <g transform="translate(37.875 266.506731)scale(0.1 -0.1)">
       <defs>
        <path d="M 691 4666 
L 3169 4666 
L 3169 4134 
L 1269 4134 
L 1269 2991 
Q 1406 3038 1543 3061 
Q 1681 3084 1819 3084 
Q 2600 3084 3056 2656 
Q 3513 2228 3513 1497 
Q 3513 744 3044 326 
Q 2575 -91 1722 -91 
Q 1428 -91 1123 -41 
Q 819 9 494 109 
L 494 744 
Q 775 591 1075 516 
Q 1375 441 1709 441 
Q 2250 441 2565 725 
Q 2881 1009 2881 1497 
Q 2881 1984 2565 2268 
Q 2250 2553 1709 2553 
Q 1456 2553 1204 2497 
Q 953 2441 691 2322 
L 691 4666 
z
" id="DejaVuSans-35" transform="scale(0.015625)"/>
       </defs>
       <use xlink:href="#DejaVuSans-35"/>
       <use x="63.623047" xlink:href="#DejaVuSans-30"/>
      </g>
     </g>
    </g>
    <g id="ytick_3">
     <g id="line2d_9">
      <g>
       <use style="stroke:#000000;stroke-width:0.8;" x="57.6" xlink:href="#m9bd9f82b5a" y="229.927024"/>
      </g>
     </g>
     <g id="text_10">
      <!-- 100 -->
      <g transform="translate(31.5125 233.726243)scale(0.1 -0.1)">
       <use xlink:href="#DejaVuSans-31"/>
       <use x="63.623047" xlink:href="#DejaVuSans-30"/>
       <use x="127.246094" xlink:href="#DejaVuSans-30"/>
      </g>
     </g>
    </g>
    <g id="ytick_4">
     <g id="line2d_10">
      <g>
       <use style="stroke:#000000;stroke-width:0.8;" x="57.6" xlink:href="#m9bd9f82b5a" y="197.146537"/>
      </g>
     </g>
     <g id="text_11">
      <!-- 150 -->
      <g transform="translate(31.5125 200.945755)scale(0.1 -0.1)">
       <use xlink:href="#DejaVuSans-31"/>
       <use x="63.623047" xlink:href="#DejaVuSans-35"/>
       <use x="127.246094" xlink:href="#DejaVuSans-30"/>
      </g>
     </g>
    </g>
    <g id="ytick_5">
     <g id="line2d_11">
      <g>
       <use style="stroke:#000000;stroke-width:0.8;" x="57.6" xlink:href="#m9bd9f82b5a" y="164.366049"/>
      </g>
     </g>
     <g id="text_12">
      <!-- 200 -->
      <g transform="translate(31.5125 168.165268)scale(0.1 -0.1)">
       <use xlink:href="#DejaVuSans-32"/>
       <use x="63.623047" xlink:href="#DejaVuSans-30"/>
       <use x="127.246094" xlink:href="#DejaVuSans-30"/>
      </g>
     </g>
    </g>
    <g id="ytick_6">
     <g id="line2d_12">
      <g>
       <use style="stroke:#000000;stroke-width:0.8;" x="57.6" xlink:href="#m9bd9f82b5a" y="131.585561"/>
      </g>
     </g>
     <g id="text_13">
      <!-- 250 -->
      <g transform="translate(31.5125 135.38478)scale(0.1 -0.1)">
       <use xlink:href="#DejaVuSans-32"/>
       <use x="63.623047" xlink:href="#DejaVuSans-35"/>
       <use x="127.246094" xlink:href="#DejaVuSans-30"/>
      </g>
     </g>
    </g>
    <g id="ytick_7">
     <g id="line2d_13">
      <g>
       <use style="stroke:#000000;stroke-width:0.8;" x="57.6" xlink:href="#m9bd9f82b5a" y="98.805073"/>
      </g>
     </g>
     <g id="text_14">
      <!-- 300 -->
      <g transform="translate(31.5125 102.604292)scale(0.1 -0.1)">
       <defs>
        <path d="M 2597 2516 
Q 3050 2419 3304 2112 
Q 3559 1806 3559 1356 
Q 3559 666 3084 287 
Q 2609 -91 1734 -91 
Q 1441 -91 1130 -33 
Q 819 25 488 141 
L 488 750 
Q 750 597 1062 519 
Q 1375 441 1716 441 
Q 2309 441 2620 675 
Q 2931 909 2931 1356 
Q 2931 1769 2642 2001 
Q 2353 2234 1838 2234 
L 1294 2234 
L 1294 2753 
L 1863 2753 
Q 2328 2753 2575 2939 
Q 2822 3125 2822 3475 
Q 2822 3834 2567 4026 
Q 2313 4219 1838 4219 
Q 1578 4219 1281 4162 
Q 984 4106 628 3988 
L 628 4550 
Q 988 4650 1302 4700 
Q 1616 4750 1894 4750 
Q 2613 4750 3031 4423 
Q 3450 4097 3450 3541 
Q 3450 3153 3228 2886 
Q 3006 2619 2597 2516 
z
" id="DejaVuSans-33" transform="scale(0.015625)"/>
       </defs>
       <use xlink:href="#DejaVuSans-33"/>
       <use x="63.623047" xlink:href="#DejaVuSans-30"/>
       <use x="127.246094" xlink:href="#DejaVuSans-30"/>
      </g>
     </g>
    </g>
    <g id="ytick_8">
     <g id="line2d_14">
      <g>
       <use style="stroke:#000000;stroke-width:0.8;" x="57.6" xlink:href="#m9bd9f82b5a" y="66.024585"/>
      </g>
     </g>
     <g id="text_15">
      <!-- 350 -->
      <g transform="translate(31.5125 69.823804)scale(0.1 -0.1)">
       <use xlink:href="#DejaVuSans-33"/>
       <use x="63.623047" xlink:href="#DejaVuSans-35"/>
       <use x="127.246094" xlink:href="#DejaVuSans-30"/>
      </g>
     </g>
    </g>
    <g id="text_16">
     <!-- Difference in return -->
     <g transform="translate(25.432812 223.399094)rotate(-90)scale(0.1 -0.1)">
      <defs>
       <path d="M 1259 4147 
L 1259 519 
L 2022 519 
Q 2988 519 3436 956 
Q 3884 1394 3884 2338 
Q 3884 3275 3436 3711 
Q 2988 4147 2022 4147 
L 1259 4147 
z
M 628 4666 
L 1925 4666 
Q 3281 4666 3915 4102 
Q 4550 3538 4550 2338 
Q 4550 1131 3912 565 
Q 3275 0 1925 0 
L 628 0 
L 628 4666 
z
" id="DejaVuSans-44" transform="scale(0.015625)"/>
       <path d="M 2375 4863 
L 2375 4384 
L 1825 4384 
Q 1516 4384 1395 4259 
Q 1275 4134 1275 3809 
L 1275 3500 
L 2222 3500 
L 2222 3053 
L 1275 3053 
L 1275 0 
L 697 0 
L 697 3053 
L 147 3053 
L 147 3500 
L 697 3500 
L 697 3744 
Q 697 4328 969 4595 
Q 1241 4863 1831 4863 
L 2375 4863 
z
" id="DejaVuSans-66" transform="scale(0.015625)"/>
       <path d="M 2631 2963 
Q 2534 3019 2420 3045 
Q 2306 3072 2169 3072 
Q 1681 3072 1420 2755 
Q 1159 2438 1159 1844 
L 1159 0 
L 581 0 
L 581 3500 
L 1159 3500 
L 1159 2956 
Q 1341 3275 1631 3429 
Q 1922 3584 2338 3584 
Q 2397 3584 2469 3576 
Q 2541 3569 2628 3553 
L 2631 2963 
z
" id="DejaVuSans-72" transform="scale(0.015625)"/>
       <path d="M 3513 2113 
L 3513 0 
L 2938 0 
L 2938 2094 
Q 2938 2591 2744 2837 
Q 2550 3084 2163 3084 
Q 1697 3084 1428 2787 
Q 1159 2491 1159 1978 
L 1159 0 
L 581 0 
L 581 3500 
L 1159 3500 
L 1159 2956 
Q 1366 3272 1645 3428 
Q 1925 3584 2291 3584 
Q 2894 3584 3203 3211 
Q 3513 2838 3513 2113 
z
" id="DejaVuSans-6e" transform="scale(0.015625)"/>
       <path d="M 3122 3366 
L 3122 2828 
Q 2878 2963 2633 3030 
Q 2388 3097 2138 3097 
Q 1578 3097 1268 2742 
Q 959 2388 959 1747 
Q 959 1106 1268 751 
Q 1578 397 2138 397 
Q 2388 397 2633 464 
Q 2878 531 3122 666 
L 3122 134 
Q 2881 22 2623 -34 
Q 2366 -91 2075 -91 
Q 1284 -91 818 406 
Q 353 903 353 1747 
Q 353 2603 823 3093 
Q 1294 3584 2113 3584 
Q 2378 3584 2631 3529 
Q 2884 3475 3122 3366 
z
" id="DejaVuSans-63" transform="scale(0.015625)"/>
       <path id="DejaVuSans-20" transform="scale(0.015625)"/>
       <path d="M 1172 4494 
L 1172 3500 
L 2356 3500 
L 2356 3053 
L 1172 3053 
L 1172 1153 
Q 1172 725 1289 603 
Q 1406 481 1766 481 
L 2356 481 
L 2356 0 
L 1766 0 
Q 1100 0 847 248 
Q 594 497 594 1153 
L 594 3053 
L 172 3053 
L 172 3500 
L 594 3500 
L 594 4494 
L 1172 4494 
z
" id="DejaVuSans-74" transform="scale(0.015625)"/>
       <path d="M 544 1381 
L 544 3500 
L 1119 3500 
L 1119 1403 
Q 1119 906 1312 657 
Q 1506 409 1894 409 
Q 2359 409 2629 706 
Q 2900 1003 2900 1516 
L 2900 3500 
L 3475 3500 
L 3475 0 
L 2900 0 
L 2900 538 
Q 2691 219 2414 64 
Q 2138 -91 1772 -91 
Q 1169 -91 856 284 
Q 544 659 544 1381 
z
M 1991 3584 
L 1991 3584 
z
" id="DejaVuSans-75" transform="scale(0.015625)"/>
      </defs>
      <use xlink:href="#DejaVuSans-44"/>
      <use x="77.001953" xlink:href="#DejaVuSans-69"/>
      <use x="104.785156" xlink:href="#DejaVuSans-66"/>
      <use x="139.990234" xlink:href="#DejaVuSans-66"/>
      <use x="175.195312" xlink:href="#DejaVuSans-65"/>
      <use x="236.71875" xlink:href="#DejaVuSans-72"/>
      <use x="275.582031" xlink:href="#DejaVuSans-65"/>
      <use x="337.105469" xlink:href="#DejaVuSans-6e"/>
      <use x="400.484375" xlink:href="#DejaVuSans-63"/>
      <use x="455.464844" xlink:href="#DejaVuSans-65"/>
      <use x="516.988281" xlink:href="#DejaVuSans-20"/>
      <use x="548.775391" xlink:href="#DejaVuSans-69"/>
      <use x="576.558594" xlink:href="#DejaVuSans-6e"/>
      <use x="639.9375" xlink:href="#DejaVuSans-20"/>
      <use x="671.724609" xlink:href="#DejaVuSans-72"/>
      <use x="710.587891" xlink:href="#DejaVuSans-65"/>
      <use x="772.111328" xlink:href="#DejaVuSans-74"/>
      <use x="811.320312" xlink:href="#DejaVuSans-75"/>
      <use x="874.699219" xlink:href="#DejaVuSans-72"/>
      <use x="914.0625" xlink:href="#DejaVuSans-6e"/>
     </g>
    </g>
   </g>
   <g id="line2d_15">
    <path clip-path="url(#p206a43c868)" d="M 73.832727 216.15922 
L 74.157707 277.786537 
L 74.482686 267.95239 
L 74.807666 212.225561 
L 75.132645 193.868488 
L 75.782604 287.620683 
L 76.107584 208.291902 
L 76.432563 285.653854 
L 76.757543 282.375805 
L 77.082523 180.100683 
L 77.407502 264.018732 
L 77.732482 281.064585 
L 78.057461 251.562146 
L 78.382441 264.018732 
L 78.70742 228.615805 
L 79.0324 290.243122 
L 79.357379 275.164098 
L 79.682359 292.209951 
L 80.007338 194.524098 
L 80.657297 283.687024 
L 80.982277 285.653854 
L 81.307256 250.250927 
L 81.632236 292.865561 
L 81.957215 277.786537 
L 82.282195 268.608 
L 82.607174 265.985561 
L 82.932154 278.442146 
L 83.257133 281.720195 
L 83.582113 292.209951 
L 83.907093 284.998244 
L 84.232072 292.865561 
L 84.557052 237.794341 
L 84.882031 272.541659 
L 85.207011 203.702634 
L 85.85697 279.753366 
L 86.181949 283.687024 
L 86.506929 267.95239 
L 86.831908 293.521171 
L 87.156888 271.230439 
L 87.481867 291.554341 
L 87.806847 289.587512 
L 88.131826 216.15922 
L 88.456806 286.309463 
L 88.781785 261.396293 
L 89.106765 283.687024 
L 89.431744 264.018732 
L 89.756724 286.965073 
L 90.081704 288.276293 
L 90.406683 292.865561 
L 90.731663 279.753366 
L 91.056642 225.337756 
L 91.381622 284.342634 
L 91.706601 294.17678 
L 92.031581 268.608 
L 92.35656 286.309463 
L 92.68154 245.661659 
L 93.331499 292.209951 
L 93.656478 270.574829 
L 93.981458 275.819707 
L 94.306437 290.898732 
L 94.631417 262.707512 
L 94.956396 269.26361 
L 95.281376 287.620683 
L 95.606355 271.886049 
L 95.931335 289.587512 
L 96.256314 264.674341 
L 96.581294 262.051902 
L 96.906274 265.985561 
L 97.231253 292.865561 
L 97.556233 270.574829 
L 97.881212 216.15922 
L 98.206192 280.408976 
L 98.531171 295.488 
L 98.856151 291.554341 
L 99.18113 274.508488 
L 99.50611 278.442146 
L 99.831089 290.898732 
L 100.156069 290.898732 
L 100.481048 245.661659 
L 100.806028 295.488 
L 101.455987 266.641171 
L 101.780966 184.034341 
L 102.105946 288.931902 
L 102.430925 275.164098 
L 102.755905 161.74361 
L 103.080885 286.965073 
L 103.405864 292.865561 
L 104.055823 237.138732 
L 104.380803 155.843122 
L 104.705782 163.054829 
L 105.030762 294.83239 
L 105.355741 295.488 
L 105.680721 252.873366 
L 106.0057 290.243122 
L 106.33068 295.488 
L 108.605536 295.488 
L 108.930516 294.83239 
L 109.255495 295.488 
L 109.580475 264.674341 
L 109.905455 295.488 
L 110.230434 295.488 
L 110.555414 261.396293 
L 110.880393 294.83239 
L 111.205373 295.488 
L 111.530352 233.860683 
L 111.855332 295.488 
L 112.180311 197.146537 
L 112.505291 295.488 
L 112.83027 294.17678 
L 113.15525 295.488 
L 113.805209 295.488 
L 114.130188 226.648976 
L 114.455168 295.488 
L 117.379984 295.488 
L 117.704963 294.83239 
L 118.029943 295.488 
L 119.65484 295.488 
L 119.97982 153.876293 
L 120.304799 295.488 
L 120.629779 295.488 
L 120.954758 285.653854 
L 121.279738 295.488 
L 122.254676 295.488 
L 122.579656 53.568 
L 122.904636 283.031415 
L 123.229615 294.17678 
L 123.554595 295.488 
L 124.529533 295.488 
L 124.854513 294.83239 
L 125.179492 295.488 
L 127.129369 295.488 
L 127.454349 294.17678 
L 127.779328 295.488 
L 128.429287 295.488 
L 128.754267 244.350439 
L 129.079247 295.488 
L 129.404226 294.17678 
L 129.729206 295.488 
L 130.054185 295.488 
L 130.704144 294.17678 
L 131.029124 294.17678 
L 131.354103 295.488 
L 131.679083 295.488 
L 132.004062 294.17678 
L 132.329042 295.488 
L 132.654021 223.370927 
L 132.979001 295.488 
L 133.62896 295.488 
L 133.953939 292.865561 
L 134.278919 295.488 
L 134.603898 294.83239 
L 134.928878 295.488 
L 135.578837 294.17678 
L 135.903817 295.488 
L 136.228796 269.26361 
L 136.553776 295.488 
L 138.828632 295.488 
L 139.153612 294.17678 
L 139.478591 295.488 
L 141.428468 295.488 
L 141.753448 294.83239 
L 142.078428 295.488 
L 147.603079 295.488 
L 147.928059 294.17678 
L 148.253038 295.488 
L 157.027486 295.488 
L 157.352465 294.17678 
L 157.677445 295.488 
L 163.202097 295.488 
L 163.527076 294.17678 
L 163.852056 295.488 
L 164.177035 295.488 
L 164.502015 294.17678 
L 164.826994 295.488 
L 165.151974 294.83239 
L 165.476953 295.488 
L 167.42683 295.488 
L 167.75181 294.17678 
L 168.07679 295.488 
L 168.401769 294.17678 
L 168.726749 295.488 
L 174.57638 295.488 
L 174.90136 294.17678 
L 175.226339 295.488 
L 185.300704 295.488 
L 185.625684 294.17678 
L 185.950663 295.488 
L 188.5505 295.488 
L 188.875479 294.17678 
L 189.200459 291.554341 
L 189.525438 294.17678 
L 189.850418 295.488 
L 192.125274 295.488 
L 192.450254 294.17678 
L 192.775233 295.488 
L 193.425192 295.488 
L 193.750172 294.17678 
L 194.075152 295.488 
L 199.924783 295.488 
L 200.249762 294.17678 
L 200.574742 295.488 
L 202.849599 295.488 
L 203.174578 294.17678 
L 203.499558 295.488 
L 207.724292 295.488 
L 208.049271 294.17678 
L 208.374251 295.488 
L 209.674169 295.488 
L 209.999148 294.17678 
L 210.324128 295.488 
L 210.649107 294.17678 
L 210.974087 294.17678 
L 211.299066 295.488 
L 216.173759 295.488 
L 216.498739 294.17678 
L 216.823718 295.488 
L 217.148698 294.17678 
L 217.473677 295.488 
L 223.973268 295.488 
L 224.298247 286.309463 
L 224.623227 295.488 
L 225.923145 295.488 
L 226.248124 292.865561 
L 226.573104 295.488 
L 227.548043 295.488 
L 227.873022 294.83239 
L 228.198002 295.488 
L 229.17294 295.488 
L 229.49792 292.865561 
L 229.822899 295.488 
L 231.122817 295.488 
L 231.447797 294.17678 
L 231.772776 295.488 
L 235.672531 295.488 
L 235.99751 294.83239 
L 236.32249 295.488 
L 238.922326 295.488 
L 239.247305 294.17678 
L 239.572285 295.488 
L 240.547224 295.488 
L 240.872203 294.83239 
L 241.197183 295.488 
L 241.847142 295.488 
L 242.172121 294.83239 
L 242.497101 295.488 
L 242.82208 294.17678 
L 243.14706 295.488 
L 243.797019 295.488 
L 244.121998 294.17678 
L 244.446978 295.488 
L 248.021753 295.488 
L 248.346732 294.17678 
L 248.671712 295.488 
L 250.621589 295.488 
L 250.946568 294.17678 
L 251.271548 295.488 
L 256.47122 295.488 
L 257.121179 292.865561 
L 257.446159 295.488 
L 259.071057 295.488 
L 259.396036 294.17678 
L 259.721016 295.488 
L 260.695954 295.488 
L 261.020934 294.17678 
L 261.345913 295.488 
L 262.645831 295.488 
L 262.970811 294.83239 
L 263.29579 295.488 
L 263.62077 294.17678 
L 263.945749 295.488 
L 264.595708 292.865561 
L 264.920688 295.488 
L 272.070238 295.488 
L 272.395217 294.17678 
L 272.720197 295.488 
L 276.294971 295.488 
L 276.619951 294.17678 
L 276.94493 295.488 
L 284.09448 295.488 
L 284.419459 294.83239 
L 284.744439 295.488 
L 285.069419 294.17678 
L 285.394398 295.488 
L 289.294152 295.488 
L 289.619132 294.17678 
L 290.269091 295.488 
L 290.59407 292.865561 
L 290.91905 295.488 
L 291.244029 294.83239 
L 291.569009 295.488 
L 299.693497 295.488 
L 300.018477 294.17678 
L 300.343456 295.488 
L 303.268272 295.488 
L 303.593251 294.17678 
L 303.918231 295.488 
L 305.218149 295.488 
L 305.543129 294.17678 
L 305.868108 295.488 
L 306.193088 294.17678 
L 306.518067 294.17678 
L 306.843047 295.488 
L 310.092842 295.488 
L 310.417821 294.17678 
L 310.742801 295.488 
L 312.367699 295.488 
L 312.692678 294.17678 
L 313.017658 295.488 
L 314.317576 295.488 
L 314.642555 294.17678 
L 314.967535 295.488 
L 315.292514 295.488 
L 315.617494 293.521171 
L 315.942473 295.488 
L 316.267453 295.488 
L 316.592432 294.17678 
L 316.917412 294.17678 
L 317.242391 295.488 
L 325.0419 295.488 
L 325.36688 294.83239 
L 325.691859 295.488 
L 329.266634 295.488 
L 329.591613 294.17678 
L 329.916593 295.488 
L 331.86647 295.488 
L 332.19145 294.17678 
L 332.516429 295.488 
L 334.791286 295.488 
L 335.116265 294.17678 
L 335.441245 295.488 
L 336.091204 295.488 
L 336.416183 294.83239 
L 336.741163 295.488 
L 338.69104 295.488 
L 339.01602 294.17678 
L 339.340999 295.488 
L 346.815528 295.488 
L 347.140508 294.83239 
L 347.465487 295.488 
L 349.090385 295.488 
L 349.415364 294.17678 
L 349.740344 295.488 
L 359.16475 295.488 
L 359.48973 294.17678 
L 359.814709 295.488 
L 362.739525 295.488 
L 363.064505 294.83239 
L 363.389484 295.488 
L 363.714464 294.83239 
L 364.039443 294.83239 
L 364.364423 295.488 
L 365.664341 295.488 
L 365.98932 294.17678 
L 366.3143 295.488 
L 369.564095 295.488 
L 369.889075 294.17678 
L 370.214054 295.488 
L 372.488911 295.488 
L 372.81389 294.17678 
L 373.13887 295.488 
L 374.113808 295.488 
L 374.438788 294.17678 
L 374.763767 295.488 
L 382.888256 295.488 
L 383.213235 294.17678 
L 383.538215 295.488 
L 383.863194 294.17678 
L 384.188174 294.17678 
L 384.513153 295.488 
L 385.813071 295.488 
L 386.138051 294.17678 
L 386.46303 295.488 
L 395.562457 295.488 
L 395.887437 294.17678 
L 396.212416 295.488 
L 398.487273 295.488 
L 398.487273 295.488 
" style="fill:none;stroke:#1f77b4;stroke-linecap:square;stroke-width:1.5;"/>
   </g>
   <g id="patch_3">
    <path d="M 57.6 307.584 
L 57.6 41.472 
" style="fill:none;stroke:#000000;stroke-linecap:square;stroke-linejoin:miter;stroke-width:0.8;"/>
   </g>
   <g id="patch_4">
    <path d="M 414.72 307.584 
L 414.72 41.472 
" style="fill:none;stroke:#000000;stroke-linecap:square;stroke-linejoin:miter;stroke-width:0.8;"/>
   </g>
   <g id="patch_5">
    <path d="M 57.6 307.584 
L 414.72 307.584 
" style="fill:none;stroke:#000000;stroke-linecap:square;stroke-linejoin:miter;stroke-width:0.8;"/>
   </g>
   <g id="patch_6">
    <path d="M 57.6 41.472 
L 414.72 41.472 
" style="fill:none;stroke:#000000;stroke-linecap:square;stroke-linejoin:miter;stroke-width:0.8;"/>
   </g>
   <g id="text_17">
    <!-- Difference in return from optimum for DQN agent -->
    <g transform="translate(87.615938 35.472)scale(0.12 -0.12)">
     <defs>
      <path d="M 3328 2828 
Q 3544 3216 3844 3400 
Q 4144 3584 4550 3584 
Q 5097 3584 5394 3201 
Q 5691 2819 5691 2113 
L 5691 0 
L 5113 0 
L 5113 2094 
Q 5113 2597 4934 2840 
Q 4756 3084 4391 3084 
Q 3944 3084 3684 2787 
Q 3425 2491 3425 1978 
L 3425 0 
L 2847 0 
L 2847 2094 
Q 2847 2600 2669 2842 
Q 2491 3084 2119 3084 
Q 1678 3084 1418 2786 
Q 1159 2488 1159 1978 
L 1159 0 
L 581 0 
L 581 3500 
L 1159 3500 
L 1159 2956 
Q 1356 3278 1631 3431 
Q 1906 3584 2284 3584 
Q 2666 3584 2933 3390 
Q 3200 3197 3328 2828 
z
" id="DejaVuSans-6d" transform="scale(0.015625)"/>
      <path d="M 2522 4238 
Q 1834 4238 1429 3725 
Q 1025 3213 1025 2328 
Q 1025 1447 1429 934 
Q 1834 422 2522 422 
Q 3209 422 3611 934 
Q 4013 1447 4013 2328 
Q 4013 3213 3611 3725 
Q 3209 4238 2522 4238 
z
M 3406 84 
L 4238 -825 
L 3475 -825 
L 2784 -78 
Q 2681 -84 2626 -87 
Q 2572 -91 2522 -91 
Q 1538 -91 948 567 
Q 359 1225 359 2328 
Q 359 3434 948 4092 
Q 1538 4750 2522 4750 
Q 3503 4750 4090 4092 
Q 4678 3434 4678 2328 
Q 4678 1516 4351 937 
Q 4025 359 3406 84 
z
" id="DejaVuSans-51" transform="scale(0.015625)"/>
      <path d="M 628 4666 
L 1478 4666 
L 3547 763 
L 3547 4666 
L 4159 4666 
L 4159 0 
L 3309 0 
L 1241 3903 
L 1241 0 
L 628 0 
L 628 4666 
z
" id="DejaVuSans-4e" transform="scale(0.015625)"/>
      <path d="M 2194 1759 
Q 1497 1759 1228 1600 
Q 959 1441 959 1056 
Q 959 750 1161 570 
Q 1363 391 1709 391 
Q 2188 391 2477 730 
Q 2766 1069 2766 1631 
L 2766 1759 
L 2194 1759 
z
M 3341 1997 
L 3341 0 
L 2766 0 
L 2766 531 
Q 2569 213 2275 61 
Q 1981 -91 1556 -91 
Q 1019 -91 701 211 
Q 384 513 384 1019 
Q 384 1609 779 1909 
Q 1175 2209 1959 2209 
L 2766 2209 
L 2766 2266 
Q 2766 2663 2505 2880 
Q 2244 3097 1772 3097 
Q 1472 3097 1187 3025 
Q 903 2953 641 2809 
L 641 3341 
Q 956 3463 1253 3523 
Q 1550 3584 1831 3584 
Q 2591 3584 2966 3190 
Q 3341 2797 3341 1997 
z
" id="DejaVuSans-61" transform="scale(0.015625)"/>
      <path d="M 2906 1791 
Q 2906 2416 2648 2759 
Q 2391 3103 1925 3103 
Q 1463 3103 1205 2759 
Q 947 2416 947 1791 
Q 947 1169 1205 825 
Q 1463 481 1925 481 
Q 2391 481 2648 825 
Q 2906 1169 2906 1791 
z
M 3481 434 
Q 3481 -459 3084 -895 
Q 2688 -1331 1869 -1331 
Q 1566 -1331 1297 -1286 
Q 1028 -1241 775 -1147 
L 775 -588 
Q 1028 -725 1275 -790 
Q 1522 -856 1778 -856 
Q 2344 -856 2625 -561 
Q 2906 -266 2906 331 
L 2906 616 
Q 2728 306 2450 153 
Q 2172 0 1784 0 
Q 1141 0 747 490 
Q 353 981 353 1791 
Q 353 2603 747 3093 
Q 1141 3584 1784 3584 
Q 2172 3584 2450 3431 
Q 2728 3278 2906 2969 
L 2906 3500 
L 3481 3500 
L 3481 434 
z
" id="DejaVuSans-67" transform="scale(0.015625)"/>
     </defs>
     <use xlink:href="#DejaVuSans-44"/>
     <use x="77.001953" xlink:href="#DejaVuSans-69"/>
     <use x="104.785156" xlink:href="#DejaVuSans-66"/>
     <use x="139.990234" xlink:href="#DejaVuSans-66"/>
     <use x="175.195312" xlink:href="#DejaVuSans-65"/>
     <use x="236.71875" xlink:href="#DejaVuSans-72"/>
     <use x="275.582031" xlink:href="#DejaVuSans-65"/>
     <use x="337.105469" xlink:href="#DejaVuSans-6e"/>
     <use x="400.484375" xlink:href="#DejaVuSans-63"/>
     <use x="455.464844" xlink:href="#DejaVuSans-65"/>
     <use x="516.988281" xlink:href="#DejaVuSans-20"/>
     <use x="548.775391" xlink:href="#DejaVuSans-69"/>
     <use x="576.558594" xlink:href="#DejaVuSans-6e"/>
     <use x="639.9375" xlink:href="#DejaVuSans-20"/>
     <use x="671.724609" xlink:href="#DejaVuSans-72"/>
     <use x="710.587891" xlink:href="#DejaVuSans-65"/>
     <use x="772.111328" xlink:href="#DejaVuSans-74"/>
     <use x="811.320312" xlink:href="#DejaVuSans-75"/>
     <use x="874.699219" xlink:href="#DejaVuSans-72"/>
     <use x="914.0625" xlink:href="#DejaVuSans-6e"/>
     <use x="977.441406" xlink:href="#DejaVuSans-20"/>
     <use x="1009.228516" xlink:href="#DejaVuSans-66"/>
     <use x="1044.433594" xlink:href="#DejaVuSans-72"/>
     <use x="1083.296875" xlink:href="#DejaVuSans-6f"/>
     <use x="1144.478516" xlink:href="#DejaVuSans-6d"/>
     <use x="1241.890625" xlink:href="#DejaVuSans-20"/>
     <use x="1273.677734" xlink:href="#DejaVuSans-6f"/>
     <use x="1334.859375" xlink:href="#DejaVuSans-70"/>
     <use x="1398.335938" xlink:href="#DejaVuSans-74"/>
     <use x="1437.544922" xlink:href="#DejaVuSans-69"/>
     <use x="1465.328125" xlink:href="#DejaVuSans-6d"/>
     <use x="1562.740234" xlink:href="#DejaVuSans-75"/>
     <use x="1626.119141" xlink:href="#DejaVuSans-6d"/>
     <use x="1723.53125" xlink:href="#DejaVuSans-20"/>
     <use x="1755.318359" xlink:href="#DejaVuSans-66"/>
     <use x="1790.523438" xlink:href="#DejaVuSans-6f"/>
     <use x="1851.705078" xlink:href="#DejaVuSans-72"/>
     <use x="1892.818359" xlink:href="#DejaVuSans-20"/>
     <use x="1924.605469" xlink:href="#DejaVuSans-44"/>
     <use x="2001.607422" xlink:href="#DejaVuSans-51"/>
     <use x="2080.318359" xlink:href="#DejaVuSans-4e"/>
     <use x="2155.123047" xlink:href="#DejaVuSans-20"/>
     <use x="2186.910156" xlink:href="#DejaVuSans-61"/>
     <use x="2248.189453" xlink:href="#DejaVuSans-67"/>
     <use x="2311.666016" xlink:href="#DejaVuSans-65"/>
     <use x="2373.189453" xlink:href="#DejaVuSans-6e"/>
     <use x="2436.568359" xlink:href="#DejaVuSans-74"/>
    </g>
   </g>
  </g>
 </g>
 <defs>
  <clipPath id="p206a43c868">
   <rect height="266.112" width="357.12" x="57.6" y="41.472"/>
  </clipPath>
 </defs>
</svg>
