<?xml version="1.0" encoding="utf-8" standalone="no"?>
<!DOCTYPE svg PUBLIC "-//W3C//DTD SVG 1.1//EN"
  "http://www.w3.org/Graphics/SVG/1.1/DTD/svg11.dtd">
<svg height="345.6pt" version="1.1" viewBox="0 0 460.8 345.6" width="460.8pt" xmlns="http://www.w3.org/2000/svg" xmlns:xlink="http://www.w3.org/1999/xlink">
 <metadata>
  <rdf:RDF xmlns:cc="http://creativecommons.org/ns#" xmlns:dc="http://purl.org/dc/elements/1.1/" xmlns:rdf="http://www.w3.org/1999/02/22-rdf-syntax-ns#">
   <cc:Work>
    <dc:type rdf:resource="http://purl.org/dc/dcmitype/StillImage"/>
    <dc:date>2022-05-22T10:03:23.333924</dc:date>
    <dc:format>image/svg+xml</dc:format>
    <dc:creator>
     <cc:Agent>
      <dc:title>Matplotlib v3.4.3, https://matplotlib.org/</dc:title>
     </cc:Agent>
    </dc:creator>
   </cc:Work>
  </rdf:RDF>
 </metadata>
 <defs>
  <style type="text/css">*{stroke-linecap:butt;stroke-linejoin:round;}</style>
 </defs>
 <g id="figure_1">
  <g id="patch_1">
   <path d="M 0 345.6 
L 460.8 345.6 
L 460.8 0 
L 0 0 
z
" style="fill:#ffffff;"/>
  </g>
  <g id="axes_1">
   <g id="patch_2">
    <path d="M 57.6 307.584 
L 414.72 307.584 
L 414.72 41.472 
L 57.6 41.472 
z
" style="fill:#ffffff;"/>
   </g>
   <g id="matplotlib.axis_1">
    <g id="xtick_1">
     <g id="line2d_1">
      <defs>
       <path d="M 0 0 
L 0 3.5 
" id="m862e4add72" style="stroke:#000000;stroke-width:0.8;"/>
      </defs>
      <g>
       <use style="stroke:#000000;stroke-width:0.8;" x="73.832727" xlink:href="#m862e4add72" y="307.584"/>
      </g>
     </g>
     <g id="text_1">
      <!-- 0 -->
      <g transform="translate(70.651477 322.182437)scale(0.1 -0.1)">
       <defs>
        <path d="M 2034 4250 
Q 1547 4250 1301 3770 
Q 1056 3291 1056 2328 
Q 1056 1369 1301 889 
Q 1547 409 2034 409 
Q 2525 409 2770 889 
Q 3016 1369 3016 2328 
Q 3016 3291 2770 3770 
Q 2525 4250 2034 4250 
z
M 2034 4750 
Q 2819 4750 3233 4129 
Q 3647 3509 3647 2328 
Q 3647 1150 3233 529 
Q 2819 -91 2034 -91 
Q 1250 -91 836 529 
Q 422 1150 422 2328 
Q 422 3509 836 4129 
Q 1250 4750 2034 4750 
z
" id="DejaVuSans-30" transform="scale(0.015625)"/>
       </defs>
       <use xlink:href="#DejaVuSans-30"/>
      </g>
     </g>
    </g>
    <g id="xtick_2">
     <g id="line2d_2">
      <g>
       <use style="stroke:#000000;stroke-width:0.8;" x="138.77013" xlink:href="#m862e4add72" y="307.584"/>
      </g>
     </g>
     <g id="text_2">
      <!-- 2000 -->
      <g transform="translate(126.04513 322.182437)scale(0.1 -0.1)">
       <defs>
        <path d="M 1228 531 
L 3431 531 
L 3431 0 
L 469 0 
L 469 531 
Q 828 903 1448 1529 
Q 2069 2156 2228 2338 
Q 2531 2678 2651 2914 
Q 2772 3150 2772 3378 
Q 2772 3750 2511 3984 
Q 2250 4219 1831 4219 
Q 1534 4219 1204 4116 
Q 875 4013 500 3803 
L 500 4441 
Q 881 4594 1212 4672 
Q 1544 4750 1819 4750 
Q 2544 4750 2975 4387 
Q 3406 4025 3406 3419 
Q 3406 3131 3298 2873 
Q 3191 2616 2906 2266 
Q 2828 2175 2409 1742 
Q 1991 1309 1228 531 
z
" id="DejaVuSans-32" transform="scale(0.015625)"/>
       </defs>
       <use xlink:href="#DejaVuSans-32"/>
       <use x="63.623047" xlink:href="#DejaVuSans-30"/>
       <use x="127.246094" xlink:href="#DejaVuSans-30"/>
       <use x="190.869141" xlink:href="#DejaVuSans-30"/>
      </g>
     </g>
    </g>
    <g id="xtick_3">
     <g id="line2d_3">
      <g>
       <use style="stroke:#000000;stroke-width:0.8;" x="203.707533" xlink:href="#m862e4add72" y="307.584"/>
      </g>
     </g>
     <g id="text_3">
      <!-- 4000 -->
      <g transform="translate(190.982533 322.182437)scale(0.1 -0.1)">
       <defs>
        <path d="M 2419 4116 
L 825 1625 
L 2419 1625 
L 2419 4116 
z
M 2253 4666 
L 3047 4666 
L 3047 1625 
L 3713 1625 
L 3713 1100 
L 3047 1100 
L 3047 0 
L 2419 0 
L 2419 1100 
L 313 1100 
L 313 1709 
L 2253 4666 
z
" id="DejaVuSans-34" transform="scale(0.015625)"/>
       </defs>
       <use xlink:href="#DejaVuSans-34"/>
       <use x="63.623047" xlink:href="#DejaVuSans-30"/>
       <use x="127.246094" xlink:href="#DejaVuSans-30"/>
       <use x="190.869141" xlink:href="#DejaVuSans-30"/>
      </g>
     </g>
    </g>
    <g id="xtick_4">
     <g id="line2d_4">
      <g>
       <use style="stroke:#000000;stroke-width:0.8;" x="268.644936" xlink:href="#m862e4add72" y="307.584"/>
      </g>
     </g>
     <g id="text_4">
      <!-- 6000 -->
      <g transform="translate(255.919936 322.182437)scale(0.1 -0.1)">
       <defs>
        <path d="M 2113 2584 
Q 1688 2584 1439 2293 
Q 1191 2003 1191 1497 
Q 1191 994 1439 701 
Q 1688 409 2113 409 
Q 2538 409 2786 701 
Q 3034 994 3034 1497 
Q 3034 2003 2786 2293 
Q 2538 2584 2113 2584 
z
M 3366 4563 
L 3366 3988 
Q 3128 4100 2886 4159 
Q 2644 4219 2406 4219 
Q 1781 4219 1451 3797 
Q 1122 3375 1075 2522 
Q 1259 2794 1537 2939 
Q 1816 3084 2150 3084 
Q 2853 3084 3261 2657 
Q 3669 2231 3669 1497 
Q 3669 778 3244 343 
Q 2819 -91 2113 -91 
Q 1303 -91 875 529 
Q 447 1150 447 2328 
Q 447 3434 972 4092 
Q 1497 4750 2381 4750 
Q 2619 4750 2861 4703 
Q 3103 4656 3366 4563 
z
" id="DejaVuSans-36" transform="scale(0.015625)"/>
       </defs>
       <use xlink:href="#DejaVuSans-36"/>
       <use x="63.623047" xlink:href="#DejaVuSans-30"/>
       <use x="127.246094" xlink:href="#DejaVuSans-30"/>
       <use x="190.869141" xlink:href="#DejaVuSans-30"/>
      </g>
     </g>
    </g>
    <g id="xtick_5">
     <g id="line2d_5">
      <g>
       <use style="stroke:#000000;stroke-width:0.8;" x="333.582339" xlink:href="#m862e4add72" y="307.584"/>
      </g>
     </g>
     <g id="text_5">
      <!-- 8000 -->
      <g transform="translate(320.857339 322.182437)scale(0.1 -0.1)">
       <defs>
        <path d="M 2034 2216 
Q 1584 2216 1326 1975 
Q 1069 1734 1069 1313 
Q 1069 891 1326 650 
Q 1584 409 2034 409 
Q 2484 409 2743 651 
Q 3003 894 3003 1313 
Q 3003 1734 2745 1975 
Q 2488 2216 2034 2216 
z
M 1403 2484 
Q 997 2584 770 2862 
Q 544 3141 544 3541 
Q 544 4100 942 4425 
Q 1341 4750 2034 4750 
Q 2731 4750 3128 4425 
Q 3525 4100 3525 3541 
Q 3525 3141 3298 2862 
Q 3072 2584 2669 2484 
Q 3125 2378 3379 2068 
Q 3634 1759 3634 1313 
Q 3634 634 3220 271 
Q 2806 -91 2034 -91 
Q 1263 -91 848 271 
Q 434 634 434 1313 
Q 434 1759 690 2068 
Q 947 2378 1403 2484 
z
M 1172 3481 
Q 1172 3119 1398 2916 
Q 1625 2713 2034 2713 
Q 2441 2713 2670 2916 
Q 2900 3119 2900 3481 
Q 2900 3844 2670 4047 
Q 2441 4250 2034 4250 
Q 1625 4250 1398 4047 
Q 1172 3844 1172 3481 
z
" id="DejaVuSans-38" transform="scale(0.015625)"/>
       </defs>
       <use xlink:href="#DejaVuSans-38"/>
       <use x="63.623047" xlink:href="#DejaVuSans-30"/>
       <use x="127.246094" xlink:href="#DejaVuSans-30"/>
       <use x="190.869141" xlink:href="#DejaVuSans-30"/>
      </g>
     </g>
    </g>
    <g id="xtick_6">
     <g id="line2d_6">
      <g>
       <use style="stroke:#000000;stroke-width:0.8;" x="398.519741" xlink:href="#m862e4add72" y="307.584"/>
      </g>
     </g>
     <g id="text_6">
      <!-- 10000 -->
      <g transform="translate(382.613491 322.182437)scale(0.1 -0.1)">
       <defs>
        <path d="M 794 531 
L 1825 531 
L 1825 4091 
L 703 3866 
L 703 4441 
L 1819 4666 
L 2450 4666 
L 2450 531 
L 3481 531 
L 3481 0 
L 794 0 
L 794 531 
z
" id="DejaVuSans-31" transform="scale(0.015625)"/>
       </defs>
       <use xlink:href="#DejaVuSans-31"/>
       <use x="63.623047" xlink:href="#DejaVuSans-30"/>
       <use x="127.246094" xlink:href="#DejaVuSans-30"/>
       <use x="190.869141" xlink:href="#DejaVuSans-30"/>
       <use x="254.492188" xlink:href="#DejaVuSans-30"/>
      </g>
     </g>
    </g>
    <g id="text_7">
     <!-- Episode -->
     <g transform="translate(216.5225 335.860562)scale(0.1 -0.1)">
      <defs>
       <path d="M 628 4666 
L 3578 4666 
L 3578 4134 
L 1259 4134 
L 1259 2753 
L 3481 2753 
L 3481 2222 
L 1259 2222 
L 1259 531 
L 3634 531 
L 3634 0 
L 628 0 
L 628 4666 
z
" id="DejaVuSans-45" transform="scale(0.015625)"/>
       <path d="M 1159 525 
L 1159 -1331 
L 581 -1331 
L 581 3500 
L 1159 3500 
L 1159 2969 
Q 1341 3281 1617 3432 
Q 1894 3584 2278 3584 
Q 2916 3584 3314 3078 
Q 3713 2572 3713 1747 
Q 3713 922 3314 415 
Q 2916 -91 2278 -91 
Q 1894 -91 1617 61 
Q 1341 213 1159 525 
z
M 3116 1747 
Q 3116 2381 2855 2742 
Q 2594 3103 2138 3103 
Q 1681 3103 1420 2742 
Q 1159 2381 1159 1747 
Q 1159 1113 1420 752 
Q 1681 391 2138 391 
Q 2594 391 2855 752 
Q 3116 1113 3116 1747 
z
" id="DejaVuSans-70" transform="scale(0.015625)"/>
       <path d="M 603 3500 
L 1178 3500 
L 1178 0 
L 603 0 
L 603 3500 
z
M 603 4863 
L 1178 4863 
L 1178 4134 
L 603 4134 
L 603 4863 
z
" id="DejaVuSans-69" transform="scale(0.015625)"/>
       <path d="M 2834 3397 
L 2834 2853 
Q 2591 2978 2328 3040 
Q 2066 3103 1784 3103 
Q 1356 3103 1142 2972 
Q 928 2841 928 2578 
Q 928 2378 1081 2264 
Q 1234 2150 1697 2047 
L 1894 2003 
Q 2506 1872 2764 1633 
Q 3022 1394 3022 966 
Q 3022 478 2636 193 
Q 2250 -91 1575 -91 
Q 1294 -91 989 -36 
Q 684 19 347 128 
L 347 722 
Q 666 556 975 473 
Q 1284 391 1588 391 
Q 1994 391 2212 530 
Q 2431 669 2431 922 
Q 2431 1156 2273 1281 
Q 2116 1406 1581 1522 
L 1381 1569 
Q 847 1681 609 1914 
Q 372 2147 372 2553 
Q 372 3047 722 3315 
Q 1072 3584 1716 3584 
Q 2034 3584 2315 3537 
Q 2597 3491 2834 3397 
z
" id="DejaVuSans-73" transform="scale(0.015625)"/>
       <path d="M 1959 3097 
Q 1497 3097 1228 2736 
Q 959 2375 959 1747 
Q 959 1119 1226 758 
Q 1494 397 1959 397 
Q 2419 397 2687 759 
Q 2956 1122 2956 1747 
Q 2956 2369 2687 2733 
Q 2419 3097 1959 3097 
z
M 1959 3584 
Q 2709 3584 3137 3096 
Q 3566 2609 3566 1747 
Q 3566 888 3137 398 
Q 2709 -91 1959 -91 
Q 1206 -91 779 398 
Q 353 888 353 1747 
Q 353 2609 779 3096 
Q 1206 3584 1959 3584 
z
" id="DejaVuSans-6f" transform="scale(0.015625)"/>
       <path d="M 2906 2969 
L 2906 4863 
L 3481 4863 
L 3481 0 
L 2906 0 
L 2906 525 
Q 2725 213 2448 61 
Q 2172 -91 1784 -91 
Q 1150 -91 751 415 
Q 353 922 353 1747 
Q 353 2572 751 3078 
Q 1150 3584 1784 3584 
Q 2172 3584 2448 3432 
Q 2725 3281 2906 2969 
z
M 947 1747 
Q 947 1113 1208 752 
Q 1469 391 1925 391 
Q 2381 391 2643 752 
Q 2906 1113 2906 1747 
Q 2906 2381 2643 2742 
Q 2381 3103 1925 3103 
Q 1469 3103 1208 2742 
Q 947 2381 947 1747 
z
" id="DejaVuSans-64" transform="scale(0.015625)"/>
       <path d="M 3597 1894 
L 3597 1613 
L 953 1613 
Q 991 1019 1311 708 
Q 1631 397 2203 397 
Q 2534 397 2845 478 
Q 3156 559 3463 722 
L 3463 178 
Q 3153 47 2828 -22 
Q 2503 -91 2169 -91 
Q 1331 -91 842 396 
Q 353 884 353 1716 
Q 353 2575 817 3079 
Q 1281 3584 2069 3584 
Q 2775 3584 3186 3129 
Q 3597 2675 3597 1894 
z
M 3022 2063 
Q 3016 2534 2758 2815 
Q 2500 3097 2075 3097 
Q 1594 3097 1305 2825 
Q 1016 2553 972 2059 
L 3022 2063 
z
" id="DejaVuSans-65" transform="scale(0.015625)"/>
      </defs>
      <use xlink:href="#DejaVuSans-45"/>
      <use x="63.183594" xlink:href="#DejaVuSans-70"/>
      <use x="126.660156" xlink:href="#DejaVuSans-69"/>
      <use x="154.443359" xlink:href="#DejaVuSans-73"/>
      <use x="206.542969" xlink:href="#DejaVuSans-6f"/>
      <use x="267.724609" xlink:href="#DejaVuSans-64"/>
      <use x="331.201172" xlink:href="#DejaVuSans-65"/>
     </g>
    </g>
   </g>
   <g id="matplotlib.axis_2">
    <g id="ytick_1">
     <g id="line2d_7">
      <defs>
       <path d="M 0 0 
L -3.5 0 
" id="mfc06502e37" style="stroke:#000000;stroke-width:0.8;"/>
      </defs>
      <g>
       <use style="stroke:#000000;stroke-width:0.8;" x="57.6" xlink:href="#mfc06502e37" y="295.488"/>
      </g>
     </g>
     <g id="text_8">
      <!-- 0 -->
      <g transform="translate(44.2375 299.287219)scale(0.1 -0.1)">
       <use xlink:href="#DejaVuSans-30"/>
      </g>
     </g>
    </g>
    <g id="ytick_2">
     <g id="line2d_8">
      <g>
       <use style="stroke:#000000;stroke-width:0.8;" x="57.6" xlink:href="#mfc06502e37" y="255.841982"/>
      </g>
     </g>
     <g id="text_9">
      <!-- 1000 -->
      <g transform="translate(25.15 259.641201)scale(0.1 -0.1)">
       <use xlink:href="#DejaVuSans-31"/>
       <use x="63.623047" xlink:href="#DejaVuSans-30"/>
       <use x="127.246094" xlink:href="#DejaVuSans-30"/>
       <use x="190.869141" xlink:href="#DejaVuSans-30"/>
      </g>
     </g>
    </g>
    <g id="ytick_3">
     <g id="line2d_9">
      <g>
       <use style="stroke:#000000;stroke-width:0.8;" x="57.6" xlink:href="#mfc06502e37" y="216.195965"/>
      </g>
     </g>
     <g id="text_10">
      <!-- 2000 -->
      <g transform="translate(25.15 219.995183)scale(0.1 -0.1)">
       <use xlink:href="#DejaVuSans-32"/>
       <use x="63.623047" xlink:href="#DejaVuSans-30"/>
       <use x="127.246094" xlink:href="#DejaVuSans-30"/>
       <use x="190.869141" xlink:href="#DejaVuSans-30"/>
      </g>
     </g>
    </g>
    <g id="ytick_4">
     <g id="line2d_10">
      <g>
       <use style="stroke:#000000;stroke-width:0.8;" x="57.6" xlink:href="#mfc06502e37" y="176.549947"/>
      </g>
     </g>
     <g id="text_11">
      <!-- 3000 -->
      <g transform="translate(25.15 180.349166)scale(0.1 -0.1)">
       <defs>
        <path d="M 2597 2516 
Q 3050 2419 3304 2112 
Q 3559 1806 3559 1356 
Q 3559 666 3084 287 
Q 2609 -91 1734 -91 
Q 1441 -91 1130 -33 
Q 819 25 488 141 
L 488 750 
Q 750 597 1062 519 
Q 1375 441 1716 441 
Q 2309 441 2620 675 
Q 2931 909 2931 1356 
Q 2931 1769 2642 2001 
Q 2353 2234 1838 2234 
L 1294 2234 
L 1294 2753 
L 1863 2753 
Q 2328 2753 2575 2939 
Q 2822 3125 2822 3475 
Q 2822 3834 2567 4026 
Q 2313 4219 1838 4219 
Q 1578 4219 1281 4162 
Q 984 4106 628 3988 
L 628 4550 
Q 988 4650 1302 4700 
Q 1616 4750 1894 4750 
Q 2613 4750 3031 4423 
Q 3450 4097 3450 3541 
Q 3450 3153 3228 2886 
Q 3006 2619 2597 2516 
z
" id="DejaVuSans-33" transform="scale(0.015625)"/>
       </defs>
       <use xlink:href="#DejaVuSans-33"/>
       <use x="63.623047" xlink:href="#DejaVuSans-30"/>
       <use x="127.246094" xlink:href="#DejaVuSans-30"/>
       <use x="190.869141" xlink:href="#DejaVuSans-30"/>
      </g>
     </g>
    </g>
    <g id="ytick_5">
     <g id="line2d_11">
      <g>
       <use style="stroke:#000000;stroke-width:0.8;" x="57.6" xlink:href="#mfc06502e37" y="136.903929"/>
      </g>
     </g>
     <g id="text_12">
      <!-- 4000 -->
      <g transform="translate(25.15 140.703148)scale(0.1 -0.1)">
       <use xlink:href="#DejaVuSans-34"/>
       <use x="63.623047" xlink:href="#DejaVuSans-30"/>
       <use x="127.246094" xlink:href="#DejaVuSans-30"/>
       <use x="190.869141" xlink:href="#DejaVuSans-30"/>
      </g>
     </g>
    </g>
    <g id="ytick_6">
     <g id="line2d_12">
      <g>
       <use style="stroke:#000000;stroke-width:0.8;" x="57.6" xlink:href="#mfc06502e37" y="97.257912"/>
      </g>
     </g>
     <g id="text_13">
      <!-- 5000 -->
      <g transform="translate(25.15 101.05713)scale(0.1 -0.1)">
       <defs>
        <path d="M 691 4666 
L 3169 4666 
L 3169 4134 
L 1269 4134 
L 1269 2991 
Q 1406 3038 1543 3061 
Q 1681 3084 1819 3084 
Q 2600 3084 3056 2656 
Q 3513 2228 3513 1497 
Q 3513 744 3044 326 
Q 2575 -91 1722 -91 
Q 1428 -91 1123 -41 
Q 819 9 494 109 
L 494 744 
Q 775 591 1075 516 
Q 1375 441 1709 441 
Q 2250 441 2565 725 
Q 2881 1009 2881 1497 
Q 2881 1984 2565 2268 
Q 2250 2553 1709 2553 
Q 1456 2553 1204 2497 
Q 953 2441 691 2322 
L 691 4666 
z
" id="DejaVuSans-35" transform="scale(0.015625)"/>
       </defs>
       <use xlink:href="#DejaVuSans-35"/>
       <use x="63.623047" xlink:href="#DejaVuSans-30"/>
       <use x="127.246094" xlink:href="#DejaVuSans-30"/>
       <use x="190.869141" xlink:href="#DejaVuSans-30"/>
      </g>
     </g>
    </g>
    <g id="ytick_7">
     <g id="line2d_13">
      <g>
       <use style="stroke:#000000;stroke-width:0.8;" x="57.6" xlink:href="#mfc06502e37" y="57.611894"/>
      </g>
     </g>
     <g id="text_14">
      <!-- 6000 -->
      <g transform="translate(25.15 61.411113)scale(0.1 -0.1)">
       <use xlink:href="#DejaVuSans-36"/>
       <use x="63.623047" xlink:href="#DejaVuSans-30"/>
       <use x="127.246094" xlink:href="#DejaVuSans-30"/>
       <use x="190.869141" xlink:href="#DejaVuSans-30"/>
      </g>
     </g>
    </g>
    <g id="text_15">
     <!-- Difference in return -->
     <g transform="translate(19.070312 223.399094)rotate(-90)scale(0.1 -0.1)">
      <defs>
       <path d="M 1259 4147 
L 1259 519 
L 2022 519 
Q 2988 519 3436 956 
Q 3884 1394 3884 2338 
Q 3884 3275 3436 3711 
Q 2988 4147 2022 4147 
L 1259 4147 
z
M 628 4666 
L 1925 4666 
Q 3281 4666 3915 4102 
Q 4550 3538 4550 2338 
Q 4550 1131 3912 565 
Q 3275 0 1925 0 
L 628 0 
L 628 4666 
z
" id="DejaVuSans-44" transform="scale(0.015625)"/>
       <path d="M 2375 4863 
L 2375 4384 
L 1825 4384 
Q 1516 4384 1395 4259 
Q 1275 4134 1275 3809 
L 1275 3500 
L 2222 3500 
L 2222 3053 
L 1275 3053 
L 1275 0 
L 697 0 
L 697 3053 
L 147 3053 
L 147 3500 
L 697 3500 
L 697 3744 
Q 697 4328 969 4595 
Q 1241 4863 1831 4863 
L 2375 4863 
z
" id="DejaVuSans-66" transform="scale(0.015625)"/>
       <path d="M 2631 2963 
Q 2534 3019 2420 3045 
Q 2306 3072 2169 3072 
Q 1681 3072 1420 2755 
Q 1159 2438 1159 1844 
L 1159 0 
L 581 0 
L 581 3500 
L 1159 3500 
L 1159 2956 
Q 1341 3275 1631 3429 
Q 1922 3584 2338 3584 
Q 2397 3584 2469 3576 
Q 2541 3569 2628 3553 
L 2631 2963 
z
" id="DejaVuSans-72" transform="scale(0.015625)"/>
       <path d="M 3513 2113 
L 3513 0 
L 2938 0 
L 2938 2094 
Q 2938 2591 2744 2837 
Q 2550 3084 2163 3084 
Q 1697 3084 1428 2787 
Q 1159 2491 1159 1978 
L 1159 0 
L 581 0 
L 581 3500 
L 1159 3500 
L 1159 2956 
Q 1366 3272 1645 3428 
Q 1925 3584 2291 3584 
Q 2894 3584 3203 3211 
Q 3513 2838 3513 2113 
z
" id="DejaVuSans-6e" transform="scale(0.015625)"/>
       <path d="M 3122 3366 
L 3122 2828 
Q 2878 2963 2633 3030 
Q 2388 3097 2138 3097 
Q 1578 3097 1268 2742 
Q 959 2388 959 1747 
Q 959 1106 1268 751 
Q 1578 397 2138 397 
Q 2388 397 2633 464 
Q 2878 531 3122 666 
L 3122 134 
Q 2881 22 2623 -34 
Q 2366 -91 2075 -91 
Q 1284 -91 818 406 
Q 353 903 353 1747 
Q 353 2603 823 3093 
Q 1294 3584 2113 3584 
Q 2378 3584 2631 3529 
Q 2884 3475 3122 3366 
z
" id="DejaVuSans-63" transform="scale(0.015625)"/>
       <path id="DejaVuSans-20" transform="scale(0.015625)"/>
       <path d="M 1172 4494 
L 1172 3500 
L 2356 3500 
L 2356 3053 
L 1172 3053 
L 1172 1153 
Q 1172 725 1289 603 
Q 1406 481 1766 481 
L 2356 481 
L 2356 0 
L 1766 0 
Q 1100 0 847 248 
Q 594 497 594 1153 
L 594 3053 
L 172 3053 
L 172 3500 
L 594 3500 
L 594 4494 
L 1172 4494 
z
" id="DejaVuSans-74" transform="scale(0.015625)"/>
       <path d="M 544 1381 
L 544 3500 
L 1119 3500 
L 1119 1403 
Q 1119 906 1312 657 
Q 1506 409 1894 409 
Q 2359 409 2629 706 
Q 2900 1003 2900 1516 
L 2900 3500 
L 3475 3500 
L 3475 0 
L 2900 0 
L 2900 538 
Q 2691 219 2414 64 
Q 2138 -91 1772 -91 
Q 1169 -91 856 284 
Q 544 659 544 1381 
z
M 1991 3584 
L 1991 3584 
z
" id="DejaVuSans-75" transform="scale(0.015625)"/>
      </defs>
      <use xlink:href="#DejaVuSans-44"/>
      <use x="77.001953" xlink:href="#DejaVuSans-69"/>
      <use x="104.785156" xlink:href="#DejaVuSans-66"/>
      <use x="139.990234" xlink:href="#DejaVuSans-66"/>
      <use x="175.195312" xlink:href="#DejaVuSans-65"/>
      <use x="236.71875" xlink:href="#DejaVuSans-72"/>
      <use x="275.582031" xlink:href="#DejaVuSans-65"/>
      <use x="337.105469" xlink:href="#DejaVuSans-6e"/>
      <use x="400.484375" xlink:href="#DejaVuSans-63"/>
      <use x="455.464844" xlink:href="#DejaVuSans-65"/>
      <use x="516.988281" xlink:href="#DejaVuSans-20"/>
      <use x="548.775391" xlink:href="#DejaVuSans-69"/>
      <use x="576.558594" xlink:href="#DejaVuSans-6e"/>
      <use x="639.9375" xlink:href="#DejaVuSans-20"/>
      <use x="671.724609" xlink:href="#DejaVuSans-72"/>
      <use x="710.587891" xlink:href="#DejaVuSans-65"/>
      <use x="772.111328" xlink:href="#DejaVuSans-74"/>
      <use x="811.320312" xlink:href="#DejaVuSans-75"/>
      <use x="874.699219" xlink:href="#DejaVuSans-72"/>
      <use x="914.0625" xlink:href="#DejaVuSans-6e"/>
     </g>
    </g>
   </g>
   <g id="line2d_14">
    <path clip-path="url(#peacd2c2f92)" d="M 73.832727 245.256496 
L 73.865196 260.758088 
L 73.897665 213.85685 
L 73.930133 264.960566 
L 73.962602 263.454018 
L 73.995071 290.334018 
L 74.060008 254.731894 
L 74.124946 268.052956 
L 74.157414 171.594195 
L 74.189883 280.977558 
L 74.287289 235.820743 
L 74.417164 291.523398 
L 74.449633 285.854018 
L 74.482101 238.318442 
L 74.547039 292.038796 
L 74.579507 282.999504 
L 74.644445 286.884814 
L 74.676914 102.411894 
L 74.709382 292.038796 
L 74.741851 202.874903 
L 74.806788 289.620389 
L 74.871726 288.351717 
L 74.904194 279.074549 
L 75.001601 292.950655 
L 75.034069 167.788177 
L 75.131475 294.298619 
L 75.196413 283.237381 
L 75.228881 162.753133 
L 75.26135 286.964106 
L 75.293819 283.277027 
L 75.326288 241.688354 
L 75.391225 291.325168 
L 75.423694 284.426761 
L 75.456162 253.027115 
L 75.553568 264.405522 
L 75.586037 275.506407 
L 75.618506 274.07915 
L 75.748381 166.36092 
L 75.878255 281.929062 
L 75.910724 53.568 
L 75.943193 286.488354 
L 75.975662 270.511009 
L 76.00813 208.187469 
L 76.040599 273.801628 
L 76.073068 251.599858 
L 76.170474 284.862867 
L 76.202942 267.696142 
L 76.300349 121.600566 
L 76.365286 292.673133 
L 76.430223 243.393133 
L 76.462692 291.681982 
L 76.527629 259.05331 
L 76.560098 54.915965 
L 76.592567 272.414018 
L 76.625036 243.749947 
L 76.657504 283.514903 
L 76.689973 280.779327 
L 76.722442 182.457204 
L 76.787379 200.456496 
L 76.819848 292.078442 
L 76.884785 182.417558 
L 77.047129 291.99915 
L 77.079597 295.488 
L 77.112066 291.761274 
L 77.144535 272.770832 
L 77.177004 295.408708 
L 77.209472 295.408708 
L 77.241941 287.201982 
L 77.306878 295.488 
L 77.339347 295.488 
L 77.371816 255.723044 
L 77.436753 293.188531 
L 77.469222 284.188885 
L 77.501691 295.488 
L 77.534159 295.329416 
L 77.566628 295.488 
L 77.599097 291.60269 
L 77.664034 295.488 
L 77.696503 295.408708 
L 77.728971 289.541097 
L 77.793909 295.488 
L 77.858846 295.488 
L 77.891315 295.329416 
L 77.923784 293.347115 
L 77.956252 295.488 
L 77.988721 295.488 
L 78.02119 295.408708 
L 78.053658 294.060743 
L 78.086127 284.268177 
L 78.118596 295.408708 
L 78.151065 295.408708 
L 78.280939 295.488 
L 78.313408 295.408708 
L 78.378345 295.488 
L 78.410814 295.488 
L 78.443283 295.329416 
L 78.50822 295.488 
L 78.573158 291.60269 
L 78.670564 295.488 
L 78.703032 294.457204 
L 78.800439 295.488 
L 78.76797 294.298619 
L 78.832907 295.448354 
L 78.962782 295.488 
L 79.060188 294.338265 
L 79.190063 295.488 
L 79.547219 295.488 
L 79.579687 295.329416 
L 79.644625 295.408708 
L 79.709562 295.488 
L 79.806968 293.109239 
L 79.936843 295.488 
L 80.001781 295.488 
L 80.034249 295.250124 
L 80.099187 295.488 
L 80.26153 295.408708 
L 80.293999 293.743575 
L 80.326468 295.488 
L 80.358936 294.932956 
L 80.391405 295.408708 
L 80.423874 289.382513 
L 80.456342 295.488 
L 80.488811 295.28977 
L 80.553748 295.488 
L 80.586217 295.408708 
L 80.618686 288.510301 
L 80.651155 295.488 
L 80.683623 294.298619 
L 80.748561 295.488 
L 80.781029 291.325168 
L 80.845967 295.408708 
L 80.943373 295.488 
L 80.975842 295.09154 
L 81.040779 295.488 
L 81.170654 295.408708 
L 81.235591 295.488 
L 81.26806 294.774372 
L 81.365466 295.488 
L 81.397935 295.329416 
L 81.430403 295.488 
L 81.462872 294.69508 
L 81.52781 295.488 
L 81.820028 295.488 
L 81.852497 293.148885 
L 81.917434 295.488 
L 81.982371 295.488 
L 82.01484 291.919858 
L 82.079777 295.488 
L 82.27459 295.488 
L 82.307058 285.893664 
L 82.371996 295.488 
L 82.404464 292.593841 
L 82.469402 295.329416 
L 82.599277 295.488 
L 82.631745 294.853664 
L 82.696683 295.488 
L 82.729151 295.488 
L 82.76162 294.69508 
L 82.794089 269.40092 
L 82.826558 295.408708 
L 82.859026 295.369062 
L 82.891495 295.488 
L 82.923964 295.408708 
L 82.956432 292.237027 
L 82.988901 295.488 
L 83.02137 295.488 
L 83.183713 295.488 
L 83.216182 291.959504 
L 83.281119 295.488 
L 83.540869 295.408708 
L 83.573338 295.329416 
L 83.638275 293.822867 
L 83.670744 295.488 
L 83.703213 295.408708 
L 83.735681 295.488 
L 83.865556 291.919858 
L 83.962962 295.488 
L 83.995431 295.408708 
L 84.060368 295.488 
L 84.092837 285.972956 
L 84.157774 295.488 
L 84.190243 295.488 
L 84.222712 294.219327 
L 84.25518 279.867469 
L 84.287649 295.488 
L 84.320118 294.377912 
L 84.352587 294.536496 
L 84.385055 295.408708 
L 84.417524 289.461805 
L 84.482461 295.408708 
L 84.51493 295.448354 
L 84.547399 291.008 
L 84.612336 295.488 
L 84.644805 295.488 
L 84.677274 294.69508 
L 84.742211 295.488 
L 84.839617 295.408708 
L 84.872086 291.99915 
L 84.904554 295.488 
L 84.937023 295.488 
L 85.066898 293.822867 
L 85.131835 295.488 
L 85.196773 295.329416 
L 85.326648 295.488 
L 85.52146 295.488 
L 85.651335 294.69508 
L 85.781209 295.488 
L 85.813678 295.329416 
L 85.878615 295.488 
L 85.911084 295.408708 
L 85.943553 295.488 
L 85.976022 290.968354 
L 86.040959 295.488 
L 86.365646 295.488 
L 86.398115 294.457204 
L 86.463052 295.488 
L 86.560458 295.408708 
L 86.592927 295.488 
L 86.625396 291.681982 
L 86.690333 295.488 
L 86.852677 295.408708 
L 86.917614 295.488 
L 86.982551 294.69508 
L 87.112426 295.488 
L 87.144895 295.329416 
L 87.177364 292.157735 
L 87.209832 295.488 
L 87.242301 295.408708 
L 87.27477 295.488 
L 87.307238 293.822867 
L 87.372176 295.408708 
L 87.502051 295.488 
L 87.534519 295.488 
L 87.664394 294.814018 
L 87.729331 295.488 
L 87.826738 290.571894 
L 87.924144 295.488 
L 87.956612 295.012248 
L 88.02155 291.126938 
L 88.054018 295.488 
L 88.118956 294.69508 
L 88.151425 295.488 
L 88.378706 295.408708 
L 88.411174 293.386761 
L 88.443643 295.488 
L 88.476112 295.408708 
L 88.541049 294.457204 
L 88.573518 295.488 
L 88.605986 295.488 
L 88.638455 295.329416 
L 88.76833 292.871363 
L 88.898205 295.488 
L 88.963142 295.488 
L 88.995611 290.175434 
L 89.060548 295.488 
L 89.093017 294.140035 
L 89.157954 295.408708 
L 89.25536 295.488 
L 89.287829 295.170832 
L 89.352767 295.488 
L 89.385235 295.488 
L 89.417704 294.100389 
L 89.482641 295.329416 
L 89.612516 295.488 
L 89.742391 295.329416 
L 89.839797 295.488 
L 89.872266 291.364814 
L 89.937203 295.329416 
L 90.034609 295.488 
L 90.067078 295.408708 
L 90.099547 295.329416 
L 90.132015 295.488 
L 90.651515 295.488 
L 90.683983 293.743575 
L 90.748921 295.488 
L 91.073608 295.488 
L 91.203483 294.69508 
L 91.235951 295.012248 
L 91.26842 295.488 
L 91.398295 290.968354 
L 91.495701 295.488 
L 91.52817 295.408708 
L 91.658044 295.488 
L 91.885325 295.408708 
L 91.917794 293.109239 
L 91.950263 295.488 
L 91.982731 295.408708 
L 92.047669 295.488 
L 92.080137 295.408708 
L 92.112606 295.488 
L 92.145075 292.950655 
L 92.210012 295.488 
L 92.437293 295.408708 
L 92.469762 295.329416 
L 92.502231 294.536496 
L 92.534699 295.488 
L 92.567168 295.488 
L 92.632105 295.488 
L 92.76198 294.774372 
L 92.794449 295.488 
L 92.826918 295.250124 
L 92.859386 289.382513 
L 92.891855 295.488 
L 92.924324 295.488 
L 93.02173 294.853664 
L 93.151605 295.488 
L 93.573698 295.488 
L 93.606166 295.329416 
L 93.671104 295.408708 
L 93.800979 295.488 
L 93.833447 295.408708 
L 93.898385 295.488 
L 93.995791 292.316319 
L 94.125666 295.488 
L 94.158134 294.298619 
L 94.223072 295.408708 
L 94.352947 295.488 
L 94.385415 295.488 
L 94.417884 292.871363 
L 94.482821 295.408708 
L 94.612696 295.488 
L 94.839977 295.488 
L 94.872446 293.267823 
L 94.937383 295.488 
L 95.002321 291.364814 
L 95.034789 295.488 
L 95.099727 295.488 
L 95.132195 295.329416 
L 95.197133 295.488 
L 95.424414 295.408708 
L 95.456882 294.69508 
L 95.489351 295.488 
L 95.52182 295.488 
L 95.619226 295.408708 
L 95.749101 295.488 
L 95.846507 295.408708 
L 95.943913 295.250124 
L 96.073788 295.488 
L 96.171194 295.488 
L 96.203663 293.466053 
L 96.2686 295.488 
L 96.398475 295.408708 
L 96.430943 292.316319 
L 96.495881 295.329416 
L 96.625756 295.488 
L 96.788099 295.329416 
L 96.885505 295.488 
L 96.917974 295.408708 
L 96.950443 295.488 
L 96.982911 290.492602 
L 97.047849 295.488 
L 97.469942 295.488 
L 97.502411 295.250124 
L 97.567348 295.488 
L 97.632285 295.488 
L 97.664754 295.329416 
L 97.729692 295.488 
L 97.794629 295.488 
L 97.827098 293.426407 
L 97.892035 295.488 
L 98.02191 295.488 
L 98.054379 293.981451 
L 98.119316 294.219327 
L 98.249191 295.488 
L 98.346597 295.329416 
L 98.476472 295.488 
L 98.703753 295.408708 
L 98.76869 295.488 
L 98.833627 295.329416 
L 98.866096 294.377912 
L 98.898565 295.488 
L 98.931033 295.488 
L 99.190783 295.488 
L 99.223252 295.329416 
L 99.288189 295.408708 
L 99.418064 295.488 
L 99.483001 295.488 
L 99.51547 295.329416 
L 99.580407 295.488 
L 99.77522 295.488 
L 99.807688 295.329416 
L 99.872626 295.408708 
L 99.905095 295.488 
L 99.937563 295.408708 
L 99.970032 295.329416 
L 100.002501 295.488 
L 100.522 295.488 
L 100.554469 294.615788 
L 100.619406 295.488 
L 100.651875 295.488 
L 100.684343 295.329416 
L 100.749281 295.488 
L 100.944093 295.408708 
L 100.976562 295.09154 
L 101.00903 295.488 
L 101.041499 295.329416 
L 101.106436 295.488 
L 101.138905 295.329416 
L 101.203843 295.408708 
L 101.333717 295.488 
L 101.463592 295.488 
L 101.496061 294.100389 
L 101.560998 295.488 
L 101.593467 295.408708 
L 101.658404 295.488 
L 101.788279 295.488 
L 101.820748 294.89331 
L 101.885685 295.488 
L 101.918154 295.408708 
L 101.983091 295.488 
L 102.145435 295.488 
L 102.242841 292.118088 
L 102.340247 295.488 
L 102.372716 292.237027 
L 102.437653 295.170832 
L 102.535059 295.488 
L 102.567528 295.09154 
L 102.632465 295.329416 
L 102.664934 295.329416 
L 102.697403 295.488 
L 102.729872 295.09154 
L 102.794809 295.329416 
L 102.924684 295.488 
L 103.50912 295.488 
L 103.541589 294.219327 
L 103.606526 295.488 
L 103.703933 295.250124 
L 103.833807 295.488 
L 104.223432 295.408708 
L 104.2559 295.329416 
L 104.288369 295.488 
L 104.320838 295.408708 
L 104.450713 295.488 
L 104.742931 295.488 
L 104.7754 294.655434 
L 104.840337 295.408708 
L 104.970212 295.488 
L 105.100087 295.408708 
L 105.229962 295.488 
L 105.26243 295.250124 
L 105.327368 295.408708 
L 107.210552 295.488 
L 107.243021 295.250124 
L 107.307958 295.488 
L 107.372896 295.488 
L 107.405365 295.250124 
L 107.470302 295.488 
L 108.476832 295.488 
L 108.574238 295.329416 
L 108.671644 295.488 
L 108.801519 295.408708 
L 108.931394 295.488 
L 108.996331 295.488 
L 109.0288 294.298619 
L 109.093737 295.408708 
L 109.223612 295.488 
L 109.580768 295.488 
L 109.613236 295.329416 
L 109.678174 295.488 
L 110.424954 295.488 
L 110.457422 295.250124 
L 110.52236 295.488 
L 111.204203 295.488 
L 111.236671 294.932956 
L 111.301609 295.488 
L 111.334077 295.329416 
L 111.366546 287.360566 
L 111.399015 295.488 
L 111.431484 295.488 
L 111.463952 295.408708 
L 111.52889 295.488 
L 112.080858 295.408708 
L 112.113326 295.329416 
L 112.145795 295.488 
L 112.438013 295.488 
L 112.470482 295.329416 
L 112.535419 295.408708 
L 112.665294 295.488 
L 112.697763 295.488 
L 112.730232 295.250124 
L 112.795169 295.488 
L 113.347137 295.408708 
L 113.379606 295.329416 
L 113.412074 295.488 
L 113.477012 295.408708 
L 113.50948 295.250124 
L 113.541949 293.347115 
L 113.574418 295.488 
L 113.606887 295.408708 
L 113.736761 295.488 
L 113.931574 295.488 
L 113.964042 295.329416 
L 114.02898 295.488 
L 114.126386 295.408708 
L 114.158854 295.329416 
L 114.191323 295.488 
L 114.548479 295.488 
L 114.580948 292.316319 
L 114.645885 295.329416 
L 114.678354 295.329416 
L 114.808228 295.488 
L 114.938103 295.488 
L 114.970572 295.329416 
L 115.035509 295.408708 
L 116.951163 295.488 
L 116.983631 292.792071 
L 117.048569 295.488 
L 117.243381 295.488 
L 117.27585 290.770124 
L 117.340787 295.329416 
L 117.438193 295.488 
L 117.568068 295.408708 
L 117.665474 295.488 
L 117.730412 295.329416 
L 117.795349 295.408708 
L 117.892755 295.488 
L 117.925224 293.347115 
L 117.990161 295.488 
L 118.02263 295.329416 
L 118.087567 295.408708 
L 118.217442 295.488 
L 118.28238 295.408708 
L 118.314848 293.584991 
L 118.347317 295.488 
L 118.379786 295.408708 
L 118.50966 295.488 
L 118.672004 295.488 
L 118.704473 295.250124 
L 118.76941 295.408708 
L 118.834347 295.329416 
L 118.899285 295.488 
L 119.51619 295.488 
L 119.548659 295.329416 
L 119.613596 295.488 
L 120.035689 295.488 
L 120.165564 295.329416 
L 120.327908 295.488 
L 122.340967 295.488 
L 122.373436 292.395611 
L 122.438373 295.488 
L 122.535779 295.488 
L 122.568248 295.329416 
L 122.633186 295.488 
L 122.827998 295.408708 
L 122.860466 294.69508 
L 122.925404 295.488 
L 123.087747 295.488 
L 123.120216 295.329416 
L 123.185153 295.488 
L 123.28256 295.488 
L 123.315028 295.329416 
L 123.379966 295.408708 
L 123.50984 295.488 
L 123.574778 295.488 
L 123.607247 295.329416 
L 123.672184 295.488 
L 124.061808 295.488 
L 124.094277 295.329416 
L 124.159214 295.488 
L 124.321558 295.488 
L 124.386495 295.329416 
L 124.418964 295.488 
L 124.451433 295.488 
L 124.483901 292.712779 
L 124.548839 295.488 
L 124.678714 295.488 
L 124.873526 295.488 
L 124.905995 295.329416 
L 124.938463 295.488 
L 124.970932 290.730478 
L 125.035869 295.408708 
L 125.133276 295.488 
L 125.26315 294.655434 
L 125.360556 295.488 
L 125.393025 295.408708 
L 125.490431 295.488 
L 125.5229 294.853664 
L 125.587837 295.488 
L 125.652775 295.488 
L 125.685243 294.932956 
L 125.750181 295.408708 
L 125.880056 295.488 
L 126.00993 295.488 
L 126.107337 295.488 
L 126.139805 295.329416 
L 126.204743 295.488 
L 126.26968 295.488 
L 126.302149 288.589593 
L 126.367086 295.329416 
L 126.52943 295.488 
L 126.724242 295.488 
L 126.756711 288.153487 
L 126.821648 295.488 
L 127.01646 295.488 
L 127.048929 295.329416 
L 127.113866 295.488 
L 127.568428 295.408708 
L 127.600897 295.09154 
L 127.633366 295.488 
L 127.665834 295.488 
L 128.250271 295.448354 
L 128.28274 295.250124 
L 128.315208 295.488 
L 128.347677 295.488 
L 128.477552 295.408708 
L 128.607427 295.488 
L 128.639895 295.408708 
L 128.704833 295.488 
L 129.256801 295.488 
L 129.321738 295.09154 
L 129.354207 295.488 
L 130.198393 295.408708 
L 130.230862 295.329416 
L 130.26333 295.488 
L 130.847767 295.488 
L 130.880236 295.329416 
L 130.945173 295.408708 
L 131.399735 295.408708 
L 131.432204 294.69508 
L 131.497141 295.488 
L 132.601077 295.408708 
L 132.633546 293.743575 
L 132.666014 295.488 
L 132.698483 294.140035 
L 132.828358 295.488 
L 132.860826 295.488 
L 132.925764 294.932956 
L 132.958233 295.488 
L 133.445263 295.488 
L 133.477732 294.140035 
L 133.542669 295.488 
L 133.76995 295.488 
L 133.802419 295.250124 
L 133.867356 295.488 
L 133.964762 295.488 
L 134.0297 294.69508 
L 134.062168 295.488 
L 134.224512 295.488 
L 134.256981 295.329416 
L 134.321918 295.488 
L 134.549199 295.488 
L 134.581668 295.250124 
L 134.646605 295.488 
L 134.77648 295.329416 
L 134.873886 295.488 
L 134.906355 295.329416 
L 134.971292 295.408708 
L 135.068698 295.488 
L 135.101167 295.408708 
L 135.166104 295.488 
L 135.231042 295.488 
L 135.26351 294.69508 
L 135.328448 295.408708 
L 135.360916 295.488 
L 135.393385 293.822867 
L 135.458323 295.408708 
L 135.490791 294.932956 
L 135.52326 295.488 
L 135.555729 295.488 
L 135.945353 295.488 
L 135.977822 292.038796 
L 136.042759 295.488 
L 136.172634 295.488 
L 136.205103 295.329416 
L 136.27004 295.488 
L 136.659665 295.488 
L 136.789539 295.329416 
L 136.854477 295.488 
L 136.886945 295.329416 
L 136.919414 295.329416 
L 137.01682 295.488 
L 137.049289 295.329416 
L 137.114226 295.488 
L 137.146695 295.408708 
L 137.211632 295.488 
L 137.244101 293.981451 
L 137.309039 295.488 
L 137.406445 295.329416 
L 137.536319 295.488 
L 137.666194 295.408708 
L 137.7636 295.488 
L 137.893475 295.408708 
L 138.02335 295.488 
L 139.159755 295.488 
L 139.192223 295.329416 
L 139.257161 295.488 
L 139.289629 295.488 
L 139.322098 295.329416 
L 139.354567 295.488 
L 139.387035 293.981451 
L 139.451973 295.488 
L 139.581848 295.408708 
L 139.679254 295.329416 
L 139.809129 295.488 
L 140.166284 295.488 
L 140.198753 295.250124 
L 140.26369 295.488 
L 140.361096 295.488 
L 140.393565 295.329416 
L 140.458503 295.488 
L 140.653315 295.488 
L 140.718252 295.329416 
L 140.750721 295.488 
L 140.848127 295.012248 
L 140.978002 295.488 
L 141.010471 295.250124 
L 141.075408 295.488 
L 141.367626 295.488 
L 141.400095 294.060743 
L 141.465032 295.488 
L 142.76378 295.488 
L 142.796249 294.615788 
L 142.861186 295.488 
L 142.893655 295.488 
L 142.926124 295.329416 
L 142.991061 295.448354 
L 143.02353 295.408708 
L 143.088467 295.488 
L 143.575498 295.488 
L 143.607967 295.329416 
L 143.672904 295.488 
L 143.737841 295.488 
L 143.77031 295.329416 
L 143.835248 295.408708 
L 144.289809 295.488 
L 144.322278 294.298619 
L 144.387215 295.488 
L 144.452153 295.488 
L 144.484622 295.329416 
L 144.549559 295.488 
L 144.614496 295.488 
L 144.679434 295.210478 
L 144.711902 295.408708 
L 144.841777 295.488 
L 145.361276 295.488 
L 145.393745 295.250124 
L 145.458683 295.488 
L 145.621026 295.488 
L 145.750901 295.170832 
L 145.880776 295.488 
L 146.952243 295.488 
L 147.049649 295.329416 
L 147.082118 295.488 
L 147.114586 289.818619 
L 147.179524 295.329416 
L 147.309399 295.488 
L 148.250991 295.488 
L 148.28346 295.329416 
L 148.348397 295.408708 
L 148.608147 295.488 
L 148.640615 295.012248 
L 148.705553 295.408708 
L 148.965302 295.488 
L 148.997771 295.250124 
L 149.062708 295.488 
L 149.095177 295.408708 
L 149.160115 295.488 
L 149.387395 295.488 
L 149.419864 294.932956 
L 149.484802 295.488 
L 149.549739 295.488 
L 149.582208 295.329416 
L 149.647145 295.488 
L 149.679614 295.408708 
L 149.744551 295.488 
L 149.906895 295.488 
L 149.939363 284.902513 
L 150.004301 295.488 
L 150.26405 295.408708 
L 150.328988 295.488 
L 150.393925 295.329416 
L 150.491331 295.488 
L 150.5238 295.408708 
L 150.588737 295.488 
L 151.238111 295.488 
L 151.27058 295.250124 
L 151.335518 295.488 
L 151.367986 295.488 
L 151.400455 295.329416 
L 151.465392 295.408708 
L 151.497861 290.770124 
L 151.562798 295.488 
L 151.595267 295.488 
L 151.627736 295.329416 
L 151.692673 295.408708 
L 151.822548 295.488 
L 152.894015 295.488 
L 152.926484 294.536496 
L 152.991421 295.408708 
L 153.121296 295.488 
L 153.251171 295.408708 
L 153.316108 295.488 
L 153.348577 293.267823 
L 153.413514 295.488 
L 153.608327 295.488 
L 153.640795 295.369062 
L 153.705733 295.488 
L 154.387575 295.488 
L 154.420044 295.329416 
L 154.484982 295.488 
L 154.549919 295.488 
L 154.582388 295.329416 
L 154.647325 295.488 
L 154.874606 295.408708 
L 154.907075 291.364814 
L 154.939543 295.488 
L 154.972012 295.488 
L 155.101887 295.488 
L 155.134356 295.131186 
L 155.199293 295.408708 
L 155.329168 295.488 
L 155.426574 295.488 
L 155.459043 293.783221 
L 155.52398 295.488 
L 155.816198 295.408708 
L 155.848667 295.329416 
L 155.881136 295.408708 
L 155.913604 295.488 
L 155.946073 274.198088 
L 156.011011 295.488 
L 156.173354 295.329416 
L 156.303229 295.488 
L 156.53051 295.488 
L 156.562978 295.329416 
L 156.595447 290.01685 
L 156.627916 295.488 
L 156.660385 295.488 
L 157.244821 295.488 
L 157.309759 295.250124 
L 157.342227 295.408708 
L 157.374696 295.488 
L 157.407165 295.250124 
L 157.472102 295.488 
L 157.569508 295.408708 
L 157.666914 295.488 
L 157.76432 295.329416 
L 157.894195 295.488 
L 158.381226 295.408708 
L 158.413694 294.853664 
L 158.446163 295.488 
L 158.478632 295.408708 
L 158.608507 295.488 
L 159.063068 295.488 
L 159.095537 295.329416 
L 159.160475 295.488 
L 159.290349 295.488 
L 159.420224 295.329416 
L 159.452693 295.329416 
L 159.582568 295.488 
L 159.679974 295.488 
L 159.712443 295.250124 
L 159.77738 295.408708 
L 159.907255 295.488 
L 160.03713 295.488 
L 160.069598 292.831717 
L 160.134536 295.488 
L 160.296879 295.488 
L 160.394285 294.932956 
L 160.52416 295.488 
L 160.881316 295.488 
L 160.913784 295.250124 
L 160.978722 295.488 
L 161.173534 295.488 
L 161.206003 291.919858 
L 161.27094 295.408708 
L 161.400815 295.488 
L 161.433284 295.329416 
L 161.498221 295.488 
L 161.693033 295.488 
L 161.790439 295.329416 
L 161.920314 295.488 
L 161.952783 294.457204 
L 162.01772 295.408708 
L 162.147595 295.488 
L 162.180064 292.395611 
L 162.245001 295.488 
L 162.27747 295.408708 
L 162.342407 295.488 
L 162.439813 295.488 
L 162.472282 293.426407 
L 162.53722 295.488 
L 162.569688 295.488 
L 162.602157 295.012248 
L 162.634626 292.395611 
L 162.667094 295.488 
L 162.699563 295.408708 
L 162.732032 294.536496 
L 162.7645 295.488 
L 162.796969 295.488 
L 163.121656 295.488 
L 163.154125 294.932956 
L 163.219062 295.09154 
L 163.348937 295.488 
L 163.413874 295.488 
L 163.446343 295.329416 
L 163.511281 295.408708 
L 163.641155 295.488 
L 163.77103 295.329416 
L 163.933374 295.488 
L 164.225592 295.488 
L 164.258061 294.536496 
L 164.322998 295.488 
L 164.387936 295.408708 
L 164.420404 295.488 
L 164.452873 295.488 
L 164.485342 295.329416 
L 164.550279 295.408708 
L 164.680154 295.488 
L 165.556809 295.408708 
L 165.589277 295.329416 
L 165.621746 294.853664 
L 165.654215 295.488 
L 165.686684 295.488 
L 166.336058 295.488 
L 166.368526 295.329416 
L 166.433464 295.408708 
L 166.53087 295.488 
L 166.563339 294.536496 
L 166.628276 295.488 
L 166.952963 295.488 
L 166.985432 294.853664 
L 167.050369 295.408708 
L 167.082838 295.488 
L 167.115306 295.250124 
L 167.180244 295.488 
L 167.245181 295.408708 
L 167.27765 294.417558 
L 167.342587 295.488 
L 167.439993 295.329416 
L 167.472462 295.408708 
L 167.569868 295.488 
L 167.602337 295.408708 
L 167.667274 295.488 
L 167.829618 295.488 
L 167.959493 295.329416 
L 168.056899 295.488 
L 168.121836 295.012248 
L 168.154305 295.408708 
L 168.251711 295.488 
L 168.28418 295.408708 
L 168.349117 295.488 
L 168.381586 286.92446 
L 168.446523 295.408708 
L 168.478992 295.488 
L 168.511461 294.774372 
L 168.576398 295.408708 
L 168.641335 295.488 
L 168.673804 290.730478 
L 168.738742 295.170832 
L 168.77121 293.267823 
L 168.803679 295.488 
L 168.836148 295.488 
L 168.933554 295.408708 
L 168.966022 291.444106 
L 168.998491 295.488 
L 169.03096 295.408708 
L 169.063429 295.250124 
L 169.095897 295.488 
L 169.258241 295.408708 
L 169.323178 294.932956 
L 169.420584 295.488 
L 169.453053 294.536496 
L 169.51799 295.488 
L 169.907615 295.488 
L 170.005021 295.250124 
L 170.03749 290.571894 
L 170.069958 295.488 
L 170.102427 295.488 
L 170.167364 295.488 
L 170.199833 294.457204 
L 170.26477 295.488 
L 170.621926 295.488 
L 170.654395 295.329416 
L 170.719332 295.408708 
L 170.816738 295.488 
L 170.849207 289.620389 
L 170.914145 294.774372 
L 171.044019 295.488 
L 171.336238 295.488 
L 171.466112 295.170832 
L 171.595987 295.488 
L 171.920674 295.488 
L 171.953143 294.932956 
L 172.01808 295.408708 
L 172.050549 295.488 
L 172.147955 294.140035 
L 172.27783 295.488 
L 172.407705 295.488 
L 172.440173 295.012248 
L 172.505111 295.488 
L 172.602517 295.488 
L 172.667454 295.09154 
L 172.732392 295.329416 
L 172.829798 295.488 
L 172.862267 295.329416 
L 172.927204 295.408708 
L 172.959673 295.488 
L 172.992141 294.536496 
L 173.057079 295.488 
L 173.316828 295.488 
L 173.446703 295.250124 
L 173.479172 295.488 
L 173.511641 292.593841 
L 173.576578 295.488 
L 173.706453 295.408708 
L 173.803859 295.488 
L 173.901265 295.408708 
L 174.03114 295.488 
L 174.063609 291.919858 
L 174.128546 295.488 
L 174.193483 295.488 
L 174.225952 295.329416 
L 174.290889 295.488 
L 174.615576 295.488 
L 174.648045 294.140035 
L 174.712983 295.488 
L 174.810389 295.408708 
L 174.940263 295.488 
L 175.167544 295.488 
L 175.200013 290.80977 
L 175.26495 295.488 
L 175.589638 295.488 
L 175.622106 294.298619 
L 175.687044 295.488 
L 176.011731 295.488 
L 176.174074 293.822867 
L 176.303949 295.488 
L 176.661105 295.448354 
L 176.693573 294.69508 
L 176.758511 295.408708 
L 176.888386 295.488 
L 177.01826 295.09154 
L 177.115666 295.488 
L 177.148135 295.329416 
L 177.310479 295.488 
L 177.375416 295.488 
L 177.407885 295.09154 
L 177.472822 295.488 
L 177.602697 295.408708 
L 177.700103 295.488 
L 177.732572 295.09154 
L 177.797509 295.488 
L 177.829978 295.488 
L 177.862447 283.871717 
L 177.927384 295.488 
L 178.057259 295.408708 
L 178.089728 291.840566 
L 178.122196 295.488 
L 178.154665 295.488 
L 178.219602 295.408708 
L 178.252071 294.932956 
L 178.28454 295.488 
L 178.317008 295.488 
L 178.479352 295.488 
L 178.511821 292.990301 
L 178.576758 295.488 
L 178.609227 295.250124 
L 178.674164 295.488 
L 178.706633 295.488 
L 178.739102 294.774372 
L 178.804039 295.408708 
L 179.03132 295.488 
L 179.063789 295.170832 
L 179.128726 295.488 
L 179.583288 295.408708 
L 179.615756 294.298619 
L 179.648225 295.488 
L 179.680694 295.488 
L 179.810569 295.408708 
L 179.843037 295.170832 
L 179.875506 295.488 
L 179.907975 295.488 
L 180.005381 295.408708 
L 180.03785 294.417558 
L 180.102787 295.488 
L 180.167724 295.488 
L 180.232662 294.140035 
L 180.265131 295.408708 
L 180.330068 295.329416 
L 180.395005 295.488 
L 180.622286 295.488 
L 180.654755 294.49685 
L 180.719692 295.488 
L 180.752161 295.488 
L 180.78463 294.774372 
L 180.849567 295.488 
L 181.044379 295.488 
L 181.141785 294.774372 
L 181.27166 295.488 
L 181.563879 295.488 
L 181.596347 291.681982 
L 181.661285 295.488 
L 181.758691 295.408708 
L 181.791159 295.170832 
L 181.823628 295.488 
L 181.856097 295.488 
L 181.953503 295.408708 
L 181.985972 295.488 
L 182.01844 295.329416 
L 182.050909 291.681982 
L 182.083378 295.488 
L 182.115846 295.408708 
L 182.180784 295.488 
L 182.213253 295.329416 
L 182.27819 295.488 
L 182.310659 295.408708 
L 182.375596 295.488 
L 182.440534 295.408708 
L 182.473002 295.329416 
L 182.505471 295.488 
L 182.602877 295.488 
L 182.700283 295.329416 
L 182.830158 295.488 
L 182.895095 295.488 
L 182.927564 287.003752 
L 182.992501 295.488 
L 183.512001 295.408708 
L 183.544469 291.681982 
L 183.576938 295.488 
L 183.609407 295.408708 
L 183.641875 294.932956 
L 183.674344 295.488 
L 183.706813 295.250124 
L 183.804219 295.488 
L 183.836688 294.774372 
L 183.901625 295.408708 
L 183.966562 295.488 
L 183.999031 295.408708 
L 184.258781 295.408708 
L 184.291249 293.822867 
L 184.356187 295.408708 
L 184.388656 295.408708 
L 184.421124 294.932956 
L 184.453593 295.488 
L 184.486062 295.488 
L 184.583468 295.408708 
L 184.648405 292.633487 
L 184.680874 295.488 
L 184.77828 295.408708 
L 184.875686 295.488 
L 184.908155 295.170832 
L 184.973092 295.488 
L 185.005561 295.488 
L 185.102967 295.170832 
L 185.200373 295.488 
L 185.232842 295.369062 
L 185.265311 294.932956 
L 185.330248 295.488 
L 185.849747 295.488 
L 185.882216 294.457204 
L 185.947153 295.488 
L 186.012091 295.369062 
L 186.044559 295.408708 
L 186.141965 295.488 
L 186.174434 295.170832 
L 186.239372 295.488 
L 186.369246 295.408708 
L 186.401715 294.615788 
L 186.466652 295.488 
L 186.499121 295.09154 
L 186.564059 295.488 
L 186.628996 295.329416 
L 186.661465 292.316319 
L 186.693933 295.488 
L 186.726402 295.488 
L 186.758871 295.488 
L 186.791339 290.056496 
L 186.856277 295.488 
L 186.921214 295.488 
L 186.953683 293.981451 
L 187.01862 295.488 
L 187.148495 295.488 
L 187.180964 291.087292 
L 187.245901 295.329416 
L 187.343307 295.488 
L 187.375776 287.400212 
L 187.440714 295.369062 
L 187.53812 295.488 
L 187.570588 295.170832 
L 187.635526 295.488 
L 187.667994 295.488 
L 187.765401 294.972602 
L 187.797869 295.329416 
L 187.927744 295.488 
L 188.122556 295.408708 
L 188.155025 294.457204 
L 188.187494 295.488 
L 188.219962 295.488 
L 188.2849 295.09154 
L 188.317368 295.488 
L 188.349837 295.488 
L 188.382306 294.69508 
L 188.479712 294.932956 
L 188.577118 295.488 
L 188.609587 295.408708 
L 188.706993 295.488 
L 188.739462 295.408708 
L 188.77193 294.853664 
L 188.804399 295.488 
L 188.836868 295.408708 
L 188.966742 295.488 
L 188.999211 295.408708 
L 189.064149 295.488 
L 189.096617 295.488 
L 189.129086 295.329416 
L 189.194023 295.408708 
L 189.323898 295.488 
L 189.356367 295.488 
L 189.388836 295.012248 
L 189.453773 295.488 
L 189.486242 295.408708 
L 189.551179 295.488 
L 189.616117 295.488 
L 189.713523 295.170832 
L 189.843397 295.488 
L 189.875866 292.157735 
L 189.940804 295.408708 
L 189.973272 295.488 
L 190.005741 295.250124 
L 190.070678 295.488 
L 190.233022 295.408708 
L 190.265491 294.853664 
L 190.330428 295.488 
L 190.655115 295.488 
L 190.687584 295.28977 
L 190.752521 295.408708 
L 190.78499 295.488 
L 190.817458 294.140035 
L 190.882396 295.488 
L 191.012271 294.338265 
L 191.142145 295.488 
L 191.304489 295.488 
L 191.336958 295.329416 
L 191.401895 295.488 
L 191.466833 295.488 
L 191.499301 295.170832 
L 191.564239 295.329416 
L 191.694113 295.488 
L 191.953863 295.488 
L 191.986332 294.853664 
L 192.051269 295.250124 
L 192.116207 295.488 
L 192.148675 294.972602 
L 192.213613 295.408708 
L 192.27855 295.488 
L 192.311019 294.219327 
L 192.375956 295.408708 
L 192.473362 295.488 
L 192.505831 295.012248 
L 192.570768 295.488 
L 192.635706 295.408708 
L 192.668174 292.316319 
L 192.733112 295.488 
L 192.895455 295.488 
L 192.927924 295.250124 
L 192.992861 295.488 
L 193.057799 295.488 
L 193.187674 295.329416 
L 193.252611 295.488 
L 193.28508 293.981451 
L 193.350017 295.408708 
L 193.999391 295.408708 
L 194.03186 295.250124 
L 194.064329 295.488 
L 194.324078 295.488 
L 194.356547 295.250124 
L 194.421484 295.329416 
L 194.551359 295.488 
L 194.681234 293.267823 
L 194.811109 295.488 
L 195.005921 295.488 
L 195.070858 295.329416 
L 195.103327 295.408708 
L 195.168264 295.488 
L 195.200733 295.09154 
L 195.265671 295.488 
L 195.428014 295.488 
L 195.460483 291.523398 
L 195.52542 295.488 
L 195.655295 294.932956 
L 195.78517 295.488 
L 195.882576 295.488 
L 195.979982 288.986053 
L 196.109857 295.488 
L 196.239732 294.417558 
L 196.304669 295.488 
L 196.369606 295.408708 
L 196.467013 295.488 
L 196.596887 295.408708 
L 196.694293 295.488 
L 196.726762 294.853664 
L 196.7917 295.488 
L 196.824168 295.329416 
L 196.856637 295.488 
L 196.889106 294.060743 
L 196.954043 295.488 
L 197.083918 295.408708 
L 197.148855 295.488 
L 197.181324 295.329416 
L 197.246261 295.488 
L 197.311199 295.408708 
L 197.343667 295.329416 
L 197.376136 294.774372 
L 197.441074 295.488 
L 197.473542 295.170832 
L 197.53848 295.408708 
L 198.252791 295.488 
L 198.317729 295.170832 
L 198.350197 295.488 
L 198.77229 295.448354 
L 198.804759 293.426407 
L 198.837228 295.488 
L 198.869696 295.488 
L 198.967103 295.210478 
L 199.096977 295.488 
L 199.161915 295.488 
L 199.226852 294.298619 
L 199.259321 295.488 
L 199.29179 295.408708 
L 199.324258 294.853664 
L 199.356727 295.488 
L 199.389196 295.488 
L 199.486602 295.488 
L 199.51907 294.853664 
L 199.584008 295.488 
L 199.941164 295.408708 
L 199.973632 294.932956 
L 200.006101 295.488 
L 200.03857 295.488 
L 200.071038 295.408708 
L 200.135976 295.488 
L 200.265851 295.488 
L 200.298319 295.012248 
L 200.363257 295.488 
L 200.460663 295.408708 
L 200.5256 295.488 
L 200.558069 295.408708 
L 200.655475 295.488 
L 200.687944 290.41331 
L 200.752881 295.488 
L 200.915225 295.488 
L 200.947693 295.329416 
L 201.012631 295.408708 
L 201.110037 295.488 
L 201.239912 295.170832 
L 201.369786 295.488 
L 201.402255 295.488 
L 201.467193 295.170832 
L 201.499661 295.488 
L 201.629536 295.488 
L 201.759411 295.012248 
L 201.889286 295.488 
L 202.051629 295.488 
L 202.084098 294.774372 
L 202.149035 295.488 
L 202.27891 295.488 
L 202.311379 293.743575 
L 202.376316 295.408708 
L 202.408785 295.488 
L 202.441254 293.822867 
L 202.506191 295.408708 
L 202.798409 295.488 
L 202.830878 295.012248 
L 202.895815 295.329416 
L 202.993222 295.488 
L 203.02569 295.408708 
L 203.090628 295.488 
L 203.28544 295.488 
L 203.350377 294.853664 
L 203.382846 295.408708 
L 203.512721 295.488 
L 203.642596 295.408708 
L 203.77247 295.488 
L 203.902345 282.64269 
L 203.934814 295.488 
L 203.999751 292.554195 
L 204.03222 279.272779 
L 204.064689 295.488 
L 204.097157 295.488 
L 204.454313 295.488 
L 204.51925 291.681982 
L 204.551719 295.408708 
L 204.681594 295.488 
L 204.779 295.408708 
L 204.876406 295.488 
L 205.006281 295.329416 
L 205.103687 295.488 
L 205.136156 295.448354 
L 205.168624 295.408708 
L 205.266031 294.932956 
L 205.330968 295.488 
L 205.363437 295.408708 
L 205.428374 294.179681 
L 205.460843 295.408708 
L 205.52578 295.329416 
L 205.590718 295.488 
L 205.623186 295.329416 
L 205.688124 295.408708 
L 205.753061 295.329416 
L 205.817999 295.488 
L 205.850467 295.488 
L 205.882936 294.853664 
L 205.947873 295.488 
L 206.045279 295.488 
L 206.077748 295.329416 
L 206.142686 295.488 
L 206.207623 295.408708 
L 206.27256 295.488 
L 206.337498 291.919858 
L 206.467373 295.488 
L 206.53231 295.408708 
L 206.564779 295.448354 
L 206.694653 295.488 
L 206.727122 295.408708 
L 206.759591 295.488 
L 206.79206 294.853664 
L 206.856997 295.408708 
L 206.889466 295.488 
L 206.921934 295.170832 
L 207.01934 295.250124 
L 207.084278 295.488 
L 207.116747 295.408708 
L 207.149215 295.250124 
L 207.181684 295.488 
L 207.441434 295.488 
L 207.473902 295.329416 
L 207.53884 295.408708 
L 207.571308 295.488 
L 207.701183 295.250124 
L 207.831058 295.488 
L 208.805119 295.488 
L 208.934994 294.932956 
L 208.999931 294.457204 
L 209.064869 295.488 
L 209.097337 295.488 
L 209.162275 290.175434 
L 209.194743 295.408708 
L 209.29215 295.488 
L 209.324618 295.408708 
L 209.357087 295.488 
L 209.389556 293.426407 
L 209.454493 295.488 
L 209.486962 295.488 
L 209.51943 295.250124 
L 209.584368 295.488 
L 209.681774 295.408708 
L 209.746711 295.488 
L 209.876586 293.981451 
L 210.006461 295.488 
L 210.071398 295.09154 
L 210.103867 295.210478 
L 210.233742 295.488 
L 210.461023 295.408708 
L 210.493492 295.012248 
L 210.52596 295.488 
L 210.558429 295.488 
L 210.915585 295.408708 
L 210.948053 294.932956 
L 210.980522 295.488 
L 211.012991 295.488 
L 211.240272 295.408708 
L 211.27274 295.329416 
L 211.305209 295.488 
L 211.370146 295.408708 
L 211.402615 294.140035 
L 211.435084 295.488 
L 211.467553 295.488 
L 211.662365 295.488 
L 211.694833 295.329416 
L 211.759771 295.408708 
L 211.824708 295.488 
L 211.857177 295.408708 
L 212.27927 295.329416 
L 212.311739 294.932956 
L 212.376676 295.488 
L 212.409145 295.329416 
L 212.474082 295.488 
L 212.636426 295.488 
L 212.668895 295.250124 
L 212.733832 295.488 
L 213.578018 295.488 
L 213.610487 295.170832 
L 213.675424 295.408708 
L 213.805299 295.488 
L 213.967643 295.488 
L 214.000111 294.060743 
L 214.065049 295.488 
L 214.097517 295.329416 
L 214.162455 295.488 
L 214.389736 295.488 
L 214.422204 295.329416 
L 214.454673 288.351717 
L 214.487142 295.408708 
L 214.519611 295.408708 
L 214.584548 295.488 
L 214.617017 293.426407 
L 214.681954 295.488 
L 214.811829 295.408708 
L 214.909235 295.488 
L 215.03911 295.408708 
L 215.168985 295.488 
L 215.331328 295.488 
L 215.461203 294.89331 
L 215.591078 295.488 
L 215.720952 295.408708 
L 215.78589 294.298619 
L 215.818359 295.488 
L 216.078108 295.408708 
L 216.110577 295.170832 
L 216.143046 294.060743 
L 216.175514 295.488 
L 216.207983 295.250124 
L 216.402795 295.488 
L 216.597607 295.408708 
L 216.630076 294.536496 
L 216.662545 295.488 
L 216.695014 295.488 
L 217.344388 295.488 
L 217.376856 295.329416 
L 217.441794 295.488 
L 217.5392 295.488 
L 217.571668 295.329416 
L 217.636606 295.488 
L 217.766481 295.488 
L 217.798949 295.329416 
L 217.863887 295.488 
L 217.961293 295.408708 
L 217.993762 295.488 
L 218.058699 294.69508 
L 218.091168 295.408708 
L 218.221042 295.488 
L 218.253511 295.488 
L 218.28598 295.329416 
L 218.350917 295.488 
L 218.415855 295.488 
L 218.448323 295.369062 
L 218.513261 295.488 
L 218.545729 295.488 
L 218.675604 295.329416 
L 218.77301 295.488 
L 218.902885 295.408708 
L 219.357447 295.488 
L 219.389916 295.170832 
L 219.454853 295.408708 
L 219.519791 295.488 
L 219.552259 295.408708 
L 219.77954 295.408708 
L 219.812009 295.250124 
L 219.844478 295.488 
L 219.876946 295.488 
L 219.909415 295.250124 
L 219.974352 295.408708 
L 220.03929 295.488 
L 220.071758 293.347115 
L 220.136696 295.488 
L 220.493852 295.408708 
L 220.558789 295.488 
L 220.591258 295.329416 
L 220.688664 295.488 
L 220.753601 295.408708 
L 220.818539 294.457204 
L 220.851007 295.408708 
L 220.883476 295.488 
L 220.915945 292.554195 
L 220.980882 295.488 
L 221.045819 295.408708 
L 221.078288 295.488 
L 221.110757 290.254726 
L 221.175694 295.250124 
L 221.305569 295.488 
L 221.500381 295.408708 
L 221.53285 293.743575 
L 221.597787 295.488 
L 221.695194 295.488 
L 221.727662 294.774372 
L 221.7926 295.488 
L 221.825068 295.408708 
L 221.890006 295.488 
L 222.701723 295.488 
L 222.734192 295.329416 
L 222.799129 295.488 
L 222.896535 295.488 
L 222.961473 295.329416 
L 222.993942 295.488 
L 223.02641 295.488 
L 223.058879 291.681982 
L 223.123816 295.408708 
L 223.253691 295.488 
L 223.28616 285.497204 
L 223.351097 295.408708 
L 223.383566 295.488 
L 223.448503 293.307469 
L 223.480972 295.488 
L 223.513441 295.488 
L 223.54591 295.170832 
L 223.610847 295.488 
L 223.643316 295.408708 
L 223.708253 295.488 
L 223.740722 295.488 
L 223.77319 290.334018 
L 223.838128 295.408708 
L 223.870597 295.329416 
L 223.903065 295.488 
L 223.968003 295.488 
L 224.097877 295.170832 
L 224.195284 295.488 
L 224.227752 295.170832 
L 224.29269 295.488 
L 224.487502 295.408708 
L 224.552439 294.576142 
L 224.584908 295.250124 
L 224.682314 295.488 
L 224.714783 295.329416 
L 224.747251 294.417558 
L 224.77972 295.488 
L 224.812189 295.488 
L 224.844658 295.488 
L 224.877126 284.387115 
L 224.942064 295.488 
L 225.007001 295.488 
L 225.03947 295.09154 
L 225.104407 295.329416 
L 225.266751 295.488 
L 225.364157 295.408708 
L 225.429094 295.488 
L 225.461563 295.408708 
L 225.818719 295.488 
L 225.916125 294.853664 
L 225.948593 295.09154 
L 226.078468 295.488 
L 226.110937 295.329416 
L 226.175874 295.488 
L 226.695374 295.408708 
L 226.825248 294.615788 
L 226.955123 295.488 
L 227.052529 295.408708 
L 227.117467 295.488 
L 227.149935 295.329416 
L 227.182404 295.488 
L 227.214873 295.012248 
L 227.27981 295.329416 
L 227.377216 295.488 
L 227.409685 295.329416 
L 227.474622 295.488 
L 227.604497 295.408708 
L 227.734372 295.488 
L 227.831778 295.488 
L 227.864247 287.717381 
L 227.929184 295.488 
L 227.961653 295.488 
L 227.994122 293.822867 
L 228.059059 295.329416 
L 228.188934 295.488 
L 228.805839 295.488 
L 228.838308 295.250124 
L 228.903245 295.408708 
L 229.260401 295.329416 
L 229.29287 287.875965 
L 229.325338 295.488 
L 229.357807 293.188531 
L 229.455213 295.488 
L 229.487682 295.408708 
L 230.266931 295.488 
L 230.299399 295.28977 
L 230.331868 287.558796 
L 230.364337 295.488 
L 230.396805 295.488 
L 230.429274 295.408708 
L 230.494212 295.488 
L 230.624086 295.488 
L 230.656555 295.250124 
L 230.721493 295.488 
L 230.753961 295.408708 
L 230.818899 295.488 
L 231.078648 295.488 
L 231.143586 295.250124 
L 231.176054 295.408708 
L 231.305929 295.488 
L 231.338398 295.408708 
L 231.370867 291.285522 
L 231.403335 295.488 
L 231.435804 295.488 
L 231.500741 295.329416 
L 231.53321 295.488 
L 232.182584 295.408708 
L 232.215053 295.329416 
L 232.247521 295.488 
L 232.312459 295.488 
L 232.344928 295.329416 
L 232.377396 295.448354 
L 232.409865 293.743575 
L 232.442334 295.488 
L 232.474802 295.488 
L 232.507271 295.488 
L 232.604677 295.329416 
L 232.734552 295.488 
L 233.676144 295.408708 
L 233.708613 290.254726 
L 233.741082 295.488 
L 233.77355 295.488 
L 234.163175 295.488 
L 234.195644 295.329416 
L 234.260581 295.488 
L 234.29305 293.902159 
L 234.357987 295.488 
L 234.390456 295.488 
L 234.422924 295.210478 
L 234.487862 295.408708 
L 234.552799 295.488 
L 234.585268 295.408708 
L 236.338578 295.408708 
L 236.371047 295.170832 
L 236.403515 295.488 
L 236.435984 295.488 
L 236.468453 295.488 
L 236.500921 295.250124 
L 236.565859 295.408708 
L 236.630796 295.488 
L 236.663265 295.012248 
L 236.728202 295.488 
L 237.182764 295.488 
L 237.215233 288.906761 
L 237.28017 295.488 
L 237.410045 295.408708 
L 237.474982 295.488 
L 237.53992 292.950655 
L 237.669795 295.488 
L 237.702263 295.488 
L 237.734732 295.131186 
L 237.799669 295.488 
L 237.832138 295.488 
L 237.897076 295.329416 
L 237.929544 295.488 
L 238.578918 295.488 
L 238.611387 295.329416 
L 238.676324 295.488 
L 238.936074 295.408708 
L 238.968543 292.593841 
L 239.03348 295.488 
L 239.488042 295.408708 
L 239.520511 294.060743 
L 239.552979 295.488 
L 239.585448 295.488 
L 239.617917 295.488 
L 239.650385 295.369062 
L 239.715323 295.408708 
L 239.845198 295.488 
L 240.267291 295.488 
L 240.299759 295.329416 
L 240.364697 295.408708 
L 240.559509 295.488 
L 240.591978 295.170832 
L 240.656915 295.408708 
L 241.338758 295.488 
L 241.403695 294.457204 
L 241.436164 295.488 
L 241.79332 295.488 
L 241.825788 295.329416 
L 241.890726 295.488 
L 242.150475 295.488 
L 242.182944 295.329416 
L 242.247882 295.488 
L 242.28035 295.488 
L 242.312819 294.774372 
L 242.377756 295.488 
L 242.507631 294.457204 
L 242.637506 295.488 
L 242.767381 295.408708 
L 243.708973 295.488 
L 243.741442 293.743575 
L 243.806379 295.488 
L 244.163535 295.488 
L 244.196004 295.09154 
L 244.260941 295.329416 
L 244.358347 295.488 
L 244.488222 295.408708 
L 244.618097 295.488 
L 245.072659 295.488 
L 245.105127 278.123044 
L 245.170065 295.488 
L 245.267471 295.488 
L 245.299939 295.329416 
L 245.364877 295.408708 
L 245.397346 295.488 
L 245.429814 295.329416 
L 245.462283 295.329416 
L 245.559689 295.488 
L 245.657095 295.329416 
L 245.689564 295.408708 
L 245.722033 295.488 
L 245.78697 292.395611 
L 245.819439 295.408708 
L 246.079188 295.488 
L 246.111657 295.170832 
L 246.176594 295.488 
L 246.209063 295.408708 
L 246.241532 292.950655 
L 246.274 295.488 
L 246.306469 295.488 
L 246.436344 295.408708 
L 246.468813 288.431009 
L 246.501281 295.488 
L 246.53375 295.408708 
L 246.696094 295.488 
L 246.728562 294.298619 
L 246.7935 294.932956 
L 246.923375 295.488 
L 246.955843 295.329416 
L 247.020781 295.488 
L 247.053249 295.488 
L 247.085718 295.329416 
L 247.150655 295.488 
L 247.215593 295.329416 
L 247.248062 295.488 
L 247.410405 295.488 
L 247.442874 294.377912 
L 247.507811 295.488 
L 247.767561 295.488 
L 247.800029 295.170832 
L 247.864967 295.408708 
L 247.994842 295.488 
L 248.124716 295.488 
L 248.157185 291.523398 
L 248.222123 295.488 
L 248.319529 295.408708 
L 248.416935 295.488 
L 248.449403 294.140035 
L 248.514341 295.488 
L 248.579278 295.448354 
L 248.611747 295.329416 
L 248.644216 292.554195 
L 248.709153 295.408708 
L 248.806559 295.488 
L 248.839028 295.408708 
L 248.903965 295.488 
L 248.936434 295.488 
L 248.968903 295.329416 
L 249.03384 295.488 
L 249.261121 295.488 
L 249.29359 295.250124 
L 249.358527 295.408708 
L 249.488402 295.488 
L 249.618277 295.488 
L 249.650745 295.329416 
L 249.715683 295.408708 
L 249.813089 295.488 
L 249.845558 295.329416 
L 249.910495 295.488 
L 250.235182 295.488 
L 250.267651 295.329416 
L 250.332588 295.408708 
L 250.5274 295.488 
L 250.559869 292.514549 
L 250.624806 295.488 
L 251.761211 295.488 
L 251.79368 293.862513 
L 251.858617 295.488 
L 251.988492 295.488 
L 252.053429 295.329416 
L 252.085898 295.488 
L 252.378116 295.488 
L 252.410585 295.329416 
L 252.475522 295.488 
L 253.222303 295.488 
L 253.254771 295.329416 
L 253.319709 295.488 
L 253.352177 295.408708 
L 253.417115 295.488 
L 254.585988 295.488 
L 254.683394 295.250124 
L 254.7808 295.488 
L 254.813269 295.408708 
L 255.462643 295.488 
L 255.592518 293.743575 
L 255.689924 295.488 
L 255.722393 295.408708 
L 255.917205 295.488 
L 255.949674 294.774372 
L 256.014611 295.488 
L 256.306829 295.488 
L 256.339298 294.457204 
L 256.404235 295.488 
L 256.501641 295.408708 
L 256.631516 295.488 
L 257.378296 295.488 
L 257.410765 285.259327 
L 257.475702 295.28977 
L 257.508171 294.853664 
L 257.54064 295.488 
L 257.573109 294.932956 
L 257.702983 295.488 
L 257.930264 295.488 
L 257.995202 295.329416 
L 258.02767 295.408708 
L 258.157545 295.488 
L 258.254951 295.408708 
L 258.28742 295.329416 
L 258.319889 295.488 
L 258.417295 295.488 
L 258.482232 295.329416 
L 258.514701 294.298619 
L 258.54717 295.488 
L 258.579638 295.488 
L 259.261481 295.408708 
L 259.29395 295.012248 
L 259.326418 295.488 
L 259.358887 295.408708 
L 259.488762 295.488 
L 259.553699 295.250124 
L 259.586168 295.488 
L 260.365417 295.408708 
L 260.397886 295.170832 
L 260.462823 295.408708 
L 260.560229 295.488 
L 260.657635 295.408708 
L 260.78751 295.488 
L 261.242072 295.488 
L 261.274541 294.774372 
L 261.339478 295.488 
L 261.599228 295.488 
L 261.631696 295.329416 
L 261.696634 295.488 
L 261.956383 295.488 
L 261.988852 295.250124 
L 262.053789 295.329416 
L 262.183664 295.488 
L 262.346008 295.408708 
L 262.378476 295.329416 
L 262.410945 295.488 
L 262.443414 295.408708 
L 262.865507 295.408708 
L 262.897976 295.250124 
L 262.930444 295.488 
L 263.449944 295.488 
L 263.482412 295.329416 
L 263.54735 295.488 
L 264.066849 295.448354 
L 264.131786 295.488 
L 264.196724 295.250124 
L 264.326598 295.488 
L 264.586348 295.488 
L 264.618817 294.89331 
L 264.683754 295.488 
L 264.748692 295.488 
L 264.78116 295.250124 
L 264.846098 295.488 
L 264.911035 295.329416 
L 264.943504 295.488 
L 265.008441 295.488 
L 265.04091 295.329416 
L 265.105847 295.488 
L 265.235722 295.488 
L 265.268191 295.329416 
L 265.333128 295.408708 
L 265.722753 295.408708 
L 265.755221 295.09154 
L 265.78769 295.488 
L 265.820159 295.488 
L 265.885096 295.448354 
L 265.917565 295.329416 
L 265.950034 295.488 
L 265.982502 295.488 
L 266.079908 295.408708 
L 266.177314 295.488 
L 266.307189 295.408708 
L 266.437064 295.488 
L 266.566939 295.488 
L 266.599408 295.329416 
L 266.664345 295.488 
L 266.761751 295.408708 
L 266.891626 295.488 
L 267.021501 295.329416 
L 267.118907 295.488 
L 267.151376 287.32092 
L 267.216313 295.408708 
L 267.248782 294.932956 
L 267.313719 295.488 
L 267.670875 295.488 
L 267.80075 295.170832 
L 267.930624 295.488 
L 268.190374 295.408708 
L 268.222843 295.250124 
L 268.255311 295.488 
L 269.229372 295.488 
L 269.261841 292.871363 
L 269.326778 295.488 
L 269.748872 295.488 
L 269.78134 295.250124 
L 269.846278 295.408708 
L 269.976153 295.488 
L 270.560589 295.488 
L 270.593058 295.250124 
L 270.625527 287.757027 
L 270.657995 295.488 
L 270.690464 295.488 
L 271.112557 295.488 
L 271.145026 295.250124 
L 271.209963 295.488 
L 271.242432 295.408708 
L 271.307369 295.488 
L 271.339838 295.488 
L 271.469713 295.250124 
L 271.567119 295.488 
L 271.599588 295.408708 
L 271.729462 295.488 
L 271.7944 295.488 
L 271.826869 295.329416 
L 271.891806 295.408708 
L 272.021681 295.488 
L 272.054149 295.488 
L 272.086618 295.369062 
L 272.119087 294.060743 
L 272.184024 295.488 
L 272.248962 295.488 
L 272.28143 295.329416 
L 272.346368 295.488 
L 272.963273 295.488 
L 272.995742 295.250124 
L 273.060679 295.329416 
L 273.158085 295.488 
L 273.255491 295.329416 
L 273.352897 295.488 
L 273.515241 295.329416 
L 273.645116 295.488 
L 274.002271 295.488 
L 274.03474 291.285522 
L 274.099678 295.408708 
L 274.132146 294.536496 
L 274.197084 295.408708 
L 274.262021 295.488 
L 274.29449 295.408708 
L 276.53483 295.408708 
L 276.567299 295.250124 
L 276.599768 295.488 
L 277.086798 295.488 
L 277.119267 295.329416 
L 277.184204 295.488 
L 277.28161 295.488 
L 277.314079 295.329416 
L 277.379016 295.488 
L 277.443954 295.488 
L 277.476423 295.250124 
L 277.54136 295.488 
L 277.833578 295.408708 
L 277.866047 295.250124 
L 277.898516 295.488 
L 278.645296 295.408708 
L 278.677765 295.329416 
L 278.710233 295.488 
L 279.262201 295.488 
L 279.29467 294.179681 
L 279.359607 295.488 
L 279.392076 295.488 
L 279.521951 295.329416 
L 279.651826 295.488 
L 279.749232 295.488 
L 279.7817 292.554195 
L 279.846638 295.488 
L 279.976513 295.488 
L 280.008981 295.329416 
L 280.073919 295.488 
L 280.138856 295.488 
L 280.171325 293.624637 
L 280.236262 295.09154 
L 280.366137 295.488 
L 280.52848 295.488 
L 280.560949 295.329416 
L 280.625887 295.488 
L 281.080448 295.488 
L 281.112917 290.928708 
L 281.177855 295.488 
L 281.210323 295.408708 
L 281.242792 295.488 
L 281.275261 292.792071 
L 281.340198 295.488 
L 281.372667 295.488 
L 281.405135 293.267823 
L 281.470073 295.408708 
L 281.53501 295.329416 
L 281.567479 295.488 
L 281.697354 295.408708 
L 281.729822 295.488 
L 281.762291 295.408708 
L 281.79476 295.329416 
L 281.827229 295.488 
L 281.924635 295.408708 
L 281.957103 295.329416 
L 281.989572 295.488 
L 282.022041 295.488 
L 282.054509 295.250124 
L 282.119447 295.488 
L 282.996102 295.408708 
L 283.02857 295.329416 
L 283.061039 295.488 
L 283.093508 295.408708 
L 283.223383 295.488 
L 283.255851 295.408708 
L 283.320789 295.488 
L 283.353258 295.488 
L 283.385726 295.329416 
L 283.450664 295.488 
L 283.483132 295.408708 
L 283.54807 295.488 
L 284.359787 295.488 
L 284.392256 295.329416 
L 284.457193 295.408708 
L 285.268911 295.408708 
L 285.30138 295.250124 
L 285.366317 295.408708 
L 285.496192 295.488 
L 285.950754 295.488 
L 285.983222 295.329416 
L 286.04816 295.488 
L 286.113097 295.329416 
L 286.178035 295.408708 
L 286.307909 295.408708 
L 286.340378 295.250124 
L 286.372847 295.408708 
L 286.470253 295.488 
L 286.502722 295.408708 
L 286.567659 295.488 
L 287.184564 295.488 
L 287.217033 295.329416 
L 287.28197 295.488 
L 287.671595 295.488 
L 287.704063 295.329416 
L 287.769001 295.488 
L 287.898876 295.488 
L 287.931344 295.329416 
L 287.996282 295.408708 
L 288.126157 295.408708 
L 288.158625 295.250124 
L 288.191094 295.408708 
L 288.320969 295.488 
L 288.840468 295.488 
L 288.872937 295.329416 
L 288.937874 295.488 
L 289.067749 295.408708 
L 289.197624 295.488 
L 289.327499 295.408708 
L 289.359967 295.488 
L 289.424905 295.408708 
L 290.074279 295.408708 
L 290.106747 295.250124 
L 290.139216 295.488 
L 290.204154 295.488 
L 290.236622 295.250124 
L 290.30156 295.488 
L 290.398966 295.408708 
L 290.528841 295.488 
L 290.561309 295.488 
L 290.593778 295.170832 
L 290.658715 295.488 
L 290.983402 295.488 
L 291.015871 295.329416 
L 291.080808 295.488 
L 291.113277 295.488 
L 291.145746 295.329416 
L 291.210683 295.488 
L 291.373027 295.488 
L 291.405495 295.012248 
L 291.470433 295.488 
L 291.53537 295.250124 
L 291.567839 295.488 
L 291.600308 295.488 
L 291.632776 291.761274 
L 291.697714 295.488 
L 291.79512 295.250124 
L 291.827589 295.329416 
L 291.924995 295.488 
L 291.957463 293.902159 
L 292.022401 295.488 
L 292.054869 295.408708 
L 292.087338 295.488 
L 292.119807 288.589593 
L 292.184744 295.488 
L 292.28215 295.250124 
L 292.412025 295.488 
L 292.509431 295.369062 
L 292.639306 295.488 
L 292.671775 295.408708 
L 292.736712 295.488 
L 292.834118 295.408708 
L 292.963993 295.329416 
L 293.093868 295.488 
L 293.321149 295.488 
L 293.386086 291.166584 
L 293.418555 295.408708 
L 293.54843 295.488 
L 293.613367 295.408708 
L 293.645836 295.09154 
L 293.710773 295.488 
L 293.873117 295.488 
L 293.905585 293.584991 
L 293.970523 295.488 
L 294.262741 295.488 
L 294.29521 288.668885 
L 294.360147 295.488 
L 294.457553 295.408708 
L 294.587428 295.488 
L 295.658895 295.488 
L 295.78877 295.329416 
L 295.951114 295.488 
L 296.632956 295.408708 
L 296.665425 295.329416 
L 296.697894 295.488 
L 296.892706 295.488 
L 296.925175 295.329416 
L 296.990112 295.488 
L 297.05505 295.488 
L 297.087518 295.28977 
L 297.152456 295.329416 
L 297.249862 295.488 
L 297.28233 295.408708 
L 297.347268 295.488 
L 298.191454 295.488 
L 298.223923 295.250124 
L 298.28886 295.488 
L 298.321329 295.408708 
L 298.386266 295.488 
L 298.483672 295.488 
L 298.516141 295.329416 
L 298.581078 295.488 
L 298.710953 295.408708 
L 298.743422 295.488 
L 298.775891 295.408708 
L 298.808359 295.09154 
L 298.873297 295.488 
L 299.068109 295.408708 
L 299.100578 295.329416 
L 299.133046 295.448354 
L 299.262921 295.488 
L 299.360327 295.408708 
L 299.457733 295.488 
L 299.490202 295.329416 
L 299.55514 295.488 
L 299.685014 295.408708 
L 299.814889 295.488 
L 300.366857 295.488 
L 300.399326 295.250124 
L 300.464263 295.488 
L 300.496732 295.488 
L 300.529201 293.267823 
L 300.594138 295.329416 
L 300.756481 295.488 
L 301.957823 295.488 
L 301.990292 295.329416 
L 302.05523 295.408708 
L 302.152636 295.488 
L 302.185104 295.408708 
L 302.250042 295.488 
L 302.769541 295.408708 
L 302.80201 295.329416 
L 302.834478 295.488 
L 303.28904 295.488 
L 303.321509 281.374018 
L 303.386446 295.408708 
L 303.516321 295.488 
L 303.581258 295.408708 
L 303.646196 295.488 
L 303.678665 295.329416 
L 303.808539 295.488 
L 303.873477 295.408708 
L 303.905946 295.488 
L 304.230633 295.488 
L 304.263101 295.329416 
L 304.328039 295.408708 
L 304.457913 295.488 
L 305.204694 295.408708 
L 305.237162 295.329416 
L 305.269631 295.488 
L 305.3021 294.774372 
L 305.367037 295.408708 
L 305.496912 295.488 
L 305.529381 295.408708 
L 305.594318 295.488 
L 305.951474 295.408708 
L 305.983942 293.505699 
L 306.016411 295.488 
L 306.04888 295.488 
L 306.146286 295.488 
L 306.178755 295.170832 
L 306.243692 295.488 
L 306.763191 295.408708 
L 306.79566 295.250124 
L 306.828129 295.329416 
L 306.958003 295.488 
L 307.380097 295.408708 
L 307.477503 295.329416 
L 307.574909 295.488 
L 307.607377 295.329416 
L 307.672315 295.488 
L 308.159345 295.488 
L 308.191814 295.329416 
L 308.256751 295.488 
L 308.516501 295.488 
L 308.54897 277.052602 
L 308.613907 295.488 
L 308.743782 295.408708 
L 308.873657 295.488 
L 308.906126 295.250124 
L 308.971063 295.488 
L 309.003532 295.488 
L 309.036 292.712779 
L 309.100938 294.853664 
L 309.230813 295.488 
L 309.360687 295.09154 
L 309.490562 295.488 
L 309.685374 295.488 
L 309.815249 294.69508 
L 309.945124 295.488 
L 309.977593 294.219327 
L 310.04253 295.488 
L 310.269811 295.488 
L 310.30228 295.329416 
L 310.367217 295.488 
L 310.432154 295.408708 
L 310.464623 295.250124 
L 310.497092 295.408708 
L 310.626967 295.488 
L 311.016591 295.408708 
L 311.04906 295.329416 
L 311.081529 295.488 
L 311.113997 295.488 
L 311.146466 295.329416 
L 311.211403 295.408708 
L 311.341278 295.488 
L 311.503622 295.408708 
L 311.53609 295.329416 
L 311.568559 295.488 
L 311.601028 295.488 
L 311.730903 295.329416 
L 311.860777 295.488 
L 312.477683 295.488 
L 312.510151 295.250124 
L 312.575089 295.488 
L 312.607557 295.408708 
L 312.672495 295.488 
L 312.867307 295.488 
L 312.964713 295.170832 
L 313.094588 295.488 
L 313.191994 295.329416 
L 313.321869 295.488 
L 313.484212 295.408708 
L 313.516681 295.329416 
L 313.54915 295.488 
L 313.581619 295.408708 
L 316.731083 295.408708 
L 316.79602 295.488 
L 316.860957 294.219327 
L 316.990832 295.488 
L 317.218113 295.488 
L 317.250582 295.329416 
L 317.315519 295.488 
L 317.380457 295.488 
L 317.412925 295.329416 
L 317.477863 295.488 
L 317.607738 295.408708 
L 317.737612 295.488 
L 318.062299 295.408708 
L 318.127237 295.329416 
L 318.159705 295.408708 
L 318.224643 295.329416 
L 318.28958 295.488 
L 318.386986 295.408708 
L 318.516861 295.488 
L 318.54933 295.408708 
L 318.614267 295.488 
L 318.711673 295.488 
L 318.809079 294.853664 
L 318.938954 295.488 
L 319.393516 295.488 
L 319.425985 295.329416 
L 319.490922 295.488 
L 319.718203 295.488 
L 319.848078 295.329416 
L 319.977953 295.488 
L 320.010421 295.408708 
L 320.075359 295.488 
L 320.432515 295.488 
L 320.464983 295.329416 
L 320.529921 295.488 
L 320.822139 295.488 
L 320.854608 295.329416 
L 320.919545 295.488 
L 320.952014 295.488 
L 320.984482 295.329416 
L 321.04942 295.488 
L 321.341638 295.488 
L 321.374107 295.329416 
L 321.439044 295.488 
L 321.568919 295.329416 
L 321.731263 295.488 
L 321.926075 295.408708 
L 321.958543 295.329416 
L 322.023481 295.408708 
L 322.05595 295.488 
L 322.120887 295.408708 
L 323.094948 295.488 
L 323.127417 294.338265 
L 323.192354 295.488 
L 323.224823 295.329416 
L 323.28976 295.488 
L 323.744322 295.488 
L 323.776791 295.329416 
L 323.841728 295.488 
L 323.971603 295.488 
L 324.004072 295.329416 
L 324.069009 295.488 
L 324.328759 295.408708 
L 324.361227 295.250124 
L 324.393696 295.488 
L 324.458633 295.408708 
L 324.491102 295.329416 
L 324.523571 295.488 
L 324.55604 295.488 
L 324.588508 295.329416 
L 324.653446 295.488 
L 324.783321 295.488 
L 325.497632 295.408708 
L 325.530101 295.170832 
L 325.595038 295.488 
L 325.952194 295.488 
L 325.984662 295.329416 
L 326.0496 295.408708 
L 326.179475 295.488 
L 326.211943 295.250124 
L 326.276881 295.488 
L 328.095128 295.408708 
L 328.127597 295.329416 
L 328.160065 295.488 
L 329.004252 295.488 
L 329.03672 295.329416 
L 329.101658 295.488 
L 329.458814 295.488 
L 329.55622 295.329416 
L 329.718563 295.488 
L 329.751032 295.408708 
L 329.815969 295.488 
L 330.335468 295.488 
L 330.367937 295.170832 
L 330.432875 295.488 
L 330.530281 295.488 
L 330.562749 295.250124 
L 330.627687 295.488 
L 330.725093 295.488 
L 330.757562 295.329416 
L 330.822499 295.488 
L 331.244592 295.488 
L 331.277061 295.329416 
L 331.341998 295.408708 
L 331.439404 295.488 
L 331.471873 295.250124 
L 331.53681 295.408708 
L 331.569279 295.488 
L 331.601748 295.250124 
L 331.666685 295.408708 
L 331.731623 295.488 
L 331.764091 295.408708 
L 332.673215 295.488 
L 332.705684 295.051894 
L 332.770621 295.488 
L 332.900496 295.408708 
L 332.932965 295.250124 
L 332.965433 295.408708 
L 333.062839 295.488 
L 333.160245 295.408708 
L 333.29012 295.488 
L 333.419995 295.488 
L 333.452464 295.250124 
L 333.517401 295.488 
L 333.712213 295.488 
L 333.744682 295.329416 
L 333.80962 295.408708 
L 334.458994 295.488 
L 334.491462 295.28977 
L 334.5564 295.488 
L 334.686274 295.408708 
L 334.816149 295.488 
L 334.946024 295.408708 
L 335.108368 295.329416 
L 335.140836 295.250124 
L 335.238242 295.488 
L 335.270711 292.792071 
L 335.335648 295.408708 
L 337.868207 295.488 
L 337.900676 294.774372 
L 337.965613 295.329416 
L 338.127957 295.488 
L 338.192894 295.408708 
L 338.225363 295.329416 
L 338.257832 295.488 
L 338.582519 295.488 
L 338.614987 295.329416 
L 338.679925 295.488 
L 340.563109 295.408708 
L 340.595578 295.250124 
L 340.660516 295.329416 
L 340.79039 295.488 
L 340.855328 295.488 
L 340.920265 295.329416 
L 340.952734 295.488 
L 341.212483 295.408708 
L 341.244952 295.329416 
L 341.30989 295.408708 
L 341.374827 295.369062 
L 341.439764 295.488 
L 341.667045 295.488 
L 341.699514 294.576142 
L 341.764451 295.488 
L 341.894326 295.408708 
L 341.926795 295.250124 
L 341.959264 295.408708 
L 342.089138 295.488 
L 342.186544 295.488 
L 342.219013 295.329416 
L 342.283951 295.488 
L 342.868387 295.488 
L 342.900856 295.329416 
L 342.965793 295.488 
L 342.998262 295.488 
L 343.030731 295.329416 
L 343.095668 295.488 
L 343.193074 295.488 
L 343.225543 295.250124 
L 343.29048 295.488 
L 343.322949 295.488 
L 343.355418 295.170832 
L 343.420355 295.488 
L 343.712573 295.488 
L 343.745042 295.329416 
L 343.80998 295.488 
L 343.842448 295.488 
L 343.874917 295.250124 
L 343.939854 295.488 
L 344.232073 295.488 
L 344.264541 295.329416 
L 344.329479 295.488 
L 344.459354 295.250124 
L 344.55676 295.488 
L 344.589228 295.408708 
L 344.621697 295.329416 
L 344.654166 295.488 
L 345.368477 295.488 
L 345.400946 295.170832 
L 345.465883 295.488 
L 345.595758 295.408708 
L 346.634757 295.408708 
L 346.667225 295.250124 
L 346.699694 295.488 
L 346.732163 295.408708 
L 348.485473 295.488 
L 348.517941 294.536496 
L 348.582879 295.488 
L 349.03744 295.488 
L 349.069909 295.369062 
L 349.134847 295.488 
L 349.459534 295.488 
L 349.492002 295.329416 
L 349.55694 295.408708 
L 349.686814 295.488 
L 349.751752 295.408708 
L 349.784221 295.369062 
L 349.816689 295.488 
L 349.914095 295.488 
L 349.946564 295.329416 
L 350.011502 295.488 
L 350.401126 295.488 
L 350.433595 295.329416 
L 350.498532 295.488 
L 350.595938 295.488 
L 350.628407 292.554195 
L 350.693344 295.408708 
L 352.414185 295.488 
L 352.446654 292.474903 
L 352.511592 295.488 
L 353.745402 295.488 
L 353.875277 295.329416 
L 354.005152 295.488 
L 354.524651 295.488 
L 354.622057 295.329416 
L 354.686995 295.488 
L 354.719463 295.408708 
L 357.024741 295.408708 
L 357.05721 295.250124 
L 357.089678 295.408708 
L 357.154616 295.488 
L 357.187085 295.329416 
L 357.252022 295.488 
L 357.349428 295.408708 
L 357.381897 295.329416 
L 357.414365 295.488 
L 357.54424 295.488 
L 357.674115 295.329416 
L 357.80399 295.488 
L 357.868927 295.329416 
L 357.901396 295.488 
L 358.420895 295.488 
L 358.453364 295.250124 
L 358.518301 295.488 
L 359.265081 295.488 
L 359.29755 295.250124 
L 359.362488 295.488 
L 359.492362 295.408708 
L 359.589768 295.488 
L 359.687175 295.408708 
L 359.817049 295.488 
L 360.726173 295.488 
L 360.758642 295.329416 
L 360.823579 295.488 
L 360.856048 295.488 
L 360.953454 295.329416 
L 361.083329 295.488 
L 361.148266 295.329416 
L 361.180735 295.488 
L 362.511952 295.488 
L 362.54442 295.09154 
L 362.609358 295.488 
L 363.226263 295.488 
L 363.258732 295.329416 
L 363.323669 295.488 
L 363.356138 295.408708 
L 363.421075 295.488 
L 363.713294 295.488 
L 363.745762 295.329416 
L 363.8107 295.488 
L 365.174385 295.408708 
L 365.206854 295.329416 
L 365.239322 295.408708 
L 365.369197 295.488 
L 366.375727 295.488 
L 366.408196 295.329416 
L 366.473133 295.488 
L 366.635477 295.488 
L 366.667945 295.329416 
L 366.732883 295.408708 
L 369.525191 295.488 
L 369.55766 295.250124 
L 369.622597 295.488 
L 369.784941 295.488 
L 369.914815 295.250124 
L 370.04469 295.488 
L 370.694064 295.408708 
L 370.726533 295.329416 
L 370.759002 295.408708 
L 370.888877 295.488 
L 371.733063 295.408708 
L 371.765531 295.369062 
L 371.798 295.488 
L 372.220093 295.488 
L 372.252562 295.09154 
L 372.317499 295.408708 
L 372.382437 295.329416 
L 372.447374 295.488 
L 372.54478 295.408708 
L 372.609718 295.329416 
L 372.674655 295.488 
L 372.80453 295.408708 
L 374.200684 295.408708 
L 374.233153 295.250124 
L 374.29809 295.408708 
L 374.427965 295.488 
L 374.622777 295.488 
L 374.655246 295.329416 
L 374.720183 295.369062 
L 374.850058 295.488 
L 374.882527 295.488 
L 374.914995 295.250124 
L 374.979933 295.488 
L 375.142276 295.488 
L 375.207214 295.329416 
L 375.239683 295.448354 
L 375.272151 295.488 
L 375.30462 295.329416 
L 375.369557 295.488 
L 375.56437 295.488 
L 375.596838 295.329416 
L 375.661776 295.408708 
L 375.759182 295.488 
L 375.79165 295.369062 
L 375.856588 295.488 
L 376.376087 295.488 
L 376.408556 295.329416 
L 376.473493 295.488 
L 376.765711 295.408708 
L 376.79818 295.250124 
L 376.830649 295.488 
L 376.960524 295.488 
L 376.992992 295.329416 
L 377.05793 295.488 
L 379.006052 295.408708 
L 379.038521 295.250124 
L 379.070989 295.408708 
L 379.135927 295.329416 
L 379.200864 295.488 
L 379.428145 295.488 
L 379.460614 295.250124 
L 379.525551 295.329416 
L 379.622957 295.488 
L 379.655426 295.250124 
L 379.720363 295.488 
L 379.817769 295.408708 
L 379.850238 295.329416 
L 379.882707 295.488 
L 379.915176 295.408708 
L 380.04505 295.488 
L 380.109988 295.488 
L 380.142456 295.170832 
L 380.239863 295.250124 
L 380.3048 295.488 
L 380.337269 295.408708 
L 380.369737 295.250124 
L 380.402206 295.408708 
L 380.532081 295.488 
L 380.56455 295.488 
L 380.597018 295.250124 
L 380.661956 295.488 
L 380.856768 295.488 
L 380.889237 295.250124 
L 380.954174 295.488 
L 381.116517 295.488 
L 381.148986 295.329416 
L 381.213924 295.408708 
L 381.278861 295.329416 
L 381.343798 295.488 
L 381.668485 295.488 
L 381.700954 295.329416 
L 381.765891 295.488 
L 381.863298 295.408708 
L 381.895766 295.329416 
L 381.928235 295.488 
L 382.675015 295.488 
L 382.707484 295.329416 
L 382.772421 295.488 
L 382.80489 295.488 
L 382.837359 295.329416 
L 382.902296 295.488 
L 383.55167 295.488 
L 383.681545 295.250124 
L 383.81142 295.488 
L 385.207574 295.488 
L 385.272511 295.250124 
L 385.30498 295.488 
L 385.337449 295.408708 
L 385.402386 295.488 
L 385.56473 295.488 
L 385.662136 295.329416 
L 385.79201 295.488 
L 385.921885 295.329416 
L 386.084229 295.488 
L 386.895946 295.408708 
L 386.960884 295.488 
L 386.993352 295.250124 
L 387.123227 295.488 
L 387.220633 295.488 
L 387.285571 295.329416 
L 387.318039 295.488 
L 387.480383 295.408708 
L 387.577789 295.488 
L 387.675195 295.408708 
L 387.80507 295.488 
L 387.902476 295.408708 
L 387.999882 295.488 
L 388.097288 295.408708 
L 388.162226 295.329416 
L 388.227163 295.488 
L 388.486913 295.488 
L 388.584319 294.536496 
L 388.616787 295.329416 
L 388.746662 295.488 
L 388.779131 295.448354 
L 388.941475 295.488 
L 389.103818 295.488 
L 389.136287 295.329416 
L 389.201224 295.488 
L 390.207754 295.488 
L 390.240223 295.250124 
L 390.337629 295.329416 
L 390.467503 295.488 
L 390.662316 295.488 
L 390.694784 295.329416 
L 390.759722 295.488 
L 390.79219 295.408708 
L 390.857128 295.448354 
L 390.954534 295.488 
L 391.019471 295.329416 
L 391.05194 295.488 
L 391.084409 293.981451 
L 391.149346 295.488 
L 391.246752 295.408708 
L 391.279221 295.250124 
L 391.31169 295.488 
L 391.474033 295.488 
L 391.603908 295.28977 
L 391.79872 295.488 
L 391.831189 295.329416 
L 391.896126 295.488 
L 392.642906 295.408708 
L 392.675375 295.329416 
L 392.707844 295.488 
L 392.967593 295.408708 
L 393.000062 295.250124 
L 393.065 295.408708 
L 393.194874 295.488 
L 393.227343 295.329416 
L 393.292281 295.488 
L 393.422155 295.408708 
L 393.454624 295.329416 
L 393.487093 295.488 
L 393.519561 295.488 
L 393.55203 295.329416 
L 393.616968 295.488 
L 393.681905 295.408708 
L 393.714374 295.329416 
L 393.746842 295.488 
L 394.818309 295.488 
L 394.850778 295.329416 
L 394.915716 295.488 
L 395.04559 295.408708 
L 395.078059 295.329416 
L 395.110528 295.488 
L 395.142996 295.408708 
L 395.272871 295.488 
L 395.500152 295.488 
L 395.532621 295.250124 
L 395.597558 295.488 
L 395.630027 295.488 
L 395.727433 295.329416 
L 395.824839 295.488 
L 395.857308 295.408708 
L 395.922245 295.488 
L 397.285931 295.488 
L 397.318399 295.329416 
L 397.383337 295.488 
L 397.415806 295.488 
L 397.448274 295.329416 
L 397.513212 295.488 
L 397.80543 295.488 
L 397.935305 295.329416 
L 398.097648 295.488 
L 398.227523 295.329416 
L 398.357398 295.488 
L 398.487273 295.488 
L 398.487273 295.488 
" style="fill:none;stroke:#1f77b4;stroke-linecap:square;stroke-width:1.5;"/>
   </g>
   <g id="patch_3">
    <path d="M 57.6 307.584 
L 57.6 41.472 
" style="fill:none;stroke:#000000;stroke-linecap:square;stroke-linejoin:miter;stroke-width:0.8;"/>
   </g>
   <g id="patch_4">
    <path d="M 414.72 307.584 
L 414.72 41.472 
" style="fill:none;stroke:#000000;stroke-linecap:square;stroke-linejoin:miter;stroke-width:0.8;"/>
   </g>
   <g id="patch_5">
    <path d="M 57.6 307.584 
L 414.72 307.584 
" style="fill:none;stroke:#000000;stroke-linecap:square;stroke-linejoin:miter;stroke-width:0.8;"/>
   </g>
   <g id="patch_6">
    <path d="M 57.6 41.472 
L 414.72 41.472 
" style="fill:none;stroke:#000000;stroke-linecap:square;stroke-linejoin:miter;stroke-width:0.8;"/>
   </g>
   <g id="text_16">
    <!-- Difference in return from optimum for DQN agent -->
    <g transform="translate(87.615938 35.472)scale(0.12 -0.12)">
     <defs>
      <path d="M 3328 2828 
Q 3544 3216 3844 3400 
Q 4144 3584 4550 3584 
Q 5097 3584 5394 3201 
Q 5691 2819 5691 2113 
L 5691 0 
L 5113 0 
L 5113 2094 
Q 5113 2597 4934 2840 
Q 4756 3084 4391 3084 
Q 3944 3084 3684 2787 
Q 3425 2491 3425 1978 
L 3425 0 
L 2847 0 
L 2847 2094 
Q 2847 2600 2669 2842 
Q 2491 3084 2119 3084 
Q 1678 3084 1418 2786 
Q 1159 2488 1159 1978 
L 1159 0 
L 581 0 
L 581 3500 
L 1159 3500 
L 1159 2956 
Q 1356 3278 1631 3431 
Q 1906 3584 2284 3584 
Q 2666 3584 2933 3390 
Q 3200 3197 3328 2828 
z
" id="DejaVuSans-6d" transform="scale(0.015625)"/>
      <path d="M 2522 4238 
Q 1834 4238 1429 3725 
Q 1025 3213 1025 2328 
Q 1025 1447 1429 934 
Q 1834 422 2522 422 
Q 3209 422 3611 934 
Q 4013 1447 4013 2328 
Q 4013 3213 3611 3725 
Q 3209 4238 2522 4238 
z
M 3406 84 
L 4238 -825 
L 3475 -825 
L 2784 -78 
Q 2681 -84 2626 -87 
Q 2572 -91 2522 -91 
Q 1538 -91 948 567 
Q 359 1225 359 2328 
Q 359 3434 948 4092 
Q 1538 4750 2522 4750 
Q 3503 4750 4090 4092 
Q 4678 3434 4678 2328 
Q 4678 1516 4351 937 
Q 4025 359 3406 84 
z
" id="DejaVuSans-51" transform="scale(0.015625)"/>
      <path d="M 628 4666 
L 1478 4666 
L 3547 763 
L 3547 4666 
L 4159 4666 
L 4159 0 
L 3309 0 
L 1241 3903 
L 1241 0 
L 628 0 
L 628 4666 
z
" id="DejaVuSans-4e" transform="scale(0.015625)"/>
      <path d="M 2194 1759 
Q 1497 1759 1228 1600 
Q 959 1441 959 1056 
Q 959 750 1161 570 
Q 1363 391 1709 391 
Q 2188 391 2477 730 
Q 2766 1069 2766 1631 
L 2766 1759 
L 2194 1759 
z
M 3341 1997 
L 3341 0 
L 2766 0 
L 2766 531 
Q 2569 213 2275 61 
Q 1981 -91 1556 -91 
Q 1019 -91 701 211 
Q 384 513 384 1019 
Q 384 1609 779 1909 
Q 1175 2209 1959 2209 
L 2766 2209 
L 2766 2266 
Q 2766 2663 2505 2880 
Q 2244 3097 1772 3097 
Q 1472 3097 1187 3025 
Q 903 2953 641 2809 
L 641 3341 
Q 956 3463 1253 3523 
Q 1550 3584 1831 3584 
Q 2591 3584 2966 3190 
Q 3341 2797 3341 1997 
z
" id="DejaVuSans-61" transform="scale(0.015625)"/>
      <path d="M 2906 1791 
Q 2906 2416 2648 2759 
Q 2391 3103 1925 3103 
Q 1463 3103 1205 2759 
Q 947 2416 947 1791 
Q 947 1169 1205 825 
Q 1463 481 1925 481 
Q 2391 481 2648 825 
Q 2906 1169 2906 1791 
z
M 3481 434 
Q 3481 -459 3084 -895 
Q 2688 -1331 1869 -1331 
Q 1566 -1331 1297 -1286 
Q 1028 -1241 775 -1147 
L 775 -588 
Q 1028 -725 1275 -790 
Q 1522 -856 1778 -856 
Q 2344 -856 2625 -561 
Q 2906 -266 2906 331 
L 2906 616 
Q 2728 306 2450 153 
Q 2172 0 1784 0 
Q 1141 0 747 490 
Q 353 981 353 1791 
Q 353 2603 747 3093 
Q 1141 3584 1784 3584 
Q 2172 3584 2450 3431 
Q 2728 3278 2906 2969 
L 2906 3500 
L 3481 3500 
L 3481 434 
z
" id="DejaVuSans-67" transform="scale(0.015625)"/>
     </defs>
     <use xlink:href="#DejaVuSans-44"/>
     <use x="77.001953" xlink:href="#DejaVuSans-69"/>
     <use x="104.785156" xlink:href="#DejaVuSans-66"/>
     <use x="139.990234" xlink:href="#DejaVuSans-66"/>
     <use x="175.195312" xlink:href="#DejaVuSans-65"/>
     <use x="236.71875" xlink:href="#DejaVuSans-72"/>
     <use x="275.582031" xlink:href="#DejaVuSans-65"/>
     <use x="337.105469" xlink:href="#DejaVuSans-6e"/>
     <use x="400.484375" xlink:href="#DejaVuSans-63"/>
     <use x="455.464844" xlink:href="#DejaVuSans-65"/>
     <use x="516.988281" xlink:href="#DejaVuSans-20"/>
     <use x="548.775391" xlink:href="#DejaVuSans-69"/>
     <use x="576.558594" xlink:href="#DejaVuSans-6e"/>
     <use x="639.9375" xlink:href="#DejaVuSans-20"/>
     <use x="671.724609" xlink:href="#DejaVuSans-72"/>
     <use x="710.587891" xlink:href="#DejaVuSans-65"/>
     <use x="772.111328" xlink:href="#DejaVuSans-74"/>
     <use x="811.320312" xlink:href="#DejaVuSans-75"/>
     <use x="874.699219" xlink:href="#DejaVuSans-72"/>
     <use x="914.0625" xlink:href="#DejaVuSans-6e"/>
     <use x="977.441406" xlink:href="#DejaVuSans-20"/>
     <use x="1009.228516" xlink:href="#DejaVuSans-66"/>
     <use x="1044.433594" xlink:href="#DejaVuSans-72"/>
     <use x="1083.296875" xlink:href="#DejaVuSans-6f"/>
     <use x="1144.478516" xlink:href="#DejaVuSans-6d"/>
     <use x="1241.890625" xlink:href="#DejaVuSans-20"/>
     <use x="1273.677734" xlink:href="#DejaVuSans-6f"/>
     <use x="1334.859375" xlink:href="#DejaVuSans-70"/>
     <use x="1398.335938" xlink:href="#DejaVuSans-74"/>
     <use x="1437.544922" xlink:href="#DejaVuSans-69"/>
     <use x="1465.328125" xlink:href="#DejaVuSans-6d"/>
     <use x="1562.740234" xlink:href="#DejaVuSans-75"/>
     <use x="1626.119141" xlink:href="#DejaVuSans-6d"/>
     <use x="1723.53125" xlink:href="#DejaVuSans-20"/>
     <use x="1755.318359" xlink:href="#DejaVuSans-66"/>
     <use x="1790.523438" xlink:href="#DejaVuSans-6f"/>
     <use x="1851.705078" xlink:href="#DejaVuSans-72"/>
     <use x="1892.818359" xlink:href="#DejaVuSans-20"/>
     <use x="1924.605469" xlink:href="#DejaVuSans-44"/>
     <use x="2001.607422" xlink:href="#DejaVuSans-51"/>
     <use x="2080.318359" xlink:href="#DejaVuSans-4e"/>
     <use x="2155.123047" xlink:href="#DejaVuSans-20"/>
     <use x="2186.910156" xlink:href="#DejaVuSans-61"/>
     <use x="2248.189453" xlink:href="#DejaVuSans-67"/>
     <use x="2311.666016" xlink:href="#DejaVuSans-65"/>
     <use x="2373.189453" xlink:href="#DejaVuSans-6e"/>
     <use x="2436.568359" xlink:href="#DejaVuSans-74"/>
    </g>
   </g>
  </g>
 </g>
 <defs>
  <clipPath id="peacd2c2f92">
   <rect height="266.112" width="357.12" x="57.6" y="41.472"/>
  </clipPath>
 </defs>
</svg>
