<?xml version="1.0" encoding="utf-8" standalone="no"?>
<!DOCTYPE svg PUBLIC "-//W3C//DTD SVG 1.1//EN"
  "http://www.w3.org/Graphics/SVG/1.1/DTD/svg11.dtd">
<svg height="345.6pt" version="1.1" viewBox="0 0 460.8 345.6" width="460.8pt" xmlns="http://www.w3.org/2000/svg" xmlns:xlink="http://www.w3.org/1999/xlink">
 <metadata>
  <rdf:RDF xmlns:cc="http://creativecommons.org/ns#" xmlns:dc="http://purl.org/dc/elements/1.1/" xmlns:rdf="http://www.w3.org/1999/02/22-rdf-syntax-ns#">
   <cc:Work>
    <dc:type rdf:resource="http://purl.org/dc/dcmitype/StillImage"/>
    <dc:date>2022-05-22T15:03:49.407575</dc:date>
    <dc:format>image/svg+xml</dc:format>
    <dc:creator>
     <cc:Agent>
      <dc:title>Matplotlib v3.4.3, https://matplotlib.org/</dc:title>
     </cc:Agent>
    </dc:creator>
   </cc:Work>
  </rdf:RDF>
 </metadata>
 <defs>
  <style type="text/css">*{stroke-linecap:butt;stroke-linejoin:round;}</style>
 </defs>
 <g id="figure_1">
  <g id="patch_1">
   <path d="M 0 345.6 
L 460.8 345.6 
L 460.8 0 
L 0 0 
z
" style="fill:#ffffff;"/>
  </g>
  <g id="axes_1">
   <g id="patch_2">
    <path d="M 57.6 307.584 
L 414.72 307.584 
L 414.72 41.472 
L 57.6 41.472 
z
" style="fill:#ffffff;"/>
   </g>
   <g id="matplotlib.axis_1">
    <g id="xtick_1">
     <g id="line2d_1">
      <defs>
       <path d="M 0 0 
L 0 3.5 
" id="mafde60a5ca" style="stroke:#000000;stroke-width:0.8;"/>
      </defs>
      <g>
       <use style="stroke:#000000;stroke-width:0.8;" x="73.832727" xlink:href="#mafde60a5ca" y="307.584"/>
      </g>
     </g>
     <g id="text_1">
      <!-- 0 -->
      <g transform="translate(70.651477 322.182437)scale(0.1 -0.1)">
       <defs>
        <path d="M 2034 4250 
Q 1547 4250 1301 3770 
Q 1056 3291 1056 2328 
Q 1056 1369 1301 889 
Q 1547 409 2034 409 
Q 2525 409 2770 889 
Q 3016 1369 3016 2328 
Q 3016 3291 2770 3770 
Q 2525 4250 2034 4250 
z
M 2034 4750 
Q 2819 4750 3233 4129 
Q 3647 3509 3647 2328 
Q 3647 1150 3233 529 
Q 2819 -91 2034 -91 
Q 1250 -91 836 529 
Q 422 1150 422 2328 
Q 422 3509 836 4129 
Q 1250 4750 2034 4750 
z
" id="DejaVuSans-30" transform="scale(0.015625)"/>
       </defs>
       <use xlink:href="#DejaVuSans-30"/>
      </g>
     </g>
    </g>
    <g id="xtick_2">
     <g id="line2d_2">
      <g>
       <use style="stroke:#000000;stroke-width:0.8;" x="138.77013" xlink:href="#mafde60a5ca" y="307.584"/>
      </g>
     </g>
     <g id="text_2">
      <!-- 2000 -->
      <g transform="translate(126.04513 322.182437)scale(0.1 -0.1)">
       <defs>
        <path d="M 1228 531 
L 3431 531 
L 3431 0 
L 469 0 
L 469 531 
Q 828 903 1448 1529 
Q 2069 2156 2228 2338 
Q 2531 2678 2651 2914 
Q 2772 3150 2772 3378 
Q 2772 3750 2511 3984 
Q 2250 4219 1831 4219 
Q 1534 4219 1204 4116 
Q 875 4013 500 3803 
L 500 4441 
Q 881 4594 1212 4672 
Q 1544 4750 1819 4750 
Q 2544 4750 2975 4387 
Q 3406 4025 3406 3419 
Q 3406 3131 3298 2873 
Q 3191 2616 2906 2266 
Q 2828 2175 2409 1742 
Q 1991 1309 1228 531 
z
" id="DejaVuSans-32" transform="scale(0.015625)"/>
       </defs>
       <use xlink:href="#DejaVuSans-32"/>
       <use x="63.623047" xlink:href="#DejaVuSans-30"/>
       <use x="127.246094" xlink:href="#DejaVuSans-30"/>
       <use x="190.869141" xlink:href="#DejaVuSans-30"/>
      </g>
     </g>
    </g>
    <g id="xtick_3">
     <g id="line2d_3">
      <g>
       <use style="stroke:#000000;stroke-width:0.8;" x="203.707533" xlink:href="#mafde60a5ca" y="307.584"/>
      </g>
     </g>
     <g id="text_3">
      <!-- 4000 -->
      <g transform="translate(190.982533 322.182437)scale(0.1 -0.1)">
       <defs>
        <path d="M 2419 4116 
L 825 1625 
L 2419 1625 
L 2419 4116 
z
M 2253 4666 
L 3047 4666 
L 3047 1625 
L 3713 1625 
L 3713 1100 
L 3047 1100 
L 3047 0 
L 2419 0 
L 2419 1100 
L 313 1100 
L 313 1709 
L 2253 4666 
z
" id="DejaVuSans-34" transform="scale(0.015625)"/>
       </defs>
       <use xlink:href="#DejaVuSans-34"/>
       <use x="63.623047" xlink:href="#DejaVuSans-30"/>
       <use x="127.246094" xlink:href="#DejaVuSans-30"/>
       <use x="190.869141" xlink:href="#DejaVuSans-30"/>
      </g>
     </g>
    </g>
    <g id="xtick_4">
     <g id="line2d_4">
      <g>
       <use style="stroke:#000000;stroke-width:0.8;" x="268.644936" xlink:href="#mafde60a5ca" y="307.584"/>
      </g>
     </g>
     <g id="text_4">
      <!-- 6000 -->
      <g transform="translate(255.919936 322.182437)scale(0.1 -0.1)">
       <defs>
        <path d="M 2113 2584 
Q 1688 2584 1439 2293 
Q 1191 2003 1191 1497 
Q 1191 994 1439 701 
Q 1688 409 2113 409 
Q 2538 409 2786 701 
Q 3034 994 3034 1497 
Q 3034 2003 2786 2293 
Q 2538 2584 2113 2584 
z
M 3366 4563 
L 3366 3988 
Q 3128 4100 2886 4159 
Q 2644 4219 2406 4219 
Q 1781 4219 1451 3797 
Q 1122 3375 1075 2522 
Q 1259 2794 1537 2939 
Q 1816 3084 2150 3084 
Q 2853 3084 3261 2657 
Q 3669 2231 3669 1497 
Q 3669 778 3244 343 
Q 2819 -91 2113 -91 
Q 1303 -91 875 529 
Q 447 1150 447 2328 
Q 447 3434 972 4092 
Q 1497 4750 2381 4750 
Q 2619 4750 2861 4703 
Q 3103 4656 3366 4563 
z
" id="DejaVuSans-36" transform="scale(0.015625)"/>
       </defs>
       <use xlink:href="#DejaVuSans-36"/>
       <use x="63.623047" xlink:href="#DejaVuSans-30"/>
       <use x="127.246094" xlink:href="#DejaVuSans-30"/>
       <use x="190.869141" xlink:href="#DejaVuSans-30"/>
      </g>
     </g>
    </g>
    <g id="xtick_5">
     <g id="line2d_5">
      <g>
       <use style="stroke:#000000;stroke-width:0.8;" x="333.582339" xlink:href="#mafde60a5ca" y="307.584"/>
      </g>
     </g>
     <g id="text_5">
      <!-- 8000 -->
      <g transform="translate(320.857339 322.182437)scale(0.1 -0.1)">
       <defs>
        <path d="M 2034 2216 
Q 1584 2216 1326 1975 
Q 1069 1734 1069 1313 
Q 1069 891 1326 650 
Q 1584 409 2034 409 
Q 2484 409 2743 651 
Q 3003 894 3003 1313 
Q 3003 1734 2745 1975 
Q 2488 2216 2034 2216 
z
M 1403 2484 
Q 997 2584 770 2862 
Q 544 3141 544 3541 
Q 544 4100 942 4425 
Q 1341 4750 2034 4750 
Q 2731 4750 3128 4425 
Q 3525 4100 3525 3541 
Q 3525 3141 3298 2862 
Q 3072 2584 2669 2484 
Q 3125 2378 3379 2068 
Q 3634 1759 3634 1313 
Q 3634 634 3220 271 
Q 2806 -91 2034 -91 
Q 1263 -91 848 271 
Q 434 634 434 1313 
Q 434 1759 690 2068 
Q 947 2378 1403 2484 
z
M 1172 3481 
Q 1172 3119 1398 2916 
Q 1625 2713 2034 2713 
Q 2441 2713 2670 2916 
Q 2900 3119 2900 3481 
Q 2900 3844 2670 4047 
Q 2441 4250 2034 4250 
Q 1625 4250 1398 4047 
Q 1172 3844 1172 3481 
z
" id="DejaVuSans-38" transform="scale(0.015625)"/>
       </defs>
       <use xlink:href="#DejaVuSans-38"/>
       <use x="63.623047" xlink:href="#DejaVuSans-30"/>
       <use x="127.246094" xlink:href="#DejaVuSans-30"/>
       <use x="190.869141" xlink:href="#DejaVuSans-30"/>
      </g>
     </g>
    </g>
    <g id="xtick_6">
     <g id="line2d_6">
      <g>
       <use style="stroke:#000000;stroke-width:0.8;" x="398.519741" xlink:href="#mafde60a5ca" y="307.584"/>
      </g>
     </g>
     <g id="text_6">
      <!-- 10000 -->
      <g transform="translate(382.613491 322.182437)scale(0.1 -0.1)">
       <defs>
        <path d="M 794 531 
L 1825 531 
L 1825 4091 
L 703 3866 
L 703 4441 
L 1819 4666 
L 2450 4666 
L 2450 531 
L 3481 531 
L 3481 0 
L 794 0 
L 794 531 
z
" id="DejaVuSans-31" transform="scale(0.015625)"/>
       </defs>
       <use xlink:href="#DejaVuSans-31"/>
       <use x="63.623047" xlink:href="#DejaVuSans-30"/>
       <use x="127.246094" xlink:href="#DejaVuSans-30"/>
       <use x="190.869141" xlink:href="#DejaVuSans-30"/>
       <use x="254.492188" xlink:href="#DejaVuSans-30"/>
      </g>
     </g>
    </g>
    <g id="text_7">
     <!-- Episode -->
     <g transform="translate(216.5225 335.860562)scale(0.1 -0.1)">
      <defs>
       <path d="M 628 4666 
L 3578 4666 
L 3578 4134 
L 1259 4134 
L 1259 2753 
L 3481 2753 
L 3481 2222 
L 1259 2222 
L 1259 531 
L 3634 531 
L 3634 0 
L 628 0 
L 628 4666 
z
" id="DejaVuSans-45" transform="scale(0.015625)"/>
       <path d="M 1159 525 
L 1159 -1331 
L 581 -1331 
L 581 3500 
L 1159 3500 
L 1159 2969 
Q 1341 3281 1617 3432 
Q 1894 3584 2278 3584 
Q 2916 3584 3314 3078 
Q 3713 2572 3713 1747 
Q 3713 922 3314 415 
Q 2916 -91 2278 -91 
Q 1894 -91 1617 61 
Q 1341 213 1159 525 
z
M 3116 1747 
Q 3116 2381 2855 2742 
Q 2594 3103 2138 3103 
Q 1681 3103 1420 2742 
Q 1159 2381 1159 1747 
Q 1159 1113 1420 752 
Q 1681 391 2138 391 
Q 2594 391 2855 752 
Q 3116 1113 3116 1747 
z
" id="DejaVuSans-70" transform="scale(0.015625)"/>
       <path d="M 603 3500 
L 1178 3500 
L 1178 0 
L 603 0 
L 603 3500 
z
M 603 4863 
L 1178 4863 
L 1178 4134 
L 603 4134 
L 603 4863 
z
" id="DejaVuSans-69" transform="scale(0.015625)"/>
       <path d="M 2834 3397 
L 2834 2853 
Q 2591 2978 2328 3040 
Q 2066 3103 1784 3103 
Q 1356 3103 1142 2972 
Q 928 2841 928 2578 
Q 928 2378 1081 2264 
Q 1234 2150 1697 2047 
L 1894 2003 
Q 2506 1872 2764 1633 
Q 3022 1394 3022 966 
Q 3022 478 2636 193 
Q 2250 -91 1575 -91 
Q 1294 -91 989 -36 
Q 684 19 347 128 
L 347 722 
Q 666 556 975 473 
Q 1284 391 1588 391 
Q 1994 391 2212 530 
Q 2431 669 2431 922 
Q 2431 1156 2273 1281 
Q 2116 1406 1581 1522 
L 1381 1569 
Q 847 1681 609 1914 
Q 372 2147 372 2553 
Q 372 3047 722 3315 
Q 1072 3584 1716 3584 
Q 2034 3584 2315 3537 
Q 2597 3491 2834 3397 
z
" id="DejaVuSans-73" transform="scale(0.015625)"/>
       <path d="M 1959 3097 
Q 1497 3097 1228 2736 
Q 959 2375 959 1747 
Q 959 1119 1226 758 
Q 1494 397 1959 397 
Q 2419 397 2687 759 
Q 2956 1122 2956 1747 
Q 2956 2369 2687 2733 
Q 2419 3097 1959 3097 
z
M 1959 3584 
Q 2709 3584 3137 3096 
Q 3566 2609 3566 1747 
Q 3566 888 3137 398 
Q 2709 -91 1959 -91 
Q 1206 -91 779 398 
Q 353 888 353 1747 
Q 353 2609 779 3096 
Q 1206 3584 1959 3584 
z
" id="DejaVuSans-6f" transform="scale(0.015625)"/>
       <path d="M 2906 2969 
L 2906 4863 
L 3481 4863 
L 3481 0 
L 2906 0 
L 2906 525 
Q 2725 213 2448 61 
Q 2172 -91 1784 -91 
Q 1150 -91 751 415 
Q 353 922 353 1747 
Q 353 2572 751 3078 
Q 1150 3584 1784 3584 
Q 2172 3584 2448 3432 
Q 2725 3281 2906 2969 
z
M 947 1747 
Q 947 1113 1208 752 
Q 1469 391 1925 391 
Q 2381 391 2643 752 
Q 2906 1113 2906 1747 
Q 2906 2381 2643 2742 
Q 2381 3103 1925 3103 
Q 1469 3103 1208 2742 
Q 947 2381 947 1747 
z
" id="DejaVuSans-64" transform="scale(0.015625)"/>
       <path d="M 3597 1894 
L 3597 1613 
L 953 1613 
Q 991 1019 1311 708 
Q 1631 397 2203 397 
Q 2534 397 2845 478 
Q 3156 559 3463 722 
L 3463 178 
Q 3153 47 2828 -22 
Q 2503 -91 2169 -91 
Q 1331 -91 842 396 
Q 353 884 353 1716 
Q 353 2575 817 3079 
Q 1281 3584 2069 3584 
Q 2775 3584 3186 3129 
Q 3597 2675 3597 1894 
z
M 3022 2063 
Q 3016 2534 2758 2815 
Q 2500 3097 2075 3097 
Q 1594 3097 1305 2825 
Q 1016 2553 972 2059 
L 3022 2063 
z
" id="DejaVuSans-65" transform="scale(0.015625)"/>
      </defs>
      <use xlink:href="#DejaVuSans-45"/>
      <use x="63.183594" xlink:href="#DejaVuSans-70"/>
      <use x="126.660156" xlink:href="#DejaVuSans-69"/>
      <use x="154.443359" xlink:href="#DejaVuSans-73"/>
      <use x="206.542969" xlink:href="#DejaVuSans-6f"/>
      <use x="267.724609" xlink:href="#DejaVuSans-64"/>
      <use x="331.201172" xlink:href="#DejaVuSans-65"/>
     </g>
    </g>
   </g>
   <g id="matplotlib.axis_2">
    <g id="ytick_1">
     <g id="line2d_7">
      <defs>
       <path d="M 0 0 
L -3.5 0 
" id="mb6930c275c" style="stroke:#000000;stroke-width:0.8;"/>
      </defs>
      <g>
       <use style="stroke:#000000;stroke-width:0.8;" x="57.6" xlink:href="#mb6930c275c" y="295.488"/>
      </g>
     </g>
     <g id="text_8">
      <!-- 0 -->
      <g transform="translate(44.2375 299.287219)scale(0.1 -0.1)">
       <use xlink:href="#DejaVuSans-30"/>
      </g>
     </g>
    </g>
    <g id="ytick_2">
     <g id="line2d_8">
      <g>
       <use style="stroke:#000000;stroke-width:0.8;" x="57.6" xlink:href="#mb6930c275c" y="259.103581"/>
      </g>
     </g>
     <g id="text_9">
      <!-- 1000 -->
      <g transform="translate(25.15 262.9028)scale(0.1 -0.1)">
       <use xlink:href="#DejaVuSans-31"/>
       <use x="63.623047" xlink:href="#DejaVuSans-30"/>
       <use x="127.246094" xlink:href="#DejaVuSans-30"/>
       <use x="190.869141" xlink:href="#DejaVuSans-30"/>
      </g>
     </g>
    </g>
    <g id="ytick_3">
     <g id="line2d_9">
      <g>
       <use style="stroke:#000000;stroke-width:0.8;" x="57.6" xlink:href="#mb6930c275c" y="222.719163"/>
      </g>
     </g>
     <g id="text_10">
      <!-- 2000 -->
      <g transform="translate(25.15 226.518381)scale(0.1 -0.1)">
       <use xlink:href="#DejaVuSans-32"/>
       <use x="63.623047" xlink:href="#DejaVuSans-30"/>
       <use x="127.246094" xlink:href="#DejaVuSans-30"/>
       <use x="190.869141" xlink:href="#DejaVuSans-30"/>
      </g>
     </g>
    </g>
    <g id="ytick_4">
     <g id="line2d_10">
      <g>
       <use style="stroke:#000000;stroke-width:0.8;" x="57.6" xlink:href="#mb6930c275c" y="186.334744"/>
      </g>
     </g>
     <g id="text_11">
      <!-- 3000 -->
      <g transform="translate(25.15 190.133963)scale(0.1 -0.1)">
       <defs>
        <path d="M 2597 2516 
Q 3050 2419 3304 2112 
Q 3559 1806 3559 1356 
Q 3559 666 3084 287 
Q 2609 -91 1734 -91 
Q 1441 -91 1130 -33 
Q 819 25 488 141 
L 488 750 
Q 750 597 1062 519 
Q 1375 441 1716 441 
Q 2309 441 2620 675 
Q 2931 909 2931 1356 
Q 2931 1769 2642 2001 
Q 2353 2234 1838 2234 
L 1294 2234 
L 1294 2753 
L 1863 2753 
Q 2328 2753 2575 2939 
Q 2822 3125 2822 3475 
Q 2822 3834 2567 4026 
Q 2313 4219 1838 4219 
Q 1578 4219 1281 4162 
Q 984 4106 628 3988 
L 628 4550 
Q 988 4650 1302 4700 
Q 1616 4750 1894 4750 
Q 2613 4750 3031 4423 
Q 3450 4097 3450 3541 
Q 3450 3153 3228 2886 
Q 3006 2619 2597 2516 
z
" id="DejaVuSans-33" transform="scale(0.015625)"/>
       </defs>
       <use xlink:href="#DejaVuSans-33"/>
       <use x="63.623047" xlink:href="#DejaVuSans-30"/>
       <use x="127.246094" xlink:href="#DejaVuSans-30"/>
       <use x="190.869141" xlink:href="#DejaVuSans-30"/>
      </g>
     </g>
    </g>
    <g id="ytick_5">
     <g id="line2d_11">
      <g>
       <use style="stroke:#000000;stroke-width:0.8;" x="57.6" xlink:href="#mb6930c275c" y="149.950325"/>
      </g>
     </g>
     <g id="text_12">
      <!-- 4000 -->
      <g transform="translate(25.15 153.749544)scale(0.1 -0.1)">
       <use xlink:href="#DejaVuSans-34"/>
       <use x="63.623047" xlink:href="#DejaVuSans-30"/>
       <use x="127.246094" xlink:href="#DejaVuSans-30"/>
       <use x="190.869141" xlink:href="#DejaVuSans-30"/>
      </g>
     </g>
    </g>
    <g id="ytick_6">
     <g id="line2d_12">
      <g>
       <use style="stroke:#000000;stroke-width:0.8;" x="57.6" xlink:href="#mb6930c275c" y="113.565906"/>
      </g>
     </g>
     <g id="text_13">
      <!-- 5000 -->
      <g transform="translate(25.15 117.365125)scale(0.1 -0.1)">
       <defs>
        <path d="M 691 4666 
L 3169 4666 
L 3169 4134 
L 1269 4134 
L 1269 2991 
Q 1406 3038 1543 3061 
Q 1681 3084 1819 3084 
Q 2600 3084 3056 2656 
Q 3513 2228 3513 1497 
Q 3513 744 3044 326 
Q 2575 -91 1722 -91 
Q 1428 -91 1123 -41 
Q 819 9 494 109 
L 494 744 
Q 775 591 1075 516 
Q 1375 441 1709 441 
Q 2250 441 2565 725 
Q 2881 1009 2881 1497 
Q 2881 1984 2565 2268 
Q 2250 2553 1709 2553 
Q 1456 2553 1204 2497 
Q 953 2441 691 2322 
L 691 4666 
z
" id="DejaVuSans-35" transform="scale(0.015625)"/>
       </defs>
       <use xlink:href="#DejaVuSans-35"/>
       <use x="63.623047" xlink:href="#DejaVuSans-30"/>
       <use x="127.246094" xlink:href="#DejaVuSans-30"/>
       <use x="190.869141" xlink:href="#DejaVuSans-30"/>
      </g>
     </g>
    </g>
    <g id="ytick_7">
     <g id="line2d_13">
      <g>
       <use style="stroke:#000000;stroke-width:0.8;" x="57.6" xlink:href="#mb6930c275c" y="77.181488"/>
      </g>
     </g>
     <g id="text_14">
      <!-- 6000 -->
      <g transform="translate(25.15 80.980706)scale(0.1 -0.1)">
       <use xlink:href="#DejaVuSans-36"/>
       <use x="63.623047" xlink:href="#DejaVuSans-30"/>
       <use x="127.246094" xlink:href="#DejaVuSans-30"/>
       <use x="190.869141" xlink:href="#DejaVuSans-30"/>
      </g>
     </g>
    </g>
    <g id="text_15">
     <!-- Difference in return -->
     <g transform="translate(19.070312 223.399094)rotate(-90)scale(0.1 -0.1)">
      <defs>
       <path d="M 1259 4147 
L 1259 519 
L 2022 519 
Q 2988 519 3436 956 
Q 3884 1394 3884 2338 
Q 3884 3275 3436 3711 
Q 2988 4147 2022 4147 
L 1259 4147 
z
M 628 4666 
L 1925 4666 
Q 3281 4666 3915 4102 
Q 4550 3538 4550 2338 
Q 4550 1131 3912 565 
Q 3275 0 1925 0 
L 628 0 
L 628 4666 
z
" id="DejaVuSans-44" transform="scale(0.015625)"/>
       <path d="M 2375 4863 
L 2375 4384 
L 1825 4384 
Q 1516 4384 1395 4259 
Q 1275 4134 1275 3809 
L 1275 3500 
L 2222 3500 
L 2222 3053 
L 1275 3053 
L 1275 0 
L 697 0 
L 697 3053 
L 147 3053 
L 147 3500 
L 697 3500 
L 697 3744 
Q 697 4328 969 4595 
Q 1241 4863 1831 4863 
L 2375 4863 
z
" id="DejaVuSans-66" transform="scale(0.015625)"/>
       <path d="M 2631 2963 
Q 2534 3019 2420 3045 
Q 2306 3072 2169 3072 
Q 1681 3072 1420 2755 
Q 1159 2438 1159 1844 
L 1159 0 
L 581 0 
L 581 3500 
L 1159 3500 
L 1159 2956 
Q 1341 3275 1631 3429 
Q 1922 3584 2338 3584 
Q 2397 3584 2469 3576 
Q 2541 3569 2628 3553 
L 2631 2963 
z
" id="DejaVuSans-72" transform="scale(0.015625)"/>
       <path d="M 3513 2113 
L 3513 0 
L 2938 0 
L 2938 2094 
Q 2938 2591 2744 2837 
Q 2550 3084 2163 3084 
Q 1697 3084 1428 2787 
Q 1159 2491 1159 1978 
L 1159 0 
L 581 0 
L 581 3500 
L 1159 3500 
L 1159 2956 
Q 1366 3272 1645 3428 
Q 1925 3584 2291 3584 
Q 2894 3584 3203 3211 
Q 3513 2838 3513 2113 
z
" id="DejaVuSans-6e" transform="scale(0.015625)"/>
       <path d="M 3122 3366 
L 3122 2828 
Q 2878 2963 2633 3030 
Q 2388 3097 2138 3097 
Q 1578 3097 1268 2742 
Q 959 2388 959 1747 
Q 959 1106 1268 751 
Q 1578 397 2138 397 
Q 2388 397 2633 464 
Q 2878 531 3122 666 
L 3122 134 
Q 2881 22 2623 -34 
Q 2366 -91 2075 -91 
Q 1284 -91 818 406 
Q 353 903 353 1747 
Q 353 2603 823 3093 
Q 1294 3584 2113 3584 
Q 2378 3584 2631 3529 
Q 2884 3475 3122 3366 
z
" id="DejaVuSans-63" transform="scale(0.015625)"/>
       <path id="DejaVuSans-20" transform="scale(0.015625)"/>
       <path d="M 1172 4494 
L 1172 3500 
L 2356 3500 
L 2356 3053 
L 1172 3053 
L 1172 1153 
Q 1172 725 1289 603 
Q 1406 481 1766 481 
L 2356 481 
L 2356 0 
L 1766 0 
Q 1100 0 847 248 
Q 594 497 594 1153 
L 594 3053 
L 172 3053 
L 172 3500 
L 594 3500 
L 594 4494 
L 1172 4494 
z
" id="DejaVuSans-74" transform="scale(0.015625)"/>
       <path d="M 544 1381 
L 544 3500 
L 1119 3500 
L 1119 1403 
Q 1119 906 1312 657 
Q 1506 409 1894 409 
Q 2359 409 2629 706 
Q 2900 1003 2900 1516 
L 2900 3500 
L 3475 3500 
L 3475 0 
L 2900 0 
L 2900 538 
Q 2691 219 2414 64 
Q 2138 -91 1772 -91 
Q 1169 -91 856 284 
Q 544 659 544 1381 
z
M 1991 3584 
L 1991 3584 
z
" id="DejaVuSans-75" transform="scale(0.015625)"/>
      </defs>
      <use xlink:href="#DejaVuSans-44"/>
      <use x="77.001953" xlink:href="#DejaVuSans-69"/>
      <use x="104.785156" xlink:href="#DejaVuSans-66"/>
      <use x="139.990234" xlink:href="#DejaVuSans-66"/>
      <use x="175.195312" xlink:href="#DejaVuSans-65"/>
      <use x="236.71875" xlink:href="#DejaVuSans-72"/>
      <use x="275.582031" xlink:href="#DejaVuSans-65"/>
      <use x="337.105469" xlink:href="#DejaVuSans-6e"/>
      <use x="400.484375" xlink:href="#DejaVuSans-63"/>
      <use x="455.464844" xlink:href="#DejaVuSans-65"/>
      <use x="516.988281" xlink:href="#DejaVuSans-20"/>
      <use x="548.775391" xlink:href="#DejaVuSans-69"/>
      <use x="576.558594" xlink:href="#DejaVuSans-6e"/>
      <use x="639.9375" xlink:href="#DejaVuSans-20"/>
      <use x="671.724609" xlink:href="#DejaVuSans-72"/>
      <use x="710.587891" xlink:href="#DejaVuSans-65"/>
      <use x="772.111328" xlink:href="#DejaVuSans-74"/>
      <use x="811.320312" xlink:href="#DejaVuSans-75"/>
      <use x="874.699219" xlink:href="#DejaVuSans-72"/>
      <use x="914.0625" xlink:href="#DejaVuSans-6e"/>
     </g>
    </g>
   </g>
   <g id="line2d_14">
    <path clip-path="url(#pb5ec6837e3)" d="M 73.832727 258.776122 
L 73.865196 181.204541 
L 73.897665 292.722784 
L 73.930133 288.866036 
L 73.962602 290.212259 
L 74.027539 246.951185 
L 74.060008 263.033099 
L 74.157414 294.032623 
L 74.222352 258.339508 
L 74.25482 291.485714 
L 74.287289 287.99281 
L 74.319758 270.855749 
L 74.384695 290.430566 
L 74.417164 287.774503 
L 74.51457 211.294455 
L 74.547039 271.001286 
L 74.579507 268.527146 
L 74.644445 285.918898 
L 74.77432 53.568 
L 74.806788 295.342462 
L 74.904194 264.597629 
L 74.936663 279.806316 
L 74.969132 262.560101 
L 75.001601 201.834506 
L 75.034069 288.793267 
L 75.066538 288.866036 
L 75.163944 239.16492 
L 75.196413 295.015003 
L 75.26135 216.715733 
L 75.293819 219.15349 
L 75.326288 292.431709 
L 75.423694 269.254834 
L 75.456162 265.725545 
L 75.488631 216.715733 
L 75.5211 281.843843 
L 75.553568 242.29398 
L 75.650975 275.112726 
L 75.715912 230.068815 
L 75.748381 294.396467 
L 75.813318 268.017764 
L 75.845787 256.010906 
L 75.910724 262.232641 
L 75.943193 286.064436 
L 75.975662 208.747546 
L 76.040599 280.133775 
L 76.073068 293.996239 
L 76.138005 240.802219 
L 76.170474 294.542005 
L 76.300349 264.1974 
L 76.332817 290.103106 
L 76.365286 216.242736 
L 76.462692 237.891465 
L 76.495161 292.213402 
L 76.560098 219.444565 
L 76.625036 257.793742 
L 76.689973 253.755072 
L 76.75491 161.556955 
L 76.787379 219.117105 
L 76.852317 287.228737 
L 76.884785 202.271119 
L 76.917254 178.839554 
L 76.982191 294.105392 
L 77.047129 270.746595 
L 77.177004 295.488 
L 77.241941 288.938805 
L 77.27441 295.488 
L 77.306878 295.488 
L 77.339347 295.342462 
L 77.404284 295.488 
L 77.501691 295.488 
L 77.566628 283.29922 
L 77.599097 295.488 
L 77.631565 295.488 
L 77.664034 272.311125 
L 77.728971 287.628966 
L 77.826378 295.488 
L 77.858846 295.342462 
L 77.891315 295.488 
L 77.923784 293.92347 
L 77.988721 294.83308 
L 78.086127 295.488 
L 78.118596 258.958044 
L 78.183533 295.488 
L 78.216002 290.903563 
L 78.280939 295.488 
L 78.313408 295.488 
L 78.378345 295.342462 
L 78.410814 295.415231 
L 78.443283 295.488 
L 78.475752 292.795553 
L 78.50822 295.488 
L 78.540689 146.311883 
L 78.605626 295.378847 
L 78.638095 295.269693 
L 78.670564 282.462378 
L 78.735501 295.488 
L 78.962782 295.488 
L 78.995251 294.760312 
L 79.060188 295.488 
L 79.125126 287.046815 
L 79.157594 295.415231 
L 79.190063 294.978618 
L 79.222532 245.932422 
L 79.255 295.488 
L 79.287469 289.120727 
L 79.417344 295.488 
L 79.482281 292.868322 
L 79.51475 295.415231 
L 79.547219 295.488 
L 79.612156 294.542005 
L 79.644625 295.488 
L 79.806968 295.415231 
L 79.871906 295.488 
L 79.936843 295.269693 
L 80.034249 295.488 
L 80.066718 295.415231 
L 80.196593 291.340176 
L 80.229061 295.488 
L 80.326468 294.905849 
L 80.358936 294.978618 
L 80.423874 295.488 
L 80.488811 289.666493 
L 80.52128 295.488 
L 80.553748 295.415231 
L 80.586217 293.086628 
L 80.651155 295.488 
L 80.813498 295.451616 
L 80.878435 295.488 
L 80.943373 293.01386 
L 81.00831 291.12187 
L 81.040779 295.488 
L 81.073248 293.959854 
L 81.138185 295.488 
L 81.170654 295.488 
L 81.26806 292.504478 
L 81.300529 295.488 
L 81.397935 295.415231 
L 81.52781 295.488 
L 81.560278 295.488 
L 81.690153 293.523241 
L 81.820028 295.488 
L 81.852497 295.415231 
L 81.884965 295.488 
L 81.917434 290.321413 
L 81.982371 295.342462 
L 82.112246 295.488 
L 82.209652 295.488 
L 82.242121 290.758026 
L 82.307058 295.378847 
L 82.371996 295.488 
L 82.404464 284.609059 
L 82.501871 286.75574 
L 82.631745 295.488 
L 82.696683 283.62668 
L 82.729151 295.488 
L 82.859026 295.415231 
L 82.891495 283.371989 
L 82.956432 294.83308 
L 83.02137 295.415231 
L 83.086307 289.993953 
L 83.118776 295.415231 
L 83.183713 295.488 
L 83.216182 295.342462 
L 83.248651 267.617535 
L 83.281119 295.488 
L 83.313588 295.488 
L 83.410994 295.488 
L 83.443463 293.814317 
L 83.5084 295.488 
L 83.638275 295.488 
L 83.670744 294.25093 
L 83.735681 295.488 
L 83.76815 295.488 
L 83.800619 295.342462 
L 83.865556 295.415231 
L 83.898025 295.488 
L 83.930493 295.415231 
L 83.962962 295.124156 
L 83.995431 295.488 
L 84.0279 295.488 
L 84.222712 295.415231 
L 84.25518 294.651158 
L 84.287649 295.488 
L 84.320118 288.211116 
L 84.385055 295.415231 
L 84.417524 295.488 
L 84.449993 295.415231 
L 84.482461 293.741548 
L 84.51493 295.488 
L 84.547399 295.488 
L 84.677274 295.488 
L 84.709742 291.340176 
L 84.77468 295.342462 
L 84.807148 295.488 
L 84.872086 293.668779 
L 84.904554 295.415231 
L 85.034429 295.488 
L 85.066898 295.342462 
L 85.131835 295.415231 
L 85.164304 295.488 
L 85.196773 293.086628 
L 85.26171 295.415231 
L 85.294179 295.488 
L 85.326648 295.342462 
L 85.359116 295.415231 
L 85.391585 295.415231 
L 85.424054 294.614774 
L 85.456522 295.488 
L 85.488991 295.488 
L 85.52146 295.488 
L 85.553928 295.342462 
L 85.651335 295.415231 
L 85.748741 295.488 
L 85.781209 292.868322 
L 85.846147 295.488 
L 85.943553 295.488 
L 85.976022 294.469236 
L 86.040959 295.488 
L 86.365646 295.488 
L 86.398115 295.342462 
L 86.463052 295.415231 
L 86.495521 292.067865 
L 86.52799 295.488 
L 86.592927 292.650015 
L 86.690333 295.488 
L 86.722802 295.342462 
L 86.885145 295.488 
L 87.339707 295.488 
L 87.372176 292.795553 
L 87.437113 295.488 
L 87.534519 295.415231 
L 87.664394 295.488 
L 87.826738 295.415231 
L 87.859206 294.614774 
L 87.891675 295.488 
L 87.924144 295.415231 
L 88.086487 295.488 
L 88.118956 287.556197 
L 88.183893 295.488 
L 88.443643 295.488 
L 88.476112 295.196925 
L 88.541049 295.488 
L 88.995611 295.488 
L 89.02808 292.977475 
L 89.093017 295.342462 
L 89.222892 295.488 
L 89.547579 295.415231 
L 89.612516 295.488 
L 89.677454 295.233309 
L 89.709922 295.488 
L 89.742391 294.687543 
L 89.807328 295.488 
L 89.839797 295.415231 
L 89.904734 295.488 
L 90.164484 295.488 
L 90.196953 295.342462 
L 90.26189 295.488 
L 90.716452 295.488 
L 90.846327 295.342462 
L 90.976202 295.488 
L 91.106076 295.342462 
L 91.235951 295.488 
L 91.300889 295.415231 
L 91.333357 295.488 
L 91.398295 295.415231 
L 91.430763 295.196925 
L 91.463232 295.488 
L 91.495701 295.488 
L 91.75545 295.488 
L 91.787919 295.342462 
L 91.885325 295.415231 
L 91.982731 295.488 
L 92.0152 295.415231 
L 92.080137 295.488 
L 92.27495 295.415231 
L 92.307418 295.269693 
L 92.339887 295.488 
L 92.372356 295.415231 
L 92.599637 295.488 
L 92.632105 289.812031 
L 92.697043 295.488 
L 92.729511 295.488 
L 92.76198 290.939948 
L 92.826918 295.488 
L 92.859386 295.488 
L 92.891855 295.342462 
L 92.956792 295.488 
L 93.833447 295.488 
L 93.865916 295.269693 
L 93.930853 295.488 
L 94.25554 295.415231 
L 94.352947 294.760312 
L 94.417884 295.488 
L 94.450353 284.136061 
L 94.51529 295.196925 
L 94.645165 295.488 
L 94.77504 295.415231 
L 94.839977 295.342462 
L 94.904914 295.488 
L 94.969852 295.488 
L 95.002321 293.232166 
L 95.067258 295.488 
L 95.359476 295.488 
L 95.391945 291.558483 
L 95.456882 295.488 
L 95.554289 295.488 
L 95.586757 295.342462 
L 95.619226 294.069008 
L 95.651695 295.488 
L 95.684163 295.488 
L 95.749101 295.488 
L 95.814038 295.015003 
L 95.846507 295.488 
L 95.943913 295.488 
L 95.976382 294.069008 
L 96.041319 295.488 
L 96.171194 295.415231 
L 96.203663 295.488 
L 96.333537 293.523241 
L 96.430943 295.488 
L 96.463412 288.684114 
L 96.52835 295.415231 
L 96.658224 295.488 
L 96.723162 295.124156 
L 96.75563 295.488 
L 96.788099 294.83308 
L 96.853037 295.488 
L 96.950443 295.342462 
L 96.982911 295.415231 
L 97.080317 295.488 
L 97.112786 294.396467 
L 97.177724 295.488 
L 97.340067 295.488 
L 97.372536 295.342462 
L 97.437473 295.488 
L 97.469942 295.488 
L 97.502411 295.342462 
L 97.567348 295.488 
L 97.697223 295.415231 
L 97.76216 295.488 
L 97.794629 295.124156 
L 97.859566 295.488 
L 97.892035 294.032623 
L 97.956972 295.488 
L 98.216722 295.415231 
L 98.249191 295.342462 
L 98.281659 295.488 
L 98.314128 295.415231 
L 98.346597 295.488 
L 98.379066 292.431709 
L 98.444003 295.488 
L 98.995971 295.415231 
L 99.02844 294.032623 
L 99.093377 295.488 
L 99.223252 295.488 
L 99.25572 295.342462 
L 99.320658 295.488 
L 99.483001 295.488 
L 99.51547 295.342462 
L 99.580407 295.415231 
L 99.677814 295.488 
L 99.710282 295.415231 
L 99.77522 295.488 
L 99.807688 295.488 
L 99.840157 295.342462 
L 99.905095 295.415231 
L 99.970032 295.488 
L 100.002501 295.269693 
L 100.067438 295.488 
L 100.716812 295.415231 
L 100.749281 292.759169 
L 100.781749 295.488 
L 100.814218 295.488 
L 101.106436 295.488 
L 101.138905 295.269693 
L 101.203843 295.415231 
L 101.26878 295.488 
L 101.333717 295.451616 
L 101.431123 295.415231 
L 101.560998 295.488 
L 101.593467 295.488 
L 101.625936 294.178161 
L 101.690873 295.488 
L 101.950623 295.488 
L 101.983091 295.269693 
L 102.048029 295.415231 
L 102.112966 295.342462 
L 102.177904 295.488 
L 102.502591 295.488 
L 102.535059 295.269693 
L 102.599997 295.488 
L 102.632465 295.488 
L 102.664934 295.342462 
L 102.729872 295.488 
L 102.957152 295.488 
L 102.989621 295.342462 
L 103.054559 295.488 
L 103.411714 295.488 
L 103.444183 295.342462 
L 103.541589 295.415231 
L 103.606526 295.488 
L 103.638995 293.887086 
L 103.703933 295.342462 
L 103.736401 295.342462 
L 103.866276 295.488 
L 103.963682 295.415231 
L 104.093557 295.488 
L 104.126026 295.342462 
L 104.190963 295.415231 
L 104.223432 295.488 
L 104.2559 295.415231 
L 104.288369 294.396467 
L 104.320838 295.488 
L 104.353307 294.796696 
L 104.450713 295.488 
L 104.483181 295.415231 
L 104.613056 295.488 
L 104.645525 295.342462 
L 104.677994 295.415231 
L 104.710462 294.032623 
L 104.742931 295.488 
L 104.7754 295.488 
L 105.100087 295.415231 
L 105.132555 295.269693 
L 105.197493 295.488 
L 105.294899 295.415231 
L 105.327368 287.01043 
L 105.359836 295.488 
L 105.392305 295.488 
L 105.879336 295.488 
L 105.911804 295.342462 
L 105.976742 295.488 
L 106.074148 295.488 
L 106.106616 295.269693 
L 106.171554 295.488 
L 106.333897 295.488 
L 106.366366 294.032623 
L 106.431303 295.415231 
L 106.561178 295.488 
L 106.593647 295.415231 
L 106.658584 295.488 
L 106.885865 295.488 
L 106.983271 295.342462 
L 107.113146 295.488 
L 107.340427 295.488 
L 107.372896 295.342462 
L 107.470302 295.415231 
L 107.567708 295.488 
L 107.600177 295.415231 
L 107.665114 295.488 
L 107.794989 295.488 
L 107.827458 295.342462 
L 107.892395 295.488 
L 108.087207 295.415231 
L 108.119676 288.211116 
L 108.152145 295.488 
L 108.184613 295.415231 
L 108.314488 295.488 
L 108.411894 295.488 
L 108.444363 295.342462 
L 108.5093 295.415231 
L 108.541769 292.722784 
L 108.574238 295.488 
L 108.606706 295.488 
L 108.736581 295.488 
L 108.76905 295.124156 
L 108.833987 295.488 
L 109.0288 295.488 
L 109.061268 295.342462 
L 109.126206 295.488 
L 109.548299 295.488 
L 109.645705 295.342462 
L 109.678174 295.378847 
L 109.743111 295.488 
L 109.77558 295.415231 
L 113.574418 295.488 
L 113.606887 295.269693 
L 113.671824 295.488 
L 113.801699 295.488 
L 113.834167 295.342462 
L 113.899105 295.488 
L 114.158854 295.488 
L 114.191323 295.342462 
L 114.256261 295.488 
L 115.977102 295.488 
L 116.00957 295.342462 
L 116.074508 295.488 
L 116.366726 295.488 
L 116.496601 295.342462 
L 116.626476 295.488 
L 116.756351 295.342462 
L 116.886225 295.488 
L 117.048569 295.488 
L 117.081038 295.342462 
L 117.145975 295.488 
L 117.600537 295.488 
L 117.633005 295.342462 
L 117.697943 295.415231 
L 117.827818 295.488 
L 117.925224 295.488 
L 117.957692 295.342462 
L 118.02263 295.488 
L 118.639535 295.488 
L 118.704473 295.342462 
L 118.736941 295.488 
L 118.76941 295.488 
L 118.899285 292.722784 
L 119.02916 295.488 
L 119.094097 295.415231 
L 119.126566 295.488 
L 119.808408 295.488 
L 119.840877 291.049101 
L 119.905815 294.905849 
L 120.035689 295.488 
L 120.295439 295.488 
L 120.327908 295.342462 
L 120.425314 295.415231 
L 120.457783 293.814317 
L 120.490251 295.488 
L 120.52272 295.488 
L 120.977282 295.488 
L 121.00975 294.905849 
L 121.074688 295.415231 
L 121.204563 295.488 
L 121.301969 295.415231 
L 121.431844 295.488 
L 121.464312 295.415231 
L 121.52925 295.488 
L 121.691593 295.415231 
L 121.788999 295.488 
L 121.821468 295.269693 
L 121.951343 295.488 
L 122.503311 295.488 
L 122.535779 293.814317 
L 122.600717 295.488 
L 123.120216 295.488 
L 123.152685 293.741548 
L 123.217622 295.488 
L 124.646245 295.488 
L 124.678714 295.269693 
L 124.743651 295.488 
L 125.230682 295.488 
L 125.26315 295.342462 
L 125.328088 295.488 
L 125.490431 295.488 
L 125.5229 295.342462 
L 125.587837 295.488 
L 125.78265 295.415231 
L 125.815118 295.342462 
L 125.847587 295.488 
L 125.880056 295.488 
L 125.912524 293.59601 
L 125.977462 295.488 
L 126.919054 295.488 
L 126.951523 281.880227 
L 127.01646 295.269693 
L 127.113866 295.488 
L 127.146335 295.415231 
L 127.243741 295.488 
L 127.27621 295.196925 
L 127.341147 295.488 
L 127.730772 295.415231 
L 127.76324 294.105392 
L 127.828178 295.488 
L 128.639895 295.488 
L 128.704833 293.741548 
L 128.737301 295.415231 
L 128.76977 295.488 
L 128.802239 294.178161 
L 128.867176 295.488 
L 129.02952 295.488 
L 129.094457 295.124156 
L 129.159394 295.415231 
L 129.191863 295.342462 
L 129.224332 295.488 
L 130.100987 295.488 
L 130.133456 295.342462 
L 130.198393 295.488 
L 130.52308 295.488 
L 130.555549 295.342462 
L 130.620486 295.488 
L 130.750361 295.415231 
L 130.880236 295.488 
L 130.912704 295.488 
L 130.945173 295.124156 
L 131.01011 295.415231 
L 132.828358 295.415231 
L 132.860826 295.269693 
L 132.893295 295.488 
L 132.925764 295.488 
L 133.347857 295.488 
L 133.380326 295.233309 
L 133.445263 295.488 
L 133.607607 295.488 
L 133.640075 295.269693 
L 133.705013 295.488 
L 133.76995 295.415231 
L 133.802419 295.488 
L 134.159575 295.488 
L 134.192043 295.342462 
L 134.256981 295.488 
L 134.841417 295.488 
L 134.971292 295.342462 
L 135.133636 295.488 
L 135.295979 295.488 
L 135.328448 295.342462 
L 135.425854 295.415231 
L 135.490791 295.488 
L 135.620666 295.342462 
L 135.750541 295.488 
L 135.815478 295.488 
L 135.847947 295.269693 
L 135.912884 295.488 
L 137.01682 295.488 
L 137.049289 290.758026 
L 137.114226 295.488 
L 137.568788 295.488 
L 137.601257 287.556197 
L 137.666194 295.488 
L 137.958413 295.415231 
L 137.990881 295.342462 
L 138.02335 295.488 
L 138.055819 295.488 
L 138.088287 295.342462 
L 138.185693 295.415231 
L 138.315568 295.488 
L 138.412974 295.415231 
L 138.445443 294.105392 
L 138.51038 295.342462 
L 138.672724 295.488 
L 139.127286 295.488 
L 139.224692 295.342462 
L 139.322098 295.488 
L 139.354567 294.323699 
L 139.419504 295.488 
L 139.51691 295.342462 
L 139.646785 295.488 
L 139.971472 295.488 
L 140.003941 294.360083 
L 140.068878 295.488 
L 140.101347 295.488 
L 140.133816 295.269693 
L 140.198753 295.415231 
L 140.26369 295.488 
L 140.296159 295.415231 
L 140.653315 295.488 
L 140.685783 294.614774 
L 140.750721 295.488 
L 140.913064 295.488 
L 140.945533 295.342462 
L 141.010471 295.488 
L 141.140345 295.488 
L 141.172814 295.342462 
L 141.237751 295.488 
L 141.367626 295.488 
L 141.497501 295.124156 
L 141.52997 295.488 
L 141.562438 293.01386 
L 141.627376 295.488 
L 141.757251 295.269693 
L 141.789719 295.415231 
L 141.822188 291.558483 
L 141.854657 295.488 
L 141.887125 295.488 
L 141.919594 295.488 
L 141.952063 295.342462 
L 142.017 295.415231 
L 142.081938 295.488 
L 142.114406 295.415231 
L 142.179344 295.488 
L 142.211812 293.959854 
L 142.27675 295.415231 
L 142.406625 295.488 
L 142.536499 295.488 
L 142.568968 295.342462 
L 142.666374 295.415231 
L 142.893655 295.488 
L 142.926124 293.887086 
L 142.991061 295.415231 
L 143.055999 295.488 
L 143.088467 295.415231 
L 143.120936 294.396467 
L 143.185873 295.488 
L 143.218342 295.306078 
L 143.28328 295.488 
L 143.315748 295.488 
L 143.478092 295.196925 
L 143.607967 295.488 
L 143.640435 295.342462 
L 143.737841 295.415231 
L 143.802779 295.488 
L 143.835248 295.051387 
L 143.900185 295.415231 
L 143.932654 295.488 
L 143.965122 295.124156 
L 144.03006 295.269693 
L 144.094997 295.488 
L 144.159935 295.342462 
L 144.289809 295.488 
L 144.419684 295.415231 
L 144.549559 295.488 
L 144.582028 295.196925 
L 144.646965 295.488 
L 144.939183 295.415231 
L 144.971652 295.342462 
L 145.004121 295.488 
L 145.036589 294.105392 
L 145.101527 295.488 
L 145.133996 295.488 
L 145.166464 295.342462 
L 145.26387 295.415231 
L 145.361276 295.488 
L 145.393745 293.59601 
L 145.458683 295.488 
L 145.588557 295.415231 
L 146.595087 295.488 
L 146.627556 295.124156 
L 146.692493 295.488 
L 147.01718 295.488 
L 147.049649 289.739262 
L 147.114586 295.488 
L 147.147055 295.488 
L 147.179524 294.83308 
L 147.244461 295.488 
L 147.309399 295.488 
L 147.341867 295.342462 
L 147.406805 295.488 
L 147.439273 295.488 
L 147.471742 295.342462 
L 147.536679 295.415231 
L 147.666554 295.488 
L 148.121116 295.488 
L 148.153585 295.269693 
L 148.218522 295.488 
L 148.28346 295.415231 
L 148.315928 295.488 
L 148.348397 295.488 
L 148.380866 294.542005 
L 148.445803 295.488 
L 148.575678 295.451616 
L 148.608147 295.342462 
L 148.640615 295.488 
L 148.673084 295.415231 
L 148.77049 295.488 
L 148.867896 295.415231 
L 148.965302 295.488 
L 149.03024 295.415231 
L 149.062708 295.488 
L 149.712082 295.488 
L 149.744551 295.342462 
L 149.841957 295.415231 
L 149.971832 295.488 
L 150.101707 295.488 
L 150.134176 295.342462 
L 150.199113 295.488 
L 150.945893 295.488 
L 150.978362 295.342462 
L 151.043299 295.488 
L 151.075768 295.488 
L 151.140705 295.342462 
L 151.173174 295.488 
L 151.595267 295.488 
L 151.627736 295.342462 
L 151.692673 295.488 
L 151.757611 295.488 
L 151.790079 295.342462 
L 151.855017 295.488 
L 152.342047 295.415231 
L 152.374516 295.342462 
L 152.406985 295.415231 
L 152.53686 295.488 
L 152.699203 295.415231 
L 152.731672 295.196925 
L 152.796609 295.488 
L 152.926484 295.415231 
L 152.991421 295.488 
L 153.02389 295.342462 
L 153.088827 295.488 
L 153.510921 295.488 
L 153.543389 295.342462 
L 153.608327 295.488 
L 154.03042 295.488 
L 154.062888 295.196925 
L 154.127826 295.488 
L 154.290169 295.488 
L 154.322638 295.269693 
L 154.387575 295.488 
L 154.452513 295.415231 
L 154.484982 295.488 
L 154.972012 295.488 
L 155.069418 295.342462 
L 155.134356 295.124156 
L 155.199293 295.488 
L 155.621386 295.488 
L 155.686324 295.269693 
L 155.751261 295.415231 
L 158.251351 295.488 
L 158.28382 295.269693 
L 158.348757 295.415231 
L 158.478632 295.488 
L 158.511101 294.687543 
L 158.576038 295.488 
L 158.803319 295.488 
L 158.835788 295.306078 
L 158.900725 295.415231 
L 158.933194 295.488 
L 158.998131 295.415231 
L 159.550099 295.488 
L 159.582568 295.269693 
L 159.647505 295.488 
L 159.744911 295.415231 
L 159.77738 295.051387 
L 159.809849 295.488 
L 159.842317 295.415231 
L 160.199473 295.415231 
L 160.231942 295.269693 
L 160.26441 295.488 
L 160.296879 295.488 
L 160.329348 295.415231 
L 160.394285 295.488 
L 160.491691 295.488 
L 160.556629 294.978618 
L 160.589097 295.488 
L 160.621566 295.488 
L 160.751441 294.542005 
L 160.881316 295.488 
L 161.043659 295.488 
L 161.076128 295.342462 
L 161.108597 292.868322 
L 161.141065 295.488 
L 161.173534 295.488 
L 161.303409 295.415231 
L 161.335878 295.342462 
L 161.368346 295.415231 
L 161.498221 295.488 
L 161.822908 295.415231 
L 161.855377 295.269693 
L 161.887846 295.488 
L 161.920314 295.415231 
L 162.01772 295.488 
L 162.050189 295.196925 
L 162.115126 295.488 
L 162.27747 295.488 
L 162.309939 294.723927 
L 162.374876 295.488 
L 162.667094 295.488 
L 162.699563 295.051387 
L 162.7645 295.488 
L 162.894375 294.83308 
L 162.926844 295.488 
L 163.02425 295.415231 
L 163.056719 294.178161 
L 163.089187 295.488 
L 163.121656 295.488 
L 163.219062 295.124156 
L 163.348937 295.488 
L 163.446343 293.632395 
L 163.576218 295.488 
L 163.608687 295.488 
L 163.641155 295.342462 
L 163.706093 295.488 
L 164.160655 295.488 
L 164.193123 295.124156 
L 164.258061 295.488 
L 164.582748 295.488 
L 164.615216 295.342462 
L 164.680154 295.488 
L 165.102247 295.488 
L 165.134716 295.342462 
L 165.167184 295.488 
L 165.297059 285.627823 
L 165.426934 295.488 
L 165.913964 295.415231 
L 165.946433 295.196925 
L 165.978902 295.488 
L 166.011371 295.415231 
L 166.141245 295.488 
L 166.206183 295.488 
L 166.238652 295.269693 
L 166.303589 295.415231 
L 166.433464 295.488 
L 166.498401 295.342462 
L 166.53087 295.488 
L 166.758151 295.415231 
L 166.790619 295.342462 
L 166.823088 295.488 
L 166.855557 295.415231 
L 166.920494 295.488 
L 166.952963 293.887086 
L 167.0179 295.488 
L 167.27765 295.415231 
L 167.310119 294.105392 
L 167.342587 295.488 
L 167.375056 295.415231 
L 167.472462 295.488 
L 167.504931 295.415231 
L 167.569868 295.488 
L 167.602337 295.488 
L 167.667274 295.269693 
L 167.699743 295.488 
L 167.894555 295.488 
L 167.927024 295.342462 
L 167.991961 295.415231 
L 168.089367 295.488 
L 168.186774 295.415231 
L 168.316648 295.488 
L 168.349117 289.848415 
L 168.414054 294.760312 
L 168.543929 295.488 
L 168.576398 295.415231 
L 168.641335 295.488 
L 168.901085 295.488 
L 168.966022 294.83308 
L 168.998491 295.415231 
L 169.258241 295.415231 
L 169.290709 289.448186 
L 169.355647 295.488 
L 169.712803 295.488 
L 169.745271 289.593724 
L 169.810209 295.488 
L 169.842677 294.978618 
L 169.907615 295.488 
L 170.005021 295.415231 
L 170.134896 295.488 
L 171.595987 295.488 
L 171.628456 289.22988 
L 171.693393 295.488 
L 171.758331 295.415231 
L 171.790799 295.124156 
L 171.823268 295.488 
L 171.855737 295.342462 
L 171.985612 295.488 
L 172.01808 295.488 
L 172.050549 284.645443 
L 172.115486 295.488 
L 172.407705 295.415231 
L 172.440173 290.976332 
L 172.505111 295.488 
L 172.53758 295.342462 
L 172.602517 295.488 
L 172.634986 295.488 
L 172.667454 293.887086 
L 172.732392 295.488 
L 173.381766 295.488 
L 173.414235 295.342462 
L 173.511641 295.415231 
L 173.609047 295.488 
L 173.641515 295.415231 
L 173.706453 295.488 
L 174.128546 295.415231 
L 174.161015 295.342462 
L 174.193483 295.415231 
L 174.258421 295.488 
L 174.290889 295.342462 
L 174.355827 295.415231 
L 174.485702 295.488 
L 175.881856 295.415231 
L 175.914325 295.342462 
L 175.946793 295.415231 
L 175.979262 295.488 
L 176.011731 295.415231 
L 176.044199 295.342462 
L 176.076668 295.415231 
L 176.206543 295.488 
L 176.433824 295.451616 
L 176.466292 295.342462 
L 176.498761 295.488 
L 176.53123 295.488 
L 176.888386 295.488 
L 177.01826 295.342462 
L 177.148135 295.488 
L 177.700103 295.415231 
L 177.732572 295.306078 
L 177.765041 295.488 
L 177.797509 295.488 
L 177.829978 295.342462 
L 177.894915 295.488 
L 178.057259 295.415231 
L 178.089728 293.668779 
L 178.122196 295.488 
L 178.154665 295.488 
L 178.187134 295.342462 
L 178.252071 295.488 
L 178.868976 295.488 
L 178.901445 289.520955 
L 178.966382 295.488 
L 179.063789 295.415231 
L 179.096257 295.269693 
L 179.128726 295.488 
L 179.161195 295.415231 
L 179.258601 295.488 
L 179.388476 295.342462 
L 179.550819 295.488 
L 179.648225 295.488 
L 179.745631 295.269693 
L 179.810569 295.488 
L 179.875506 295.415231 
L 180.005381 295.488 
L 181.466472 295.488 
L 181.563879 295.342462 
L 181.693753 295.488 
L 182.310659 295.415231 
L 182.343127 295.342462 
L 182.375596 295.488 
L 182.408065 295.415231 
L 182.505471 295.488 
L 182.602877 295.415231 
L 182.635346 295.488 
L 182.667814 292.577247 
L 182.732752 295.415231 
L 182.765221 295.342462 
L 182.797689 295.488 
L 182.992501 295.488 
L 183.02497 294.978618 
L 183.089908 295.488 
L 183.122376 295.488 
L 183.154845 295.342462 
L 183.252251 295.415231 
L 183.479532 295.488 
L 183.512001 295.196925 
L 183.576938 295.488 
L 183.999031 295.488 
L 184.0315 295.342462 
L 184.128906 295.415231 
L 184.226312 295.415231 
L 184.258781 288.720498 
L 184.323718 295.488 
L 185.882216 295.488 
L 185.979622 295.269693 
L 186.012091 294.323699 
L 186.044559 295.488 
L 186.077028 295.415231 
L 186.206903 295.488 
L 186.239372 295.415231 
L 186.304309 295.488 
L 186.499121 295.488 
L 186.53159 295.342462 
L 186.596527 295.488 
L 187.408245 295.415231 
L 187.440714 295.342462 
L 187.473182 295.488 
L 187.505651 295.488 
L 187.53812 291.631252 
L 187.603057 295.342462 
L 187.732932 295.488 
L 187.765401 295.488 
L 187.797869 295.269693 
L 187.862807 295.488 
L 187.895275 293.741548 
L 187.960213 295.488 
L 188.090088 295.415231 
L 188.187494 295.488 
L 188.2849 295.415231 
L 188.414775 295.488 
L 188.674524 295.488 
L 188.77193 295.342462 
L 188.804399 295.378847 
L 189.03168 295.488 
L 189.388836 295.415231 
L 189.421304 293.159397 
L 189.486242 295.488 
L 189.616117 295.488 
L 189.713523 295.342462 
L 189.745991 295.415231 
L 189.875866 295.488 
L 190.395365 295.488 
L 190.427834 295.342462 
L 190.492771 295.415231 
L 190.622646 295.488 
L 190.687584 295.415231 
L 190.720052 295.488 
L 191.369426 295.488 
L 191.401895 295.342462 
L 191.466833 295.488 
L 192.375956 295.488 
L 192.408425 295.342462 
L 192.505831 295.415231 
L 192.5383 295.342462 
L 192.603237 295.415231 
L 192.635706 295.488 
L 192.700643 294.905849 
L 192.733112 295.488 
L 192.862987 295.415231 
L 192.895455 294.542005 
L 192.927924 295.488 
L 192.960393 295.488 
L 192.992861 295.488 
L 193.02533 294.83308 
L 193.090268 295.415231 
L 193.155205 295.342462 
L 193.220142 295.488 
L 193.317548 295.415231 
L 193.350017 295.342462 
L 193.382486 295.488 
L 193.901985 295.488 
L 193.934454 295.051387 
L 193.999391 295.488 
L 194.03186 295.342462 
L 194.096797 295.415231 
L 194.161735 295.342462 
L 194.226672 295.488 
L 194.29161 295.342462 
L 194.324078 295.488 
L 194.389016 295.488 
L 194.421484 295.269693 
L 194.486422 295.488 
L 194.583828 295.196925 
L 194.648765 295.488 
L 194.713703 295.415231 
L 194.843577 295.488 
L 194.940984 295.488 
L 194.973452 295.342462 
L 195.03839 295.488 
L 195.103327 295.488 
L 195.135796 294.978618 
L 195.200733 295.415231 
L 195.330608 295.488 
L 195.363077 287.265121 
L 195.428014 295.488 
L 195.460483 295.488 
L 195.492951 294.323699 
L 195.557889 295.488 
L 195.622826 295.488 
L 195.655295 295.16054 
L 195.720232 295.488 
L 195.850107 295.342462 
L 195.979982 295.488 
L 196.012451 295.342462 
L 196.077388 295.488 
L 197.148855 295.488 
L 197.181324 289.375418 
L 197.246261 295.488 
L 197.27873 295.415231 
L 197.343667 295.488 
L 198.220322 295.488 
L 198.252791 294.978618 
L 198.317729 295.488 
L 198.837228 295.488 
L 198.934634 295.342462 
L 199.064509 295.488 
L 199.194383 295.488 
L 199.226852 295.342462 
L 199.324258 295.415231 
L 199.454133 295.488 
L 199.51907 295.415231 
L 199.551539 295.196925 
L 199.584008 295.488 
L 199.616477 295.488 
L 199.648945 295.488 
L 199.746351 295.342462 
L 199.77882 295.415231 
L 199.876226 295.488 
L 199.908695 295.342462 
L 200.006101 295.415231 
L 200.03857 295.306078 
L 200.071038 295.488 
L 201.694473 295.488 
L 201.726942 295.342462 
L 201.79188 295.488 
L 201.824348 295.488 
L 201.954223 295.269693 
L 202.084098 295.488 
L 202.928284 295.488 
L 202.960753 295.342462 
L 203.02569 295.488 
L 203.090628 295.488 
L 203.123096 295.269693 
L 203.188034 295.415231 
L 203.317909 295.488 
L 203.350377 295.415231 
L 203.415315 295.488 
L 203.77247 295.488 
L 203.804939 294.687543 
L 203.869876 295.488 
L 203.967283 295.488 
L 203.999751 294.905849 
L 204.064689 295.415231 
L 204.194563 295.488 
L 204.779 295.488 
L 204.811469 291.12187 
L 204.876406 295.488 
L 204.973812 295.488 
L 205.006281 295.342462 
L 205.071218 295.415231 
L 205.168624 295.488 
L 205.298499 295.415231 
L 205.428374 295.488 
L 206.077748 295.488 
L 206.207623 295.269693 
L 206.369966 295.488 
L 206.467373 295.488 
L 206.499841 295.342462 
L 206.564779 295.488 
L 206.597247 295.488 
L 206.629716 293.377704 
L 206.694653 295.488 
L 207.181684 295.415231 
L 207.214153 295.269693 
L 207.27909 295.488 
L 207.311559 295.415231 
L 207.376496 295.488 
L 207.441434 295.488 
L 207.473902 294.614774 
L 207.53884 295.488 
L 207.571308 295.415231 
L 207.636246 295.488 
L 208.220682 295.488 
L 208.253151 295.342462 
L 208.318089 295.415231 
L 208.383026 295.488 
L 208.415495 295.415231 
L 208.642776 295.488 
L 208.675244 292.759169 
L 208.740182 295.488 
L 208.805119 295.488 
L 208.837588 295.269693 
L 208.902525 295.488 
L 209.616837 295.488 
L 209.649305 295.269693 
L 209.714243 295.488 
L 209.876586 295.415231 
L 209.909055 294.614774 
L 209.941524 295.488 
L 209.973992 295.415231 
L 210.103867 295.488 
L 210.136336 289.22988 
L 210.201273 295.488 
L 210.331148 295.124156 
L 210.461023 295.488 
L 210.52596 295.415231 
L 210.558429 294.032623 
L 210.590898 295.488 
L 210.623366 295.415231 
L 210.753241 295.488 
L 210.850647 295.196925 
L 210.980522 295.488 
L 211.53249 295.488 
L 211.564959 295.269693 
L 211.629896 295.415231 
L 211.727302 295.488 
L 211.759771 295.415231 
L 211.824708 295.488 
L 212.246801 295.488 
L 212.27927 295.051387 
L 212.344208 295.488 
L 212.831238 295.488 
L 212.863707 295.269693 
L 212.928644 295.415231 
L 213.090988 295.488 
L 213.123456 295.269693 
L 213.188394 295.415231 
L 213.318269 295.488 
L 213.480612 295.415231 
L 213.513081 295.269693 
L 213.545549 295.488 
L 213.578018 295.488 
L 213.610487 295.488 
L 213.642956 295.342462 
L 213.740362 295.415231 
L 213.870236 295.488 
L 214.000111 295.415231 
L 214.129986 295.488 
L 214.227392 295.415231 
L 214.259861 295.196925 
L 214.324798 295.488 
L 215.006641 295.415231 
L 215.03911 295.342462 
L 215.071578 295.488 
L 215.428734 295.415231 
L 215.461203 295.342462 
L 215.493672 295.488 
L 215.948233 295.488 
L 215.980702 295.342462 
L 216.078108 295.415231 
L 218.188574 295.415231 
L 218.221042 294.905849 
L 218.253511 295.488 
L 218.28598 295.488 
L 218.480792 295.415231 
L 218.513261 295.124156 
L 218.545729 295.488 
L 218.578198 295.488 
L 218.77301 295.488 
L 218.805479 295.269693 
L 218.870416 295.488 
L 218.967823 295.488 
L 219.000291 295.269693 
L 219.065229 295.488 
L 219.130166 295.415231 
L 219.162635 295.488 
L 219.844478 295.415231 
L 219.876946 295.269693 
L 219.941884 295.488 
L 220.03929 295.415231 
L 220.071758 293.777932 
L 220.104227 295.488 
L 220.136696 295.488 
L 220.201633 295.415231 
L 220.234102 295.269693 
L 220.266571 295.488 
L 220.299039 295.488 
L 220.331508 295.488 
L 220.396445 295.342462 
L 220.461383 295.415231 
L 220.591258 295.488 
L 220.623726 295.269693 
L 220.688664 295.488 
L 220.948413 295.488 
L 220.980882 295.342462 
L 221.045819 295.415231 
L 221.078288 290.539719 
L 221.110757 295.488 
L 221.143226 295.488 
L 221.240632 295.488 
L 221.2731 295.342462 
L 221.370507 295.415231 
L 221.500381 295.488 
L 222.182224 295.488 
L 222.214693 294.978618 
L 222.27963 295.488 
L 222.344568 295.415231 
L 222.377036 295.488 
L 222.441974 295.488 
L 222.474442 295.342462 
L 222.53938 295.488 
L 222.766661 295.415231 
L 222.864067 293.304935 
L 222.993942 295.488 
L 223.123816 295.415231 
L 223.221222 295.488 
L 223.253691 293.01386 
L 223.318629 295.488 
L 223.578378 295.415231 
L 223.643316 295.342462 
L 223.77319 295.488 
L 223.805659 295.415231 
L 223.870597 295.488 
L 224.130346 295.488 
L 224.162815 294.83308 
L 224.227752 295.415231 
L 224.390096 295.415231 
L 224.422564 295.233309 
L 224.455033 295.488 
L 224.487502 295.488 
L 224.682314 295.488 
L 224.714783 295.342462 
L 224.77972 295.488 
L 225.364157 295.488 
L 225.396625 295.196925 
L 225.461563 295.488 
L 226.597967 295.488 
L 226.630436 295.342462 
L 226.695374 295.488 
L 226.760311 295.415231 
L 226.79278 294.396467 
L 226.825248 295.488 
L 226.857717 295.488 
L 227.344748 295.488 
L 227.377216 295.342462 
L 227.442154 295.488 
L 227.701903 295.488 
L 227.734372 295.342462 
L 227.831778 295.415231 
L 227.961653 295.488 
L 228.02659 295.488 
L 228.059059 295.342462 
L 228.123996 295.488 
L 228.351277 295.488 
L 228.383746 295.342462 
L 228.448683 295.488 
L 228.870777 295.488 
L 228.903245 295.342462 
L 228.968183 295.488 
L 229.422744 295.415231 
L 229.455213 295.342462 
L 229.487682 295.488 
L 229.520151 295.415231 
L 229.617557 295.488 
L 229.714963 295.342462 
L 229.844838 295.488 
L 230.201993 295.488 
L 230.234462 295.269693 
L 230.299399 295.488 
L 230.331868 295.415231 
L 230.396805 295.488 
L 230.689024 295.488 
L 230.721493 295.124156 
L 230.78643 295.488 
L 230.883836 295.415231 
L 231.013711 295.488 
L 231.078648 295.342462 
L 231.111117 295.488 
L 231.240992 295.488 
L 231.27346 295.269693 
L 231.338398 295.488 
L 231.370867 295.415231 
L 231.435804 295.488 
L 231.500741 295.488 
L 231.565679 295.342462 
L 231.598147 295.488 
L 231.728022 295.488 
L 231.760491 295.342462 
L 231.825428 295.488 
L 231.987772 295.415231 
L 232.020241 295.269693 
L 232.052709 295.488 
L 232.085178 295.488 
L 232.344928 295.488 
L 232.377396 295.269693 
L 232.442334 295.488 
L 232.994302 295.488 
L 233.02677 294.760312 
L 233.091708 295.488 
L 233.124176 295.488 
L 233.156645 295.269693 
L 233.221583 295.342462 
L 233.351457 295.488 
L 233.448863 295.415231 
L 233.578738 295.488 
L 233.968363 295.488 
L 234.000831 295.342462 
L 234.065769 295.488 
L 234.520331 295.415231 
L 234.552799 295.269693 
L 234.585268 295.488 
L 234.617737 295.415231 
L 234.747611 295.488 
L 235.104767 295.488 
L 235.137236 295.342462 
L 235.234642 295.415231 
L 235.299579 295.488 
L 235.332048 295.415231 
L 238.513981 295.488 
L 238.54645 295.124156 
L 238.611387 295.488 
L 239.098417 295.488 
L 239.130886 293.814317 
L 239.195824 295.488 
L 239.488042 295.488 
L 239.520511 295.342462 
L 239.585448 295.488 
L 241.111477 295.415231 
L 241.143946 295.342462 
L 241.176414 295.488 
L 241.208883 295.415231 
L 241.890726 295.488 
L 241.923195 295.269693 
L 241.988132 295.342462 
L 242.150475 295.488 
L 242.377756 295.415231 
L 242.410225 291.194639 
L 242.442694 295.488 
L 242.475162 295.488 
L 242.572569 295.488 
L 242.605037 295.342462 
L 242.669975 295.488 
L 242.897256 295.488 
L 242.929724 295.342462 
L 242.994662 295.488 
L 243.124536 295.488 
L 243.157005 295.342462 
L 243.221943 295.488 
L 243.416755 295.488 
L 243.449223 295.269693 
L 243.514161 295.488 
L 244.455753 295.488 
L 244.553159 294.687543 
L 244.683034 295.488 
L 244.845378 295.415231 
L 244.877846 295.342462 
L 244.910315 295.488 
L 245.072659 295.415231 
L 245.105127 295.342462 
L 245.137596 295.488 
L 245.202533 295.488 
L 245.235002 294.942234 
L 245.299939 295.415231 
L 245.429814 295.488 
L 245.494752 295.415231 
L 245.52722 295.269693 
L 245.592158 295.342462 
L 245.754501 295.488 
L 245.851907 295.488 
L 245.884376 295.342462 
L 245.949313 295.488 
L 246.209063 295.488 
L 246.306469 295.342462 
L 246.338938 295.488 
L 246.371407 295.269693 
L 246.403875 295.196925 
L 246.53375 295.488 
L 246.923375 295.415231 
L 246.955843 295.342462 
L 246.988312 295.488 
L 247.832498 295.488 
L 247.864967 295.342462 
L 247.929904 295.415231 
L 248.059779 295.488 
L 248.189654 295.124156 
L 248.319529 295.488 
L 248.449403 295.342462 
L 248.579278 295.488 
L 248.968903 295.488 
L 249.03384 295.269693 
L 249.066309 295.488 
L 250.365057 295.415231 
L 250.397526 295.196925 
L 250.429994 295.488 
L 250.462463 295.342462 
L 250.592338 295.488 
L 250.949493 295.488 
L 250.981962 295.342462 
L 251.0469 295.488 
L 251.436524 295.488 
L 251.468993 294.178161 
L 251.53393 295.488 
L 251.598868 295.488 
L 251.631336 295.342462 
L 251.728742 295.415231 
L 251.858617 295.488 
L 251.988492 295.415231 
L 252.118367 295.488 
L 252.248242 295.415231 
L 252.54046 295.488 
L 252.572929 294.978618 
L 252.637866 295.488 
L 252.670335 295.415231 
L 252.735272 295.488 
L 252.767741 295.488 
L 252.800209 295.342462 
L 252.865147 295.415231 
L 252.962553 295.488 
L 252.995022 295.269693 
L 253.059959 295.415231 
L 253.28724 295.488 
L 253.319709 294.687543 
L 253.384646 295.488 
L 253.611927 295.488 
L 253.644396 294.905849 
L 253.709333 295.488 
L 253.774271 295.488 
L 253.806739 294.396467 
L 253.871677 295.415231 
L 253.936614 295.488 
L 253.969083 295.415231 
L 254.423645 295.415231 
L 254.456113 295.233309 
L 254.488582 295.488 
L 254.521051 295.415231 
L 254.585988 295.488 
L 254.618457 295.342462 
L 254.715863 295.415231 
L 254.748332 295.488 
L 254.813269 295.415231 
L 254.845738 294.687543 
L 254.878206 295.488 
L 254.910675 295.342462 
L 255.04055 295.488 
L 255.170425 295.488 
L 255.202893 295.342462 
L 255.267831 295.488 
L 255.560049 295.488 
L 255.592518 295.269693 
L 255.657455 295.415231 
L 255.722393 295.488 
L 255.754861 295.415231 
L 256.112017 295.488 
L 256.144486 293.887086 
L 256.209423 295.415231 
L 256.339298 295.488 
L 256.469173 295.342462 
L 256.599048 295.488 
L 256.728922 295.415231 
L 256.858797 295.488 
L 257.151015 295.488 
L 257.183484 295.342462 
L 257.248422 295.415231 
L 257.378296 295.488 
L 257.410765 295.342462 
L 257.475702 295.488 
L 257.735452 295.415231 
L 257.767921 295.342462 
L 257.800389 295.488 
L 258.222483 295.488 
L 258.319889 295.342462 
L 258.352357 295.488 
L 258.384826 294.323699 
L 258.449764 295.488 
L 258.774451 295.488 
L 258.806919 295.342462 
L 258.904325 295.415231 
L 259.0342 295.488 
L 259.488762 295.488 
L 259.521231 295.342462 
L 259.586168 295.488 
L 259.618637 295.488 
L 259.683574 295.342462 
L 259.716043 295.488 
L 259.813449 295.451616 
L 259.845918 295.342462 
L 259.878386 295.488 
L 259.910855 295.488 
L 260.04073 295.415231 
L 260.170605 295.488 
L 260.560229 295.378847 
L 260.592698 295.342462 
L 260.722573 295.488 
L 261.144666 295.488 
L 261.177134 294.178161 
L 261.242072 295.488 
L 261.696634 295.488 
L 261.729102 295.342462 
L 261.79404 295.488 
L 262.638226 295.488 
L 262.670695 294.214545 
L 262.735632 295.488 
L 263.255131 295.488 
L 263.2876 295.124156 
L 263.352537 295.488 
L 263.417475 295.488 
L 263.449944 295.269693 
L 263.514881 295.488 
L 265.592878 295.415231 
L 265.625347 295.269693 
L 265.657815 295.488 
L 265.722753 295.342462 
L 265.852627 295.488 
L 266.04744 295.415231 
L 266.079908 295.342462 
L 266.112377 295.488 
L 266.144846 295.415231 
L 266.274721 295.488 
L 266.307189 295.342462 
L 266.372127 295.415231 
L 266.469533 295.488 
L 266.53447 295.415231 
L 266.566939 295.488 
L 266.664345 295.488 
L 266.761751 295.342462 
L 266.859157 295.488 
L 266.891626 295.415231 
L 266.989032 295.488 
L 267.021501 295.342462 
L 267.118907 295.415231 
L 267.151376 295.342462 
L 267.216313 295.415231 
L 267.346188 295.488 
L 268.092968 295.488 
L 268.157905 295.269693 
L 268.190374 295.488 
L 268.612467 295.488 
L 268.644936 295.196925 
L 268.709873 295.488 
L 269.554059 295.415231 
L 269.586528 295.342462 
L 269.618997 295.415231 
L 269.651466 294.83308 
L 269.683934 295.488 
L 269.716403 295.488 
L 269.748872 295.488 
L 269.846278 295.342462 
L 269.878746 295.415231 
L 270.008621 295.488 
L 270.04109 295.342462 
L 270.106027 295.415231 
L 270.170965 295.342462 
L 270.203433 295.488 
L 270.235902 295.415231 
L 270.30084 295.488 
L 270.495652 295.415231 
L 270.52812 295.342462 
L 270.560589 295.488 
L 270.593058 295.415231 
L 270.722933 295.488 
L 270.78787 295.488 
L 270.820339 295.269693 
L 270.885276 295.488 
L 272.216493 295.415231 
L 272.248962 295.342462 
L 272.28143 295.488 
L 272.930804 295.488 
L 272.963273 295.196925 
L 273.02821 295.488 
L 273.093148 295.415231 
L 273.125617 295.488 
L 274.424365 295.415231 
L 274.456833 295.342462 
L 274.489302 295.488 
L 274.521771 295.415231 
L 274.651646 295.488 
L 274.749052 295.269693 
L 274.878926 295.488 
L 275.073739 295.415231 
L 275.106207 295.342462 
L 275.138676 295.415231 
L 275.268551 295.488 
L 275.755581 295.488 
L 275.885456 295.342462 
L 276.015331 295.488 
L 276.79458 295.488 
L 276.859517 295.342462 
L 276.891986 295.488 
L 277.671235 295.415231 
L 277.703703 295.342462 
L 277.736172 295.488 
L 277.833578 295.488 
L 277.866047 295.342462 
L 277.963453 295.415231 
L 278.190734 295.488 
L 278.223203 295.269693 
L 278.28814 295.488 
L 278.905045 295.415231 
L 278.937514 295.269693 
L 278.969983 295.488 
L 279.002452 295.488 
L 279.229732 295.488 
L 279.29467 295.124156 
L 279.327139 295.488 
L 279.392076 295.415231 
L 279.424545 295.488 
L 279.846638 295.488 
L 279.879106 295.342462 
L 279.976513 295.415231 
L 280.106387 295.488 
L 280.236262 295.269693 
L 280.333668 295.415231 
L 280.366137 295.342462 
L 280.52848 295.488 
L 280.625887 295.415231 
L 280.723293 295.488 
L 280.755761 295.415231 
L 280.820699 295.488 
L 282.184384 295.488 
L 282.216853 295.342462 
L 282.28179 295.488 
L 282.606477 295.488 
L 282.638946 294.178161 
L 282.703883 295.415231 
L 283.710413 295.415231 
L 283.742882 295.196925 
L 283.775351 295.488 
L 283.807819 295.415231 
L 283.840288 295.488 
L 283.872757 295.415231 
L 283.905225 295.342462 
L 283.937694 295.488 
L 284.814349 295.488 
L 284.846818 295.342462 
L 284.911755 295.415231 
L 285.009161 295.488 
L 285.074099 295.342462 
L 285.106567 295.415231 
L 285.139036 295.488 
L 285.171505 295.415231 
L 285.203973 293.59601 
L 285.236442 295.488 
L 285.268911 294.469236 
L 285.398786 295.488 
L 285.431254 295.342462 
L 285.496192 295.488 
L 285.885816 295.488 
L 286.015691 295.269693 
L 286.145566 295.488 
L 286.210503 295.488 
L 286.242972 295.342462 
L 286.307909 295.488 
L 286.437784 295.415231 
L 286.470253 295.051387 
L 286.502722 295.488 
L 286.53519 295.488 
L 286.567659 295.415231 
L 286.632596 295.488 
L 286.859877 295.415231 
L 286.892346 295.342462 
L 286.924815 295.488 
L 286.957283 295.415231 
L 287.087158 295.488 
L 287.249502 295.488 
L 287.28197 295.342462 
L 287.346908 295.488 
L 287.509251 295.488 
L 287.606657 295.342462 
L 287.736532 295.488 
L 288.191094 295.488 
L 288.223563 295.196925 
L 288.2885 295.488 
L 288.645656 295.488 
L 288.743062 295.342462 
L 288.807999 295.488 
L 288.872937 295.415231 
L 289.100218 295.488 
L 289.132686 295.051387 
L 289.197624 295.488 
L 290.204154 295.415231 
L 290.236622 292.140633 
L 290.269091 295.488 
L 290.30156 295.488 
L 290.366497 295.415231 
L 290.398966 293.814317 
L 290.431434 295.488 
L 290.463903 295.488 
L 291.470433 295.488 
L 291.502902 295.269693 
L 291.567839 295.415231 
L 291.665245 295.488 
L 291.697714 295.269693 
L 291.762651 295.488 
L 291.860057 295.415231 
L 291.989932 295.342462 
L 292.152276 295.488 
L 292.28215 295.342462 
L 292.347088 295.488 
L 292.412025 295.415231 
L 292.671775 295.488 
L 292.704244 294.396467 
L 292.769181 295.415231 
L 292.899056 295.488 
L 294.03546 295.488 
L 294.067929 295.342462 
L 294.165335 295.415231 
L 294.262741 295.488 
L 294.29521 295.451616 
L 294.457553 295.488 
L 294.554959 295.342462 
L 294.684834 295.488 
L 294.78224 295.342462 
L 294.912115 295.488 
L 295.691364 295.488 
L 295.723833 295.269693 
L 295.78877 295.488 
L 296.178395 295.415231 
L 296.210863 295.342462 
L 296.243332 295.488 
L 296.7953 295.488 
L 296.827769 295.342462 
L 296.925175 295.415231 
L 297.022581 295.488 
L 297.05505 295.415231 
L 297.119987 295.488 
L 297.347268 295.488 
L 297.379737 295.342462 
L 297.444674 295.488 
L 298.418735 295.488 
L 298.451204 295.342462 
L 298.54861 295.415231 
L 298.646016 295.488 
L 298.678485 295.415231 
L 298.743422 295.488 
L 298.840828 295.488 
L 298.873297 295.342462 
L 298.938234 295.415231 
L 299.068109 295.488 
L 299.100578 295.415231 
L 299.165515 295.488 
L 299.620077 295.488 
L 299.652546 295.342462 
L 299.717483 295.415231 
L 299.847358 295.488 
L 299.912295 295.415231 
L 299.944764 295.451616 
L 300.04217 295.488 
L 300.074639 295.342462 
L 300.139576 295.488 
L 300.204514 295.488 
L 300.236982 295.342462 
L 300.30192 295.415231 
L 300.431794 295.488 
L 300.594138 295.342462 
L 300.626607 295.488 
L 300.659075 293.050244 
L 300.724013 295.488 
L 301.146106 295.488 
L 301.178575 295.342462 
L 301.243512 295.488 
L 301.633136 295.488 
L 301.730543 293.850701 
L 301.860417 295.488 
L 302.347448 295.415231 
L 302.379917 295.342462 
L 302.412385 295.415231 
L 302.54226 295.488 
L 302.866947 295.488 
L 302.899416 295.342462 
L 302.996822 295.415231 
L 303.094228 295.488 
L 303.126697 295.342462 
L 303.191634 295.415231 
L 303.321509 295.488 
L 303.581258 295.488 
L 303.613727 295.342462 
L 303.678665 295.415231 
L 303.808539 295.488 
L 304.003352 295.488 
L 304.03582 295.342462 
L 304.100758 295.488 
L 304.360507 295.415231 
L 304.392976 294.069008 
L 304.425445 295.488 
L 304.457913 295.415231 
L 306.04888 295.415231 
L 306.081348 295.269693 
L 306.113817 295.488 
L 306.146286 295.342462 
L 306.276161 295.488 
L 306.470973 295.488 
L 306.503442 295.269693 
L 306.568379 295.488 
L 306.893066 295.488 
L 306.925535 295.342462 
L 306.990472 295.488 
L 307.087878 295.488 
L 307.120347 295.269693 
L 307.185284 295.488 
L 309.230813 295.415231 
L 309.263281 295.342462 
L 309.29575 295.488 
L 309.328219 295.415231 
L 309.458093 295.488 
L 310.074999 295.488 
L 310.107467 295.342462 
L 310.172405 295.488 
L 310.464623 295.488 
L 310.497092 295.269693 
L 310.562029 295.488 
L 310.626967 295.415231 
L 310.659435 295.488 
L 310.724373 295.488 
L 310.756842 294.542005 
L 310.821779 295.488 
L 311.081529 295.488 
L 311.113997 295.342462 
L 311.211403 295.415231 
L 311.341278 295.488 
L 311.633496 295.488 
L 311.665965 295.342462 
L 311.763371 295.415231 
L 311.860777 295.488 
L 311.893246 295.415231 
L 311.958183 295.488 
L 312.737432 295.488 
L 312.769901 295.196925 
L 312.834838 295.488 
L 313.484212 295.488 
L 313.516681 294.469236 
L 313.581619 295.415231 
L 313.711493 295.488 
L 315.562209 295.415231 
L 315.594678 295.342462 
L 315.627147 295.488 
L 315.659615 295.415231 
L 315.78949 295.488 
L 315.919365 295.415231 
L 316.04924 295.488 
L 316.081709 295.415231 
L 316.146646 295.488 
L 316.308989 295.488 
L 316.341458 295.342462 
L 316.438864 295.415231 
L 318.809079 295.488 
L 318.841548 295.196925 
L 318.906486 295.488 
L 319.03636 295.488 
L 319.068829 295.342462 
L 319.166235 295.415231 
L 322.153356 295.488 
L 322.185824 292.904706 
L 322.250762 295.488 
L 322.900136 295.488 
L 322.932605 295.342462 
L 322.997542 295.488 
L 324.198884 295.415231 
L 324.231353 295.342462 
L 324.263821 295.488 
L 325.172945 295.488 
L 325.205414 295.342462 
L 325.270351 295.488 
L 325.595038 295.488 
L 325.627507 295.342462 
L 325.724913 295.415231 
L 325.78985 295.488 
L 325.822319 295.269693 
L 325.887256 295.488 
L 326.439224 295.488 
L 326.53663 295.269693 
L 326.666505 295.488 
L 327.510691 295.488 
L 327.54316 295.342462 
L 327.608098 295.488 
L 327.640566 295.488 
L 327.673035 295.342462 
L 327.737972 295.488 
L 328.257472 295.488 
L 328.28994 295.342462 
L 328.354878 295.488 
L 328.712033 295.488 
L 328.744502 295.342462 
L 328.809439 295.488 
L 329.004252 295.488 
L 329.069189 295.342462 
L 329.101658 295.488 
L 329.29647 295.415231 
L 329.426345 295.269693 
L 329.55622 295.488 
L 329.621157 295.415231 
L 329.653626 295.451616 
L 329.815969 295.488 
L 331.114717 295.488 
L 331.147186 295.196925 
L 331.179655 295.415231 
L 331.212123 293.377704 
L 331.244592 295.488 
L 331.277061 295.415231 
L 331.406936 295.488 
L 331.471873 295.415231 
L 331.504342 295.488 
L 331.634217 295.488 
L 331.666685 295.342462 
L 331.731623 295.415231 
L 331.861497 295.488 
L 332.997902 295.415231 
L 333.030371 295.342462 
L 333.062839 295.488 
L 333.744682 295.488 
L 333.777151 295.342462 
L 333.842088 295.488 
L 334.29665 295.488 
L 334.394056 295.342462 
L 334.491462 295.269693 
L 334.523931 295.488 
L 334.913555 295.488 
L 334.946024 295.342462 
L 335.010961 295.488 
L 335.887616 295.488 
L 335.920085 292.35894 
L 335.985023 295.415231 
L 336.53699 295.488 
L 336.569459 295.196925 
L 336.634397 295.488 
L 337.381177 295.488 
L 337.478583 295.342462 
L 337.511051 295.415231 
L 337.640926 295.488 
L 337.673395 295.415231 
L 337.738332 295.488 
L 338.485113 295.488 
L 338.517581 295.342462 
L 338.582519 295.415231 
L 338.679925 295.488 
L 338.712393 295.342462 
L 338.777331 295.488 
L 338.874737 295.488 
L 338.907206 295.342462 
L 338.972143 295.488 
L 339.231893 295.488 
L 339.264361 295.342462 
L 339.329299 295.488 
L 339.524111 295.488 
L 339.55658 295.342462 
L 339.621517 295.488 
L 339.783861 295.488 
L 339.946204 295.269693 
L 340.04361 295.488 
L 340.076079 295.342462 
L 340.173485 295.415231 
L 340.270891 295.488 
L 340.30336 295.415231 
L 340.368297 295.488 
L 340.498172 295.488 
L 340.530641 295.196925 
L 340.595578 295.488 
L 341.017671 295.488 
L 341.05014 295.342462 
L 341.147546 295.415231 
L 341.277421 295.488 
L 341.342358 295.488 
L 341.374827 295.342462 
L 341.472233 295.415231 
L 341.602108 295.488 
L 341.79692 295.488 
L 341.829389 295.269693 
L 341.894326 295.415231 
L 345.530821 295.488 
L 345.563289 294.83308 
L 345.628227 295.415231 
L 345.887976 295.415231 
L 345.920445 295.269693 
L 345.952914 295.488 
L 345.985383 295.488 
L 346.53735 295.415231 
L 346.569819 295.342462 
L 346.602288 295.488 
L 346.634757 295.415231 
L 346.732163 295.488 
L 346.829569 295.196925 
L 346.959444 295.488 
L 348.388066 295.488 
L 348.420535 295.342462 
L 348.485473 295.415231 
L 348.615347 295.488 
L 348.647816 295.342462 
L 348.745222 295.415231 
L 348.875097 295.488 
L 349.004972 295.488 
L 349.03744 295.342462 
L 349.102378 295.488 
L 349.329659 295.488 
L 349.362127 295.342462 
L 349.459534 295.415231 
L 349.589408 295.488 
L 349.621877 295.415231 
L 349.686814 295.488 
L 350.076439 295.488 
L 350.108908 295.269693 
L 350.173845 295.488 
L 350.206314 295.488 
L 350.238782 295.342462 
L 350.30372 295.488 
L 351.018031 295.488 
L 351.0505 295.269693 
L 351.147906 295.342462 
L 351.180375 295.342462 
L 351.31025 295.488 
L 351.440124 295.415231 
L 351.569999 295.488 
L 351.634937 295.488 
L 351.667405 295.342462 
L 351.732343 295.488 
L 352.024561 295.488 
L 352.05703 284.754596 
L 352.121967 295.488 
L 352.251842 295.269693 
L 352.349248 295.488 
L 352.381717 292.868322 
L 352.446654 295.488 
L 352.673935 295.488 
L 352.706404 295.342462 
L 352.771341 295.488 
L 353.096028 295.488 
L 353.128497 295.342462 
L 353.225903 295.415231 
L 353.355778 295.488 
L 353.453184 295.415231 
L 353.55059 295.488 
L 353.680465 295.415231 
L 353.777871 295.488 
L 353.81034 295.342462 
L 353.875277 295.415231 
L 353.972683 295.488 
L 354.102558 295.415231 
L 357.54424 295.488 
L 357.674115 295.196925 
L 357.80399 295.488 
L 358.940394 295.415231 
L 359.005332 295.342462 
L 359.102738 295.488 
L 359.135207 295.415231 
L 359.265081 295.488 
L 359.29755 295.415231 
L 359.362488 295.488 
L 360.141736 295.488 
L 360.174205 295.342462 
L 360.239142 295.488 
L 360.693704 295.488 
L 360.726173 295.342462 
L 360.79111 295.415231 
L 360.920985 295.488 
L 360.953454 295.488 
L 361.018391 295.342462 
L 361.05086 295.488 
L 362.154796 295.488 
L 362.284671 295.269693 
L 362.382077 295.488 
L 362.414545 295.415231 
L 362.54442 295.488 
L 362.641826 295.488 
L 362.739232 295.342462 
L 362.80417 295.269693 
L 362.869107 295.488 
L 362.901576 295.415231 
L 362.966513 295.488 
L 364.265261 295.488 
L 364.29773 295.342462 
L 364.362668 295.488 
L 364.914635 295.488 
L 364.947104 295.342462 
L 365.012042 295.415231 
L 365.141916 295.488 
L 365.174385 295.488 
L 365.206854 295.342462 
L 365.30426 295.415231 
L 365.401666 295.488 
L 365.434135 295.451616 
L 365.499072 295.488 
L 365.531541 295.342462 
L 365.596478 295.415231 
L 365.726353 295.488 
L 365.823759 295.415231 
L 365.953634 295.488 
L 366.375727 295.415231 
L 366.408196 295.269693 
L 366.440664 295.488 
L 366.473133 295.415231 
L 366.603008 295.488 
L 366.732883 295.415231 
L 366.862758 295.488 
L 367.154976 295.488 
L 367.187445 295.342462 
L 367.284851 295.415231 
L 367.382257 295.488 
L 367.414725 295.342462 
L 367.479663 295.488 
L 367.706944 295.488 
L 367.739412 295.342462 
L 367.80435 295.488 
L 368.616067 295.488 
L 368.681005 295.342462 
L 368.713474 295.488 
L 369.784941 295.488 
L 369.817409 295.342462 
L 369.914815 295.415231 
L 370.012222 295.488 
L 370.174565 295.269693 
L 370.30444 295.488 
L 370.434315 295.415231 
L 372.155156 295.488 
L 372.187625 295.269693 
L 372.252562 295.415231 
L 372.382437 295.488 
L 373.031811 295.415231 
L 373.06428 294.069008 
L 373.096748 295.488 
L 373.129217 295.488 
L 373.161686 295.488 
L 373.194154 295.269693 
L 373.259092 295.488 
L 373.421435 295.342462 
L 373.583779 295.488 
L 373.681185 295.342462 
L 373.778591 295.488 
L 373.81106 295.415231 
L 373.940934 295.488 
L 373.973403 295.269693 
L 374.038341 295.488 
L 374.492902 295.415231 
L 374.525371 295.342462 
L 374.55784 295.415231 
L 374.655246 295.488 
L 374.752652 295.196925 
L 374.882527 295.488 
L 375.239683 295.488 
L 375.272151 295.269693 
L 375.337089 295.488 
L 375.466963 295.488 
L 375.499432 295.342462 
L 375.56437 295.415231 
L 375.694244 295.488 
L 375.921525 295.415231 
L 375.953994 295.269693 
L 375.986463 295.488 
L 376.018931 295.488 
L 376.278681 295.415231 
L 376.31115 295.342462 
L 376.343618 295.415231 
L 376.441024 295.488 
L 376.570899 295.415231 
L 376.700774 295.488 
L 376.765711 295.488 
L 376.895586 295.269693 
L 377.025461 295.488 
L 377.447554 295.488 
L 377.480023 295.342462 
L 377.54496 295.488 
L 377.837179 295.415231 
L 377.869647 295.124156 
L 377.902116 295.488 
L 377.934585 295.415231 
L 378.06446 295.488 
L 379.038521 295.488 
L 379.070989 295.342462 
L 379.135927 295.415231 
L 379.265801 295.488 
L 379.363208 295.488 
L 379.395676 295.342462 
L 379.460614 295.488 
L 379.590489 295.488 
L 379.622957 295.342462 
L 379.720363 295.415231 
L 379.785301 295.488 
L 379.817769 295.342462 
L 379.882707 295.488 
L 381.213924 295.415231 
L 381.246392 295.342462 
L 381.278861 295.488 
L 381.636017 295.488 
L 381.668485 295.342462 
L 381.733423 295.488 
L 382.512672 295.488 
L 382.54514 295.342462 
L 382.610078 295.488 
L 383.259452 295.488 
L 383.29192 295.342462 
L 383.356858 295.488 
L 384.136107 295.488 
L 384.168575 295.342462 
L 384.233513 295.488 
L 384.265982 295.488 
L 384.330919 294.614774 
L 384.363388 295.488 
L 384.460794 295.415231 
L 384.590669 295.488 
L 385.142636 295.415231 
L 385.175105 295.269693 
L 385.240043 295.342462 
L 385.369917 295.488 
L 386.084229 295.488 
L 386.149166 295.342462 
L 386.214104 295.415231 
L 386.279041 295.342462 
L 386.343978 295.488 
L 386.441385 295.342462 
L 386.538791 295.488 
L 386.571259 295.342462 
L 386.636197 295.415231 
L 386.733603 295.488 
L 386.831009 295.342462 
L 386.895946 295.233309 
L 386.960884 295.488 
L 387.025821 295.342462 
L 387.05829 295.415231 
L 387.123227 295.488 
L 387.253102 295.342462 
L 387.415446 295.488 
L 387.447914 295.415231 
L 387.512852 295.488 
L 387.740133 295.488 
L 387.772601 295.342462 
L 387.837539 295.488 
L 388.194694 295.488 
L 388.227163 295.342462 
L 388.2921 295.415231 
L 388.421975 295.488 
L 388.714194 295.488 
L 388.746662 295.342462 
L 388.8116 295.415231 
L 388.941475 295.488 
L 389.038881 295.488 
L 389.071349 295.269693 
L 389.136287 295.488 
L 389.29863 295.488 
L 389.331099 295.269693 
L 389.396036 295.488 
L 389.460974 295.269693 
L 389.525911 295.415231 
L 389.655786 295.488 
L 389.688255 295.488 
L 389.720723 295.342462 
L 389.818129 295.378847 
L 389.948004 295.488 
L 390.402566 295.488 
L 390.435035 295.342462 
L 390.499972 295.415231 
L 390.597378 295.488 
L 390.662316 295.415231 
L 390.694784 295.488 
L 391.05194 295.415231 
L 391.084409 295.342462 
L 391.116878 295.488 
L 392.80525 295.488 
L 392.837719 295.342462 
L 392.902656 295.488 
L 393.324749 295.415231 
L 393.357218 295.342462 
L 393.422155 295.415231 
L 393.55203 295.488 
L 393.616968 295.415231 
L 393.649436 295.488 
L 395.207934 295.415231 
L 395.240403 295.342462 
L 395.272871 295.488 
L 395.402746 295.415231 
L 395.435215 295.196925 
L 395.467683 295.488 
L 395.500152 295.488 
L 395.630027 295.415231 
L 395.759902 295.488 
L 396.019651 295.488 
L 396.05212 295.342462 
L 396.117058 295.488 
L 397.675555 295.415231 
L 397.708024 295.342462 
L 397.740493 295.488 
L 398.487273 295.488 
L 398.487273 295.488 
" style="fill:none;stroke:#1f77b4;stroke-linecap:square;stroke-width:1.5;"/>
   </g>
   <g id="patch_3">
    <path d="M 57.6 307.584 
L 57.6 41.472 
" style="fill:none;stroke:#000000;stroke-linecap:square;stroke-linejoin:miter;stroke-width:0.8;"/>
   </g>
   <g id="patch_4">
    <path d="M 414.72 307.584 
L 414.72 41.472 
" style="fill:none;stroke:#000000;stroke-linecap:square;stroke-linejoin:miter;stroke-width:0.8;"/>
   </g>
   <g id="patch_5">
    <path d="M 57.6 307.584 
L 414.72 307.584 
" style="fill:none;stroke:#000000;stroke-linecap:square;stroke-linejoin:miter;stroke-width:0.8;"/>
   </g>
   <g id="patch_6">
    <path d="M 57.6 41.472 
L 414.72 41.472 
" style="fill:none;stroke:#000000;stroke-linecap:square;stroke-linejoin:miter;stroke-width:0.8;"/>
   </g>
   <g id="text_16">
    <!-- Difference in return from optimum for DQN agent -->
    <g transform="translate(87.615938 35.472)scale(0.12 -0.12)">
     <defs>
      <path d="M 3328 2828 
Q 3544 3216 3844 3400 
Q 4144 3584 4550 3584 
Q 5097 3584 5394 3201 
Q 5691 2819 5691 2113 
L 5691 0 
L 5113 0 
L 5113 2094 
Q 5113 2597 4934 2840 
Q 4756 3084 4391 3084 
Q 3944 3084 3684 2787 
Q 3425 2491 3425 1978 
L 3425 0 
L 2847 0 
L 2847 2094 
Q 2847 2600 2669 2842 
Q 2491 3084 2119 3084 
Q 1678 3084 1418 2786 
Q 1159 2488 1159 1978 
L 1159 0 
L 581 0 
L 581 3500 
L 1159 3500 
L 1159 2956 
Q 1356 3278 1631 3431 
Q 1906 3584 2284 3584 
Q 2666 3584 2933 3390 
Q 3200 3197 3328 2828 
z
" id="DejaVuSans-6d" transform="scale(0.015625)"/>
      <path d="M 2522 4238 
Q 1834 4238 1429 3725 
Q 1025 3213 1025 2328 
Q 1025 1447 1429 934 
Q 1834 422 2522 422 
Q 3209 422 3611 934 
Q 4013 1447 4013 2328 
Q 4013 3213 3611 3725 
Q 3209 4238 2522 4238 
z
M 3406 84 
L 4238 -825 
L 3475 -825 
L 2784 -78 
Q 2681 -84 2626 -87 
Q 2572 -91 2522 -91 
Q 1538 -91 948 567 
Q 359 1225 359 2328 
Q 359 3434 948 4092 
Q 1538 4750 2522 4750 
Q 3503 4750 4090 4092 
Q 4678 3434 4678 2328 
Q 4678 1516 4351 937 
Q 4025 359 3406 84 
z
" id="DejaVuSans-51" transform="scale(0.015625)"/>
      <path d="M 628 4666 
L 1478 4666 
L 3547 763 
L 3547 4666 
L 4159 4666 
L 4159 0 
L 3309 0 
L 1241 3903 
L 1241 0 
L 628 0 
L 628 4666 
z
" id="DejaVuSans-4e" transform="scale(0.015625)"/>
      <path d="M 2194 1759 
Q 1497 1759 1228 1600 
Q 959 1441 959 1056 
Q 959 750 1161 570 
Q 1363 391 1709 391 
Q 2188 391 2477 730 
Q 2766 1069 2766 1631 
L 2766 1759 
L 2194 1759 
z
M 3341 1997 
L 3341 0 
L 2766 0 
L 2766 531 
Q 2569 213 2275 61 
Q 1981 -91 1556 -91 
Q 1019 -91 701 211 
Q 384 513 384 1019 
Q 384 1609 779 1909 
Q 1175 2209 1959 2209 
L 2766 2209 
L 2766 2266 
Q 2766 2663 2505 2880 
Q 2244 3097 1772 3097 
Q 1472 3097 1187 3025 
Q 903 2953 641 2809 
L 641 3341 
Q 956 3463 1253 3523 
Q 1550 3584 1831 3584 
Q 2591 3584 2966 3190 
Q 3341 2797 3341 1997 
z
" id="DejaVuSans-61" transform="scale(0.015625)"/>
      <path d="M 2906 1791 
Q 2906 2416 2648 2759 
Q 2391 3103 1925 3103 
Q 1463 3103 1205 2759 
Q 947 2416 947 1791 
Q 947 1169 1205 825 
Q 1463 481 1925 481 
Q 2391 481 2648 825 
Q 2906 1169 2906 1791 
z
M 3481 434 
Q 3481 -459 3084 -895 
Q 2688 -1331 1869 -1331 
Q 1566 -1331 1297 -1286 
Q 1028 -1241 775 -1147 
L 775 -588 
Q 1028 -725 1275 -790 
Q 1522 -856 1778 -856 
Q 2344 -856 2625 -561 
Q 2906 -266 2906 331 
L 2906 616 
Q 2728 306 2450 153 
Q 2172 0 1784 0 
Q 1141 0 747 490 
Q 353 981 353 1791 
Q 353 2603 747 3093 
Q 1141 3584 1784 3584 
Q 2172 3584 2450 3431 
Q 2728 3278 2906 2969 
L 2906 3500 
L 3481 3500 
L 3481 434 
z
" id="DejaVuSans-67" transform="scale(0.015625)"/>
     </defs>
     <use xlink:href="#DejaVuSans-44"/>
     <use x="77.001953" xlink:href="#DejaVuSans-69"/>
     <use x="104.785156" xlink:href="#DejaVuSans-66"/>
     <use x="139.990234" xlink:href="#DejaVuSans-66"/>
     <use x="175.195312" xlink:href="#DejaVuSans-65"/>
     <use x="236.71875" xlink:href="#DejaVuSans-72"/>
     <use x="275.582031" xlink:href="#DejaVuSans-65"/>
     <use x="337.105469" xlink:href="#DejaVuSans-6e"/>
     <use x="400.484375" xlink:href="#DejaVuSans-63"/>
     <use x="455.464844" xlink:href="#DejaVuSans-65"/>
     <use x="516.988281" xlink:href="#DejaVuSans-20"/>
     <use x="548.775391" xlink:href="#DejaVuSans-69"/>
     <use x="576.558594" xlink:href="#DejaVuSans-6e"/>
     <use x="639.9375" xlink:href="#DejaVuSans-20"/>
     <use x="671.724609" xlink:href="#DejaVuSans-72"/>
     <use x="710.587891" xlink:href="#DejaVuSans-65"/>
     <use x="772.111328" xlink:href="#DejaVuSans-74"/>
     <use x="811.320312" xlink:href="#DejaVuSans-75"/>
     <use x="874.699219" xlink:href="#DejaVuSans-72"/>
     <use x="914.0625" xlink:href="#DejaVuSans-6e"/>
     <use x="977.441406" xlink:href="#DejaVuSans-20"/>
     <use x="1009.228516" xlink:href="#DejaVuSans-66"/>
     <use x="1044.433594" xlink:href="#DejaVuSans-72"/>
     <use x="1083.296875" xlink:href="#DejaVuSans-6f"/>
     <use x="1144.478516" xlink:href="#DejaVuSans-6d"/>
     <use x="1241.890625" xlink:href="#DejaVuSans-20"/>
     <use x="1273.677734" xlink:href="#DejaVuSans-6f"/>
     <use x="1334.859375" xlink:href="#DejaVuSans-70"/>
     <use x="1398.335938" xlink:href="#DejaVuSans-74"/>
     <use x="1437.544922" xlink:href="#DejaVuSans-69"/>
     <use x="1465.328125" xlink:href="#DejaVuSans-6d"/>
     <use x="1562.740234" xlink:href="#DejaVuSans-75"/>
     <use x="1626.119141" xlink:href="#DejaVuSans-6d"/>
     <use x="1723.53125" xlink:href="#DejaVuSans-20"/>
     <use x="1755.318359" xlink:href="#DejaVuSans-66"/>
     <use x="1790.523438" xlink:href="#DejaVuSans-6f"/>
     <use x="1851.705078" xlink:href="#DejaVuSans-72"/>
     <use x="1892.818359" xlink:href="#DejaVuSans-20"/>
     <use x="1924.605469" xlink:href="#DejaVuSans-44"/>
     <use x="2001.607422" xlink:href="#DejaVuSans-51"/>
     <use x="2080.318359" xlink:href="#DejaVuSans-4e"/>
     <use x="2155.123047" xlink:href="#DejaVuSans-20"/>
     <use x="2186.910156" xlink:href="#DejaVuSans-61"/>
     <use x="2248.189453" xlink:href="#DejaVuSans-67"/>
     <use x="2311.666016" xlink:href="#DejaVuSans-65"/>
     <use x="2373.189453" xlink:href="#DejaVuSans-6e"/>
     <use x="2436.568359" xlink:href="#DejaVuSans-74"/>
    </g>
   </g>
  </g>
 </g>
 <defs>
  <clipPath id="pb5ec6837e3">
   <rect height="266.112" width="357.12" x="57.6" y="41.472"/>
  </clipPath>
 </defs>
</svg>
